<svg width="76" height="76" viewBox="0 0 76 76" fill="none" xmlns="http://www.w3.org/2000/svg">
<rect width="76" height="76" rx="28" fill="#22BB9C" fill-opacity="0.08"/>
<path fill-rule="evenodd" clip-rule="evenodd" d="M49.7 42.3H50.35C50.7075 42.3 51 42.5925 51 42.95V44.25C51 44.6075 50.7075 44.9 50.35 44.9H48.4C48.4 47.0531 46.6531 48.8 44.5 48.8C42.3469 48.8 40.6 47.0531 40.6 44.9H35.4C35.4 47.0531 33.6531 48.8 31.5 48.8C29.3469 48.8 27.6 47.0531 27.6 44.9V39.7H33.775C33.9537 39.7 34.1 39.5537 34.1 39.375V38.725C34.1 38.5462 33.9537 38.4 33.775 38.4H25.325C25.1463 38.4 25 38.2537 25 38.075V37.425C25 37.2462 25.1463 37.1 25.325 37.1H35.075C35.2537 37.1 35.4 36.9537 35.4 36.775V36.125C35.4 35.9462 35.2537 35.8 35.075 35.8H26.625C26.4462 35.8 26.3 35.6537 26.3 35.475V34.825C26.3 34.6462 26.4462 34.5 26.625 34.5H36.375C36.5538 34.5 36.7 34.3537 36.7 34.175V33.525C36.7 33.3462 36.5538 33.2 36.375 33.2H25.325C25.1463 33.2 25 33.0537 25 32.875V32.225C25 32.0462 25.1463 31.9 25.325 31.9H27.6V29.95C27.6 28.8734 28.4734 28 29.55 28H39.95C41.0266 28 41.9 28.8734 41.9 29.95V31.9H43.6916C44.2075 31.9 44.7031 32.1072 45.0688 32.4728L49.1272 36.5312C49.4928 36.8969 49.7 37.3925 49.7 37.9084V42.3ZM29.5495 44.9C29.5495 45.9766 30.4229 46.85 31.4995 46.85C32.5761 46.85 33.4495 45.9766 33.4495 44.9C33.4495 43.8234 32.5761 42.95 31.4995 42.95C30.4229 42.95 29.5495 43.8234 29.5495 44.9ZM42.5495 44.9C42.5495 45.9766 43.4229 46.85 44.4995 46.85C45.5761 46.85 46.4495 45.9766 46.4495 44.9C46.4495 43.8234 45.5761 42.95 44.4995 42.95C43.4229 42.95 42.5495 43.8234 42.5495 44.9ZM41.8995 38.4H47.7495V37.9084L43.6911 33.85H41.8995V38.4Z" fill="#47AC5F"/>
</svg>
