<svg width="20" height="20" viewBox="0 0 20 20" fill="none" xmlns="http://www.w3.org/2000/svg">
<path d="M9.0575 13.859C9.00917 13.8119 8.8025 13.6341 8.6325 13.4685C7.56333 12.4975 5.81333 9.96467 5.27917 8.63896C5.19333 8.43763 5.01167 7.92862 5 7.65666C5 7.39607 5.06 7.14765 5.18167 6.9106C5.35167 6.6151 5.61917 6.37804 5.935 6.24815C6.15417 6.16454 6.81 6.03464 6.82167 6.03464C7.53917 5.90475 8.705 5.83331 9.99333 5.83331C11.2208 5.83331 12.3392 5.90475 13.0675 6.0111C13.0792 6.02328 13.8942 6.15317 14.1733 6.29524C14.6833 6.55583 15 7.06484 15 7.60958V7.65666C14.9875 8.01143 14.6708 8.75749 14.6592 8.75749C14.1242 10.0118 12.46 12.4862 11.3542 13.4807C11.3542 13.4807 11.07 13.7607 10.8925 13.8825C10.6375 14.0725 10.3217 14.1666 10.0058 14.1666C9.65333 14.1666 9.325 14.0603 9.0575 13.859Z" fill="#9E9E9E"/>
</svg>
