<svg width="76" height="76" viewBox="0 0 76 76" fill="none" xmlns="http://www.w3.org/2000/svg">
<rect width="76" height="76" rx="28" fill="#22BB9C" fill-opacity="0.08"/>
<path d="M39.6438 26.9319C38.5896 26.5045 37.4104 26.5045 36.3561 26.9319L33.8011 27.9679L44.9918 32.3196L48.9281 30.7994C48.7668 30.6655 48.5858 30.5573 48.3915 30.4786L39.6438 26.9319Z" fill="#47AC5F"/>
<path d="M49.6667 32.3895L38.875 36.5592V49.3027C39.1363 49.2502 39.393 49.172 39.6438 49.0705L48.3915 45.5239C48.7683 45.3712 49.0909 45.1096 49.3181 44.7725C49.5453 44.4353 49.6667 44.0381 49.6667 43.6315V32.3907V32.3895Z" fill="#47AC5F"/>
<path d="M37.125 49.3027V36.5592L26.3334 32.3895V43.6327C26.3336 44.039 26.4551 44.4361 26.6822 44.773C26.9094 45.1099 27.2319 45.3713 27.6085 45.5239L36.3562 49.0705C36.607 49.172 36.8637 49.249 37.125 49.3039V49.3027Z" fill="#47AC5F"/>
<path d="M27.0718 30.7994L37.9999 35.0215L42.5698 33.2552L31.4363 28.9269L27.6084 30.4785C27.4101 30.559 27.2304 30.6675 27.0718 30.7994Z" fill="#47AC5F"/>
</svg>
