<svg width="28" height="28" viewBox="0 0 28 28" fill="none" xmlns="http://www.w3.org/2000/svg">
<path d="M6.99996 23.3333C6.02774 23.3333 5.20135 22.993 4.52079 22.3125C3.84024 21.6319 3.49996 20.8055 3.49996 19.8333H1.16663V6.99996C1.16663 6.35829 1.39529 5.80918 1.85263 5.35263C2.30918 4.89529 2.85829 4.66663 3.49996 4.66663H19.8333V9.33329H23.3333L26.8333 14V19.8333H24.5C24.5 20.8055 24.1597 21.6319 23.4791 22.3125C22.7986 22.993 21.9722 23.3333 21 23.3333C20.0277 23.3333 19.2013 22.993 18.5208 22.3125C17.8402 21.6319 17.5 20.8055 17.5 19.8333H10.5C10.5 20.8055 10.1597 21.6319 9.47913 22.3125C8.79857 22.993 7.97218 23.3333 6.99996 23.3333ZM6.99996 21C7.33052 21 7.60779 20.888 7.83179 20.664C8.05502 20.4407 8.16663 20.1638 8.16663 19.8333C8.16663 19.5027 8.05502 19.2258 7.83179 19.0026C7.60779 18.7786 7.33052 18.6666 6.99996 18.6666C6.6694 18.6666 6.39213 18.7786 6.16813 19.0026C5.9449 19.2258 5.83329 19.5027 5.83329 19.8333C5.83329 20.1638 5.9449 20.4407 6.16813 20.664C6.39213 20.888 6.6694 21 6.99996 21ZM21 21C21.3305 21 21.6074 20.888 21.8306 20.664C22.0546 20.4407 22.1666 20.1638 22.1666 19.8333C22.1666 19.5027 22.0546 19.2258 21.8306 19.0026C21.6074 18.7786 21.3305 18.6666 21 18.6666C20.6694 18.6666 20.3925 18.7786 20.1693 19.0026C19.9453 19.2258 19.8333 19.5027 19.8333 19.8333C19.8333 20.1638 19.9453 20.4407 20.1693 20.664C20.3925 20.888 20.6694 21 21 21ZM19.8333 15.1666H24.7916L22.1666 11.6666H19.8333V15.1666Z" fill="#47AC5F"/>
</svg>
