<svg width="20" height="20" viewBox="0 0 20 20" fill="none" xmlns="http://www.w3.org/2000/svg">
<path d="M11.1742 2.09417C10.4212 1.78887 9.57886 1.78887 8.82585 2.09417L7.00085 2.83417L14.9942 5.9425L17.8059 4.85667C17.6906 4.76102 17.5613 4.68372 17.4225 4.6275L11.1742 2.09417Z" fill="#9E9E9E"/>
<path d="M18.3333 5.9925L10.625 8.97083V18.0733C10.8117 18.0358 10.995 17.98 11.1742 17.9075L17.4225 15.3742C17.6916 15.2652 17.9221 15.0783 18.0844 14.8375C18.2466 14.5967 18.3333 14.3129 18.3333 14.0225V5.99333V5.9925Z" fill="#9E9E9E"/>
<path d="M9.37502 18.0733V8.97083L1.66669 5.9925V14.0233C1.66685 14.3136 1.75362 14.5972 1.91588 14.8378C2.07814 15.0784 2.30851 15.2652 2.57752 15.3742L8.82585 17.9075C9.00502 17.98 9.18835 18.035 9.37502 18.0742V18.0733Z" fill="#9E9E9E"/>
<path d="M2.19415 4.85666L9.99999 7.8725L13.2642 6.61083L5.31165 3.51917L2.57749 4.6275C2.43582 4.685 2.30749 4.7625 2.19415 4.85666Z" fill="#9E9E9E"/>
</svg>
