<svg width="28" height="28" viewBox="0 0 28 28" fill="none" xmlns="http://www.w3.org/2000/svg">
<path d="M15.6439 2.93189C14.5897 2.50447 13.4105 2.50447 12.3563 2.93189L9.80127 3.96789L20.9919 8.31956L24.9283 6.79939C24.7669 6.66548 24.5859 6.55727 24.3916 6.47856L15.6439 2.93189Z" fill="#47AC5F"/>
<path d="M25.6667 8.3894L14.875 12.5591V25.3026C15.1363 25.2501 15.393 25.1719 15.6438 25.0704L24.3915 21.5237C24.7683 21.3711 25.0909 21.1095 25.3181 20.7723C25.5453 20.4352 25.6667 20.0379 25.6667 19.6314V8.39057V8.3894Z" fill="#47AC5F"/>
<path d="M13.1249 25.3026V12.5591L2.33325 8.3894V19.6326C2.33348 20.0389 2.45495 20.4359 2.68212 20.7728C2.90928 21.1097 3.23181 21.3712 3.60842 21.5237L12.3561 25.0704C12.6069 25.1719 12.8636 25.2489 13.1249 25.3037V25.3026Z" fill="#47AC5F"/>
<path d="M3.07178 6.79926L13.9999 11.0214L18.5698 9.25509L7.43628 4.92676L3.60844 6.47842C3.41011 6.55892 3.23044 6.66742 3.07178 6.79926Z" fill="#47AC5F"/>
</svg>
