<svg width="28" height="28" viewBox="0 0 28 28" fill="none" xmlns="http://www.w3.org/2000/svg">
<path fill-rule="evenodd" clip-rule="evenodd" d="M22.2498 22.2482C18.6843 25.8141 13.4047 26.5845 9.08407 24.5864C8.44624 24.3296 7.92332 24.122 7.42619 24.122C6.04149 24.1302 4.31795 25.4729 3.42217 24.5782C2.5264 23.6823 3.87006 21.9574 3.87006 20.5643C3.87006 20.0672 3.67074 19.5536 3.41396 18.9145C1.41489 14.5946 2.18638 9.31318 5.75189 5.74845C10.3034 1.19521 17.6983 1.19521 22.2498 5.74728C26.8096 10.3075 26.8014 17.6961 22.2498 22.2482Z" stroke="#47AC5F" stroke-width="1.5" stroke-linecap="round" stroke-linejoin="round"/>
<path d="M18.5959 14.4819H18.6064" stroke="#47AC5F" stroke-width="2" stroke-linecap="round" stroke-linejoin="round"/>
<path d="M13.9187 14.4819H13.9292" stroke="#47AC5F" stroke-width="2" stroke-linecap="round" stroke-linejoin="round"/>
<path d="M9.24166 14.4819H9.25216" stroke="#47AC5F" stroke-width="2" stroke-linecap="round" stroke-linejoin="round"/>
</svg>
