<svg width="60" height="60" viewBox="0 0 60 60" fill="none" xmlns="http://www.w3.org/2000/svg">
<rect width="60" height="60" rx="30" fill="#206EC0"/>
<path fill-rule="evenodd" clip-rule="evenodd" d="M35.4428 18.3454C37.121 18.2405 38.776 18.8232 40.0231 19.9654C41.1652 21.2124 41.748 22.8674 41.6547 24.5573V35.4427C41.7596 37.1326 41.1652 38.7876 40.0347 40.0346C38.7877 41.1768 37.121 41.7595 35.4428 41.6546H24.5573C22.8673 41.7595 21.2124 41.1768 19.9653 40.0346C18.8232 38.7876 18.2404 37.1326 18.3453 35.4427V24.5573C18.2404 22.8674 18.8232 21.2124 19.9653 19.9654C21.2124 18.8232 22.8673 18.2405 24.5573 18.3454H35.4428ZM28.8112 35.6525L36.6548 27.7856C37.3658 27.063 37.3658 25.8976 36.6548 25.1866L35.1397 23.6716C34.4171 22.949 33.2517 22.949 32.5291 23.6716L31.7482 24.4641C31.6317 24.5806 31.6317 24.7787 31.7482 24.8953C31.7482 24.8953 33.6013 26.7367 33.6363 26.7833C33.7645 26.9232 33.8461 27.1097 33.8461 27.3194C33.8461 27.739 33.5081 28.0886 33.0769 28.0886C32.8787 28.0886 32.6922 28.0071 32.564 27.8789L30.6177 25.9442C30.5245 25.851 30.3613 25.851 30.2681 25.9442L24.7088 31.5034C24.3242 31.8881 24.1027 32.4009 24.0911 32.9486L24.0212 35.7108C24.0212 35.8623 24.0678 36.0021 24.1727 36.107C24.2776 36.2119 24.4174 36.2702 24.5689 36.2702H27.3078C27.8672 36.2702 28.4033 36.0487 28.8112 35.6525Z" fill="#F7D100"/>
</svg>
