<svg width="28" height="28" viewBox="0 0 28 28" fill="none" xmlns="http://www.w3.org/2000/svg">
<path d="M13.1017 8.50561V3.82843C13.1017 3.33111 13.4984 2.91667 14 2.91667C14.4492 2.91667 14.8297 3.26491 14.89 3.70602L14.8984 3.82843V8.50561L20.4749 8.50597C23.2516 8.50597 25.5328 10.7798 25.6609 13.6155L25.6666 13.8671V19.7463C25.6666 22.6019 23.4647 24.9459 20.7293 25.0775L20.4866 25.0833H7.51325C4.73659 25.0833 2.46636 22.8209 2.3389 19.9748L2.33325 19.7222L2.33325 13.8551C2.33325 10.9995 4.52415 8.64409 7.25891 8.51183L7.50159 8.50597H13.1016V15.9754L11.2349 14.0478C10.8849 13.6864 10.3133 13.6864 9.96325 14.0478C9.78825 14.2285 9.70659 14.4695 9.70659 14.7104C9.70659 14.8936 9.75885 15.0844 9.86936 15.2459L9.96325 15.361L13.3583 18.8789C13.5216 19.0596 13.7549 19.156 13.9999 19.156C14.1944 19.156 14.3888 19.089 14.5427 18.9621L14.6299 18.8789L18.0249 15.361C18.3749 14.9996 18.3749 14.4092 18.0249 14.0478C17.7067 13.7193 17.2054 13.6894 16.8539 13.9582L16.7533 14.0478L14.8983 15.9754V8.50597L13.1017 8.50561Z" fill="white"/>
</svg>
