<svg width="80" height="81" viewBox="0 0 80 81" fill="none" xmlns="http://www.w3.org/2000/svg">
<rect y="0.666687" width="80" height="80" rx="40" fill="#E9F8F5"/>
<path fill-rule="evenodd" clip-rule="evenodd" d="M46.5857 28.6667C48.3737 28.6667 50.0937 29.3734 51.359 30.6414C52.6257 31.9067 53.3337 33.6134 53.3337 35.4V45.9334C53.3337 49.6534 50.307 52.6667 46.5857 52.6667H33.4137C29.6923 52.6667 26.667 49.6534 26.667 45.9334V35.4C26.667 31.68 29.679 28.6667 33.4137 28.6667H46.5857ZM48.707 37.3867L48.8137 37.28C49.1323 36.8934 49.1323 36.3334 48.799 35.9467C48.6137 35.748 48.359 35.6267 48.0937 35.6C47.8137 35.5854 47.547 35.68 47.3457 35.8667L41.3337 40.6667C40.5603 41.308 39.4523 41.308 38.667 40.6667L32.667 35.8667C32.2523 35.56 31.679 35.6 31.3337 35.96C30.9737 36.32 30.9337 36.8934 31.239 37.2934L31.4137 37.4667L37.4803 42.2C38.227 42.7867 39.1323 43.1067 40.0803 43.1067C41.0257 43.1067 41.947 42.7867 42.6923 42.2L48.707 37.3867Z" fill="url(#paint0_linear_51_4543)"/>
<defs>
<linearGradient id="paint0_linear_51_4543" x1="53.3337" y1="52.6667" x2="22.1696" y2="42.627" gradientUnits="userSpaceOnUse">
<stop stop-color="#22BB9C"/>
<stop offset="1" stop-color="#35DEBC"/>
</linearGradient>
</defs>
</svg>
