<svg width="80" height="81" viewBox="0 0 80 81" fill="none" xmlns="http://www.w3.org/2000/svg">
<rect y="0.666687" width="80" height="80" rx="40" fill="#E9F8F5"/>
<path fill-rule="evenodd" clip-rule="evenodd" d="M26.667 40.6867C26.667 33.6629 32.2803 27.3334 40.027 27.3334C47.6003 27.3334 53.3337 33.5427 53.3337 40.6467C53.3337 48.8857 46.6137 54 40.0003 54C37.8137 54 35.387 53.4125 33.4403 52.2641C32.7603 51.8502 32.187 51.543 31.4537 51.7834L28.7603 52.5846C28.0803 52.7982 27.467 52.2641 27.667 51.543L28.5603 48.5519C28.707 48.1379 28.6803 47.6973 28.467 47.3501C27.3203 45.2402 26.667 42.9301 26.667 40.6867ZM38.267 40.6867C38.267 41.6348 39.027 42.396 39.9737 42.4093C40.9203 42.4093 41.6803 41.6348 41.6803 40.7001C41.6803 39.752 40.9203 38.9909 39.9737 38.9909C39.0403 38.9775 38.267 39.752 38.267 40.6867ZM44.4137 40.7001C44.4137 41.6348 45.1737 42.4093 46.1203 42.4093C47.067 42.4093 47.827 41.6348 47.827 40.7001C47.827 39.752 47.067 38.9909 46.1203 38.9909C45.1737 38.9909 44.4137 39.752 44.4137 40.7001ZM33.827 42.4093C32.8937 42.4093 32.1203 41.6348 32.1203 40.7001C32.1203 39.752 32.8803 38.9909 33.827 38.9909C34.7737 38.9909 35.5337 39.752 35.5337 40.7001C35.5337 41.6348 34.7737 42.396 33.827 42.4093Z" fill="url(#paint0_linear_51_4537)"/>
<defs>
<linearGradient id="paint0_linear_51_4537" x1="53.3337" y1="54" x2="21.6027" y2="44.7999" gradientUnits="userSpaceOnUse">
<stop stop-color="#22BB9C"/>
<stop offset="1" stop-color="#35DEBC"/>
</linearGradient>
</defs>
</svg>
