<svg width="276" height="251" viewBox="0 0 276 251" fill="none" xmlns="http://www.w3.org/2000/svg">
<g clip-path="url(#clip0_51_4477)">
<path d="M190.672 249.704H112.44C100.706 249.704 91.1602 240.157 91.1602 228.423V21.6135C91.1602 9.87966 100.706 0.333374 112.44 0.333374H190.672C202.406 0.333374 211.952 9.87966 211.952 21.6135C213.409 104.662 215.892 197.663 211.952 228.423C211.952 240.157 202.406 249.704 190.672 249.704L190.672 249.704Z" fill="#3F3D56"/>
<path d="M213.043 76.4048C212.546 76.4048 212.143 76.8085 212.143 77.305V106.113C212.143 106.61 212.546 107.013 213.043 107.013C213.539 107.013 213.943 106.61 213.943 106.113V77.305C213.943 76.8085 213.539 76.4048 213.043 76.4048Z" fill="#3F3D56"/>
<path d="M209.927 21.6137V228.42C209.927 238.633 201.977 246.988 191.926 247.636H191.922C191.773 247.645 191.624 247.654 191.471 247.658C191.206 247.672 190.94 247.676 190.67 247.676C190.67 247.676 189.68 247.604 187.87 247.469C186.043 247.334 183.383 247.132 180.065 246.866C179.07 246.79 178.022 246.704 176.914 246.614C174.709 246.434 172.287 246.236 169.69 246.011C168.655 245.925 167.583 245.831 166.489 245.736C160.899 245.255 154.638 244.692 148.034 244.053C146.918 243.949 145.793 243.841 144.658 243.729C144.361 243.697 93.1855 230.833 93.1855 228.42V21.6137C93.1855 10.9772 101.805 2.3573 112.442 2.3573H123.938C125.775 2.3573 127.251 3.7887 127.409 5.62072C127.422 5.74226 127.436 5.86378 127.458 5.98532C127.791 7.82635 129.479 9.1092 131.352 9.1092H171.76C173.633 9.1092 175.321 7.82635 175.654 5.98532C175.676 5.86378 175.69 5.74227 175.704 5.62072C175.861 3.7887 177.337 2.3573 179.174 2.3573H190.67C201.307 2.3573 209.927 10.9772 209.927 21.6137H209.927Z" fill="white"/>
<path d="M90.7098 54.7988C90.2133 54.7988 89.8096 55.2026 89.8096 55.6991V62.9011C89.8096 63.3976 90.2133 63.8014 90.7098 63.8014C91.2063 63.8014 91.6101 63.3976 91.6101 62.9011V55.6991C91.6101 55.2026 91.2063 54.7988 90.7098 54.7988Z" fill="#3F3D56"/>
<path d="M90.7098 76.4048C90.2133 76.4048 89.8096 76.8085 89.8096 77.305V91.259C89.8096 91.7555 90.2133 92.1592 90.7098 92.1592C91.2063 92.1592 91.6101 91.7555 91.6101 91.259V77.305C91.6101 76.8085 91.2063 76.4048 90.7098 76.4048V76.4048Z" fill="#3F3D56"/>
<path d="M90.7098 96.2104C90.2133 96.2104 89.8096 96.6142 89.8096 97.1107V111.065C89.8096 111.561 90.2133 111.965 90.7098 111.965C91.2063 111.965 91.6101 111.561 91.6101 111.065V97.1107C91.6101 96.6142 91.2063 96.2104 90.7098 96.2104Z" fill="#3F3D56"/>
<path d="M123.643 5.50989H106.391C106.307 5.50989 106.239 5.57766 106.239 5.66127V7.60914C106.239 7.69274 106.307 7.76052 106.391 7.76052H123.643C123.726 7.76052 123.794 7.69274 123.794 7.60914V5.66127C123.794 5.57766 123.726 5.50989 123.643 5.50989Z" fill="#E6E6E6"/>
<path d="M182.019 7.76056C183.014 7.76056 183.82 6.95444 183.82 5.96005C183.82 4.96566 183.014 4.15955 182.019 4.15955C181.025 4.15955 180.219 4.96566 180.219 5.96005C180.219 6.95444 181.025 7.76056 182.019 7.76056Z" fill="#E6E6E6"/>
<path d="M186.97 7.76056C187.965 7.76056 188.771 6.95444 188.771 5.96005C188.771 4.96566 187.965 4.15955 186.97 4.15955C185.976 4.15955 185.17 4.96566 185.17 5.96005C185.17 6.95444 185.976 7.76056 186.97 7.76056Z" fill="#E6E6E6"/>
<path d="M191.922 7.76056C192.916 7.76056 193.722 6.95444 193.722 5.96005C193.722 4.96566 192.916 4.15955 191.922 4.15955C190.927 4.15955 190.121 4.96566 190.121 5.96005C190.121 6.95444 190.927 7.76056 191.922 7.76056Z" fill="#E6E6E6"/>
<path d="M7.12988 249.753C7.12988 250.075 7.38854 250.333 7.71063 250.333H275.276C275.598 250.333 275.856 250.075 275.856 249.753C275.856 249.431 275.598 249.172 275.276 249.172H7.71063C7.38854 249.172 7.12988 249.431 7.12988 249.753Z" fill="#CCCCCC"/>
<path d="M92.4418 245.939L86.9549 245.938L84.3447 224.774L92.4429 224.774L92.4418 245.939Z" fill="#FFB6B6"/>
<path d="M73.6428 245.814C73.472 246.102 73.3818 247.03 73.3818 247.365C73.3818 248.394 74.2156 249.227 75.2441 249.227H92.2365C92.9382 249.227 93.507 248.659 93.507 247.957V247.249C93.507 247.249 94.3476 245.123 92.6169 242.502C92.6169 242.502 90.466 244.555 87.2519 241.34L86.3041 239.623L79.4433 244.641L75.6405 245.109C74.8085 245.212 74.0708 245.093 73.6429 245.814H73.6428V245.814H73.6428Z" fill="#2F2E41"/>
<path d="M62.0973 216.542L56.6104 216.524L54.0674 195.352L62.1656 195.378L62.0973 216.542Z" fill="#FFB6B6"/>
<path d="M43.2991 216.358C43.1274 216.645 43.0343 217.574 43.0332 217.908C43.0299 218.937 43.861 219.773 44.8896 219.777L61.8819 219.831C62.5835 219.833 63.1541 219.266 63.1564 218.564L63.1586 217.857C63.1586 217.857 64.006 215.733 62.2837 213.107C62.2837 213.107 60.1262 215.152 56.9223 211.928L55.98 210.208L49.1033 215.204L45.299 215.66C44.4667 215.759 43.7294 215.639 43.2992 216.358H43.2991V216.358Z" fill="#2F2E41"/>
<path d="M84.4386 117.453L77.6066 117.941C77.6066 117.941 54.4776 131.091 52.5256 134.019C50.5736 136.947 47.8896 141.095 50.3296 145.487C52.7696 149.879 50.9126 203.058 50.9126 203.058L62.5722 200.42L70.0426 144.781L85.6586 142.585C85.6586 142.585 91.0266 154.166 89.0746 163.748C87.1226 173.329 86.1466 179.185 86.1466 179.185L83.7066 235.793L93.2226 235.549L101.763 183.089L116.402 141.609L97.3705 119.161L84.4386 117.453Z" fill="#2F2E41"/>
<path d="M52.9361 112.746C50.1578 114.262 48.6877 116.925 49.6527 118.693C50.6176 120.461 53.6521 120.665 56.4305 119.148C57.6467 118.485 58.6121 117.601 59.2324 116.669L70.9245 110.097L67.7232 104.676L56.5369 111.73C55.4176 111.748 54.1523 112.082 52.9361 112.746H52.9361Z" fill="#FFB6B6"/>
<path d="M118.11 57.4292L103.958 58.8932L102.494 63.7732L88.8303 71.0932L93.2223 101.837L89.8063 107.205L91.2703 112.573C91.2703 112.573 87.3663 113.061 87.8543 115.989L79.0703 117.453C79.0703 117.453 90.7208 119.832 93.1915 131.574C95.6623 143.317 116.158 144.781 116.158 144.781L132.262 94.5171L133.726 64.7492L122.502 61.8212L118.11 57.4292Z" fill="#E6E6E6"/>
<path d="M92.3658 71.321C92.3658 71.321 87.7825 69.5759 86.2033 71.6765C84.6242 73.777 74.1923 99.2655 74.1923 99.2655L58.8867 107.259L63.1908 114.754L82.8997 108.192L95.9033 84.4104L92.3658 71.321Z" fill="#E6E6E6"/>
<path d="M236.897 155.028V206.756C236.897 211.33 233.175 215.052 228.601 215.052H100.745C96.1707 215.052 92.4492 211.33 92.4492 206.756V155.028C92.4492 150.454 96.1707 146.732 100.745 146.732H228.601C233.175 146.732 236.897 150.454 236.897 155.028Z" fill="white"/>
<path d="M236.897 155.028V206.756C236.897 211.33 233.175 215.052 228.601 215.052H100.745C96.1707 215.052 92.4492 211.33 92.4492 206.756V155.028C92.4492 150.454 96.1707 146.732 100.745 146.732H228.601C233.175 146.732 236.897 150.454 236.897 155.028ZM228.601 214.076C232.644 214.076 235.921 210.799 235.921 206.756V180.677C235.921 162.469 221.16 147.708 202.952 147.708H100.745C96.7025 147.708 93.4252 150.985 93.4252 155.028V206.756C93.4252 210.799 96.7025 214.076 100.745 214.076H228.601Z" fill="#3F3D56"/>
<path d="M149.843 177.984H133.143C132.722 177.984 132.38 178.327 132.38 178.748C132.38 179.169 132.722 179.511 133.143 179.511H149.843C150.264 179.511 150.607 179.169 150.607 178.748C150.607 178.327 150.264 177.984 149.843 177.984Z" fill="#47AC5F"/>
<path d="M175.219 177.984H158.519C158.098 177.984 157.756 178.327 157.756 178.748C157.756 179.169 158.098 179.511 158.519 179.511H175.219C175.64 179.511 175.982 179.169 175.982 178.748C175.982 178.327 175.64 177.984 175.219 177.984Z" fill="#47AC5F"/>
<path d="M149.843 186.332H133.143C132.722 186.332 132.38 186.674 132.38 187.095C132.38 187.516 132.722 187.859 133.143 187.859H149.843C150.264 187.859 150.607 187.516 150.607 187.095C150.607 186.674 150.264 186.332 149.843 186.332Z" fill="#47AC5F"/>
<path d="M175.219 186.332H158.519C158.098 186.332 157.756 186.674 157.756 187.095C157.756 187.516 158.098 187.859 158.519 187.859H175.219C175.64 187.859 175.982 187.516 175.982 187.095C175.982 186.674 175.64 186.332 175.219 186.332Z" fill="#47AC5F"/>
<path d="M201.358 187.095C201.358 186.674 201.016 186.332 200.595 186.332H183.895C183.474 186.332 183.132 186.674 183.132 187.095C183.132 187.516 183.474 187.859 183.895 187.859H200.595C201.016 187.859 201.358 187.516 201.358 187.095Z" fill="#47AC5F"/>
<path d="M140.083 171.319C140.504 171.319 140.847 170.976 140.847 170.555C140.847 170.134 140.504 169.792 140.083 169.792H123.384C122.963 169.792 122.62 170.134 122.62 170.555C122.62 170.976 122.963 171.319 123.384 171.319H140.083Z" fill="#47AC5F"/>
<path d="M189.264 171.008H205.963C206.384 171.008 206.727 170.666 206.727 170.245C206.727 169.824 206.384 169.481 205.963 169.481H189.264C188.843 169.481 188.5 169.824 188.5 170.245C188.5 170.666 188.843 171.008 189.264 171.008Z" fill="#47AC5F"/>
<path d="M147.118 171.169H181.74C182.161 171.169 182.503 170.826 182.503 170.405C182.503 169.984 182.161 169.642 181.74 169.642H147.118C146.697 169.642 146.354 169.984 146.354 170.405C146.354 170.826 146.697 171.169 147.118 171.169Z" fill="#47AC5F"/>
<path d="M160.741 193.916H144.041C143.62 193.916 143.277 194.259 143.277 194.68C143.277 195.101 143.62 195.443 144.041 195.443H160.741C161.162 195.443 161.504 195.101 161.504 194.68C161.504 194.259 161.162 193.916 160.741 193.916Z" fill="#47AC5F"/>
<path d="M214.674 154.638V206.366C214.674 210.94 210.953 214.662 206.378 214.662H154.65C150.076 214.662 146.354 210.94 146.354 206.366V154.638C146.354 150.064 150.076 146.342 154.65 146.342H206.378C210.953 146.342 214.674 150.064 214.674 154.638Z" fill="white"/>
<path d="M214.674 154.638V206.366C214.674 210.94 210.953 214.662 206.378 214.662H154.65C150.076 214.662 146.354 210.94 146.354 206.366V154.638C146.354 150.064 150.076 146.342 154.65 146.342H206.378C210.953 146.342 214.674 150.064 214.674 154.638ZM203.169 213.686C208.984 213.686 213.698 208.972 213.698 203.157V180.287C213.698 162.079 198.938 147.318 180.73 147.318H154.65C150.608 147.318 147.331 150.595 147.331 154.638V199.149C147.331 207.177 153.839 213.686 161.868 213.686H203.169V213.686H203.169Z" fill="#3F3D56"/>
<path d="M187.401 167.469H170.701C170.28 167.469 169.938 167.126 169.938 166.705C169.938 166.284 170.28 165.942 170.701 165.942H187.401C187.822 165.942 188.164 166.284 188.164 166.705C188.164 167.126 187.822 167.469 187.401 167.469V167.469Z" fill="#47AC5F"/>
<path d="M187.401 183.75H170.701C170.28 183.75 169.938 183.407 169.938 182.986C169.938 182.565 170.28 182.223 170.701 182.223H187.401C187.822 182.223 188.164 182.565 188.164 182.986C188.164 183.407 187.822 183.75 187.401 183.75V183.75Z" fill="#47AC5F"/>
<path d="M179.105 206.198H162.405C161.984 206.198 161.642 205.855 161.642 205.434C161.642 205.013 161.984 204.671 162.405 204.671H179.105C179.526 204.671 179.868 205.013 179.868 205.434C179.868 205.855 179.526 206.198 179.105 206.198V206.198Z" fill="#47AC5F"/>
<path d="M196.361 175.615H161.739C161.318 175.615 160.976 175.272 160.976 174.851C160.976 174.43 161.318 174.088 161.739 174.088H196.361C196.782 174.088 197.125 174.43 197.125 174.851C197.125 175.272 196.782 175.615 196.361 175.615V175.615Z" fill="#47AC5F"/>
<path d="M204.941 125.974C204.941 109.838 191.303 100.961 175.723 96.7562C155.749 91.3658 141.12 102.274 146.505 125.974C147.726 131.346 150.645 137.62 154.258 142.986H182.93C192.507 136.751 204.941 138.499 204.941 125.974H204.941Z" fill="#47AC5F"/>
<path d="M175.295 156.479C176.926 153.37 178.993 151.127 181.272 149.419H154.417C161.329 159.292 170.495 165.629 175.295 156.479Z" fill="#47AC5F"/>
<path d="M172.196 108.699C173.92 108.699 175.317 110.097 175.317 111.821V118.064H169.074V111.821C169.074 110.097 170.472 108.699 172.196 108.699ZM176.878 118.064V111.821C176.878 109.235 174.782 107.139 172.196 107.139C169.61 107.139 167.513 109.235 167.513 111.821V118.064C165.789 118.064 164.392 119.462 164.392 121.186V128.99C164.392 130.714 165.789 132.112 167.513 132.112H176.878C178.602 132.112 180 130.714 180 128.99V121.186C180 119.462 178.602 118.064 176.878 118.064H176.878ZM167.513 119.625H176.878C177.74 119.625 178.439 120.324 178.439 121.186V128.99C178.439 129.852 177.74 130.551 176.878 130.551H167.513C166.651 130.551 165.952 129.852 165.952 128.99V121.186C165.952 120.324 166.651 119.625 167.513 119.625Z" fill="white"/>
<path d="M127.586 145.046C127.209 148.189 128.525 150.931 130.525 151.17C132.525 151.41 134.452 149.056 134.828 145.914C134.993 144.538 134.833 143.239 134.434 142.193L135.862 128.857L129.589 128.32L128.847 141.524C128.212 142.446 127.75 143.671 127.586 145.046Z" fill="#FFB6B6"/>
<path d="M28.6925 159.099C44.4591 159.099 57.2404 146.317 57.2404 130.551C57.2404 114.784 44.4591 102.003 28.6925 102.003C12.9259 102.003 0.144531 114.784 0.144531 130.551C0.144531 146.317 12.9259 159.099 28.6925 159.099Z" fill="#47AC5F"/>
<path d="M28.6922 117.771C30.7088 117.771 32.3437 119.406 32.3437 121.422V128.725H25.0407V121.422C25.0407 119.406 26.6755 117.771 28.6922 117.771ZM34.1694 128.725V121.422C34.1694 118.397 31.7172 115.945 28.6922 115.945C25.6672 115.945 23.215 118.397 23.215 121.422V128.725C21.1983 128.725 19.5635 130.36 19.5635 132.377V141.505C19.5635 143.522 21.1983 145.157 23.215 145.157H34.1694C36.1861 145.157 37.8209 143.522 37.8209 141.505V132.377C37.8209 130.36 36.1861 128.725 34.1694 128.725H34.1694ZM23.215 130.551H34.1694C35.1777 130.551 35.9951 131.368 35.9951 132.377V141.505C35.9951 142.514 35.1777 143.331 34.1694 143.331H23.215C22.2066 143.331 21.3892 142.514 21.3892 141.505V132.377C21.3892 131.368 22.2066 130.551 23.215 130.551Z" fill="white"/>
<path d="M129.09 65.4813C129.09 65.4813 135.922 63.5293 137.386 66.4573C138.85 69.3853 142.266 107.937 142.266 107.937L135.678 138.71L128.114 136.729L132.018 105.497L126.65 82.0732L129.09 65.4813Z" fill="#E6E6E6"/>
<path d="M110.653 55.5775C116.729 55.5775 121.654 50.652 121.654 44.576C121.654 38.5001 116.729 33.5746 110.653 33.5746C104.577 33.5746 99.6514 38.5001 99.6514 44.576C99.6514 50.652 104.577 55.5775 110.653 55.5775Z" fill="#FFB6B6"/>
<path d="M104.935 54.5013C104.935 54.5013 95.1749 54.0133 96.1509 46.2053C93.7352 37.8906 95.8734 32.492 103.471 30.5893C103.471 30.5893 105.423 30.1013 105.911 30.1013C112.329 30.1013 115.671 32.0533 115.671 32.0533C115.671 32.0533 115.183 30.1205 115.671 30.5989C116.159 31.0773 116.647 32.0533 116.647 32.0533C116.647 32.0533 121.527 34.4933 121.527 39.3733C121.527 44.2533 121.527 42.3013 121.527 42.3013C121.527 42.3013 120.551 42.3013 119.575 39.3733C118.599 36.4453 112.28 38.3973 112.28 38.3973L112.743 39.3733L111.279 38.8853L109.815 40.3493L108.839 39.8613C108.839 39.8613 104.935 39.8613 105.423 39.8613C105.911 39.8613 105.571 43.1777 105.571 43.1777L102.007 47.1813L105.911 54.5013H104.935Z" fill="#2F2E41"/>
</g>
<defs>
<clipPath id="clip0_51_4477">
<rect width="275.712" height="250" fill="white" transform="translate(0.144531 0.333374)"/>
</clipPath>
</defs>
</svg>
