<svg width="24" height="25" viewBox="0 0 24 25" fill="none" xmlns="http://www.w3.org/2000/svg">
<g clip-path="url(#clip0_24_3811)">
<path d="M23.5078 12.7245C23.5078 11.7413 23.4295 11.0238 23.2598 10.2797H12.2295V14.7176H18.7041C18.5736 15.8205 17.8687 17.4815 16.3022 18.5976L16.2802 18.7462L19.7678 21.4964L20.0095 21.5209C22.2285 19.4347 23.5078 16.3653 23.5078 12.7245Z" fill="#4285F4"/>
<path d="M12.2294 24.4176C15.4014 24.4176 18.0643 23.3545 20.0094 21.5209L16.3021 18.5976C15.3101 19.3018 13.9786 19.7934 12.2294 19.7934C9.12268 19.7934 6.48586 17.7074 5.5459 14.824L5.40813 14.8359L1.78168 17.6927L1.73425 17.8269C3.66618 21.7334 7.6345 24.4176 12.2294 24.4176Z" fill="#34A853"/>
<path d="M5.54609 14.8239C5.29808 14.0798 5.15454 13.2825 5.15454 12.4587C5.15454 11.6349 5.29808 10.8376 5.53304 10.0935L5.52647 9.93507L1.85458 7.03235L1.73444 7.09052C0.938206 8.71162 0.481323 10.532 0.481323 12.4587C0.481323 14.3854 0.938206 16.2058 1.73444 17.8269L5.54609 14.8239Z" fill="#FBBC05"/>
<path d="M12.2294 5.12403C14.4355 5.12403 15.9235 6.09401 16.7721 6.90461L20.0877 3.60928C18.0514 1.6826 15.4014 0.5 12.2294 0.5C7.63449 0.5 3.66617 3.18406 1.73425 7.09056L5.53285 10.0936C6.48585 7.2102 9.12267 5.12403 12.2294 5.12403Z" fill="#EB4335"/>
</g>
<defs>
<clipPath id="clip0_24_3811">
<rect width="23.04" height="24" fill="white" transform="translate(0.47998 0.5)"/>
</clipPath>
</defs>
</svg>
