<svg width="365" height="230" viewBox="0 0 365 230" fill="none" xmlns="http://www.w3.org/2000/svg">
<path d="M324.741 219.278C325.215 222.993 326.959 226.393 328.819 229.667C328.88 229.779 328.944 229.888 329.008 230H348.342C348.733 229.898 349.119 229.787 349.503 229.667C351.687 229.002 353.749 227.988 355.608 226.664C362.721 221.539 365.458 211.856 364.222 203.179C363.453 197.788 361.087 192.284 356.48 189.381C353.978 187.857 350.993 187.334 348.122 187.917C348.049 187.93 347.976 187.947 347.901 187.962C346.706 188.193 345.574 188.674 344.578 189.374C343.582 190.074 342.746 190.977 342.124 192.023C339.928 195.925 341.236 200.758 342.316 205.101C343.392 209.443 343.976 214.641 340.852 217.844C341.31 216.504 341.403 215.067 341.121 213.68C340.84 212.293 340.194 211.005 339.25 209.95C338.306 208.895 337.098 208.111 335.751 207.677C334.403 207.244 332.964 207.177 331.582 207.483C331.356 207.532 331.133 207.586 330.914 207.653C330.383 207.808 329.871 208.023 329.388 208.292C325.702 210.35 324.21 215.09 324.741 219.278Z" fill="#F2F2F2"/>
<path d="M336.204 229.667C335.668 229.792 335.131 229.902 334.59 230H337.514C337.896 229.897 338.277 229.787 338.655 229.667C339.485 229.408 340.303 229.11 341.108 228.774C344.372 227.449 347.27 225.359 349.558 222.681C350.658 221.37 351.557 219.902 352.224 218.326C352.947 216.545 353.406 214.668 353.588 212.754C353.92 208.798 353.655 204.814 352.803 200.936C352.001 196.939 350.706 193.056 348.949 189.378C348.738 188.937 348.519 188.499 348.294 188.063C348.278 188.027 348.254 187.996 348.225 187.97C348.195 187.945 348.16 187.927 348.122 187.917C348.045 187.902 347.966 187.918 347.901 187.962C347.823 188.006 347.765 188.079 347.74 188.165C347.714 188.251 347.722 188.344 347.763 188.424C349.575 191.958 350.948 195.699 351.853 199.565C352.784 203.357 353.193 207.259 353.069 211.162C353.002 214.792 351.869 218.322 349.811 221.313C347.809 224.007 345.177 226.167 342.144 227.604C340.247 228.511 338.255 229.204 336.204 229.667Z" fill="white"/>
<path d="M329.788 230H330.65C330.746 229.89 330.84 229.779 330.931 229.667C332.894 227.282 334.224 224.44 334.798 221.405C335.495 217.616 334.953 213.705 333.252 210.249C332.778 209.28 332.219 208.354 331.582 207.483C331.355 207.532 331.132 207.587 330.913 207.653C332.589 209.873 333.716 212.458 334.202 215.197C334.636 217.763 334.492 220.394 333.78 222.897C333.068 225.401 331.806 227.714 330.086 229.667C329.989 229.779 329.89 229.89 329.788 230Z" fill="white"/>
<path d="M3.554 219.278C4.0282 222.993 5.77188 226.393 7.63206 229.667C7.69356 229.779 7.75685 229.888 7.82168 230H27.1554C27.5464 229.898 27.9324 229.787 28.3167 229.667C30.5004 229.002 32.5619 227.988 34.4213 226.664C41.5341 221.539 44.2711 211.856 43.0349 203.179C42.2662 197.788 39.9003 192.284 35.2931 189.381C32.7914 187.857 29.8065 187.334 26.9357 187.917C26.8624 187.93 26.7893 187.947 26.7145 187.962C25.5195 188.193 24.3869 188.674 23.3913 189.374C22.3956 190.074 21.5594 190.977 20.9376 192.023C18.7414 195.925 20.0492 200.758 21.1289 205.101C22.2055 209.443 22.7895 214.641 19.6648 217.844C20.1228 216.504 20.2158 215.067 19.9343 213.68C19.6527 212.293 19.0069 211.005 18.063 209.95C17.1192 208.895 15.9114 208.111 14.5638 207.677C13.2163 207.244 11.7776 207.177 10.3957 207.483C10.1694 207.532 9.94638 207.586 9.72676 207.653C9.19596 207.808 8.68422 208.023 8.20104 208.292C4.51573 210.35 3.02324 215.09 3.554 219.278Z" fill="#F2F2F2"/>
<path d="M15.0174 229.667C14.4817 229.792 13.9443 229.902 13.4036 230H16.3269C16.7096 229.897 17.0906 229.787 17.4682 229.667C18.2985 229.408 19.116 229.11 19.9207 228.774C23.1848 227.449 26.0828 225.359 28.3713 222.681C29.4715 221.37 30.3699 219.902 31.0368 218.326C31.76 216.545 32.2196 214.668 32.4011 212.754C32.7328 208.798 32.4681 204.814 31.6157 200.936C30.8139 196.939 29.5196 193.056 27.7623 189.378C27.551 188.937 27.3325 188.499 27.1068 188.063C27.0912 188.027 27.0677 187.996 27.038 187.97C27.0083 187.945 26.9733 187.927 26.9355 187.917C26.8587 187.902 26.7791 187.918 26.7142 187.962C26.6362 188.006 26.5784 188.079 26.5527 188.165C26.527 188.251 26.5354 188.344 26.576 188.424C28.3878 191.958 29.7613 195.699 30.6658 199.565C31.5973 203.357 32.0065 207.259 31.882 211.162C31.8155 214.792 30.6825 218.322 28.6242 221.313C26.6226 224.007 23.9898 226.167 20.9573 227.604C19.0606 228.511 17.0683 229.204 15.0174 229.667Z" fill="white"/>
<path d="M8.60132 230H9.4632C9.55971 229.89 9.65289 229.779 9.74436 229.667C11.7075 227.282 13.0374 224.44 13.6111 221.405C14.3079 217.616 13.7658 213.705 12.0654 210.249C11.591 209.28 11.032 208.354 10.395 207.483C10.1687 207.532 9.94567 207.587 9.72605 207.653C11.4018 209.873 12.5289 212.458 13.0155 215.197C13.4495 217.763 13.3052 220.394 12.593 222.897C11.8809 225.401 10.6189 227.714 8.8991 229.667C8.8027 229.779 8.70287 229.89 8.60132 230Z" fill="white"/>
<path d="M274.514 140.479C260.844 140.479 249.705 150.415 249.165 162.859H299.863C299.322 150.415 288.183 140.479 274.514 140.479Z" fill="#3F3D56"/>
<path d="M150.477 133.972H89.9673L89.3258 115.367C89.2981 114.561 89.4454 113.758 89.7577 113.014C90.07 112.27 90.5398 111.602 91.1348 111.057C91.7298 110.512 92.4358 110.102 93.2043 109.856C93.9729 109.61 94.7856 109.533 95.5866 109.631L130.799 113.943H130.803C136.024 113.957 141.026 116.04 144.713 119.735C148.401 123.43 150.473 128.436 150.477 133.657V133.972Z" fill="#47AC5F"/>
<path d="M233.693 92.8809L212.889 102.337L215.621 112.62C220.895 132.477 222.295 153.165 219.743 173.551L234.954 176.728L247.563 144.576L243.15 108.011L233.693 92.8809Z" fill="#47AC5F"/>
<path d="M123.508 67.9788H81.3056C80.7444 67.9786 80.1886 68.0891 79.67 68.3038C79.1514 68.5185 78.6803 68.8333 78.2834 69.2302C77.8865 69.627 77.5717 70.0982 77.357 70.6168C77.1423 71.1354 77.0318 71.6912 77.032 72.2524V114.455C77.0318 115.016 77.1423 115.572 77.357 116.09C77.5717 116.609 77.8865 117.08 78.2834 117.477C78.6803 117.874 79.1514 118.189 79.67 118.404C80.1886 118.618 80.7444 118.729 81.3056 118.729H123.508C124.069 118.729 124.625 118.618 125.144 118.404C125.662 118.189 126.133 117.874 126.53 117.477C126.927 117.08 127.242 116.609 127.457 116.091C127.671 115.572 127.782 115.016 127.782 114.455V72.2524C127.782 71.6912 127.671 71.1354 127.457 70.6168C127.242 70.0982 126.927 69.627 126.53 69.2301C126.133 68.8333 125.662 68.5185 125.144 68.3038C124.625 68.0891 124.069 67.9786 123.508 67.9788Z" fill="#CCCCCC"/>
<path d="M114.003 99.5362L94.0777 103.416C92.8958 103.645 91.6714 103.396 90.6731 102.723C89.6748 102.05 88.9842 101.009 88.7527 99.8273L87.2211 91.9619C86.9923 90.78 87.2416 89.5556 87.9145 88.5573C88.5873 87.559 89.6287 86.8684 90.8102 86.6369L110.736 82.7567C111.918 82.5279 113.142 82.7773 114.14 83.4502C115.139 84.123 115.829 85.1644 116.061 86.3458L117.592 94.2112C117.821 95.3931 117.572 96.6175 116.899 97.6158C116.226 98.6141 115.185 99.3047 114.003 99.5362Z" fill="#3F3D56"/>
<path d="M110.016 90.2441L94.81 93.2053C94.5319 93.2595 94.2436 93.201 94.0086 93.0426C93.7737 92.8842 93.6112 92.639 93.5571 92.3609C93.5029 92.0827 93.5614 91.7944 93.7198 91.5595C93.8782 91.3245 94.1234 91.1621 94.4016 91.1079L109.608 88.1467C109.886 88.0925 110.174 88.151 110.409 88.3094C110.644 88.4678 110.807 88.713 110.861 88.9912C110.915 89.2693 110.857 89.5576 110.698 89.7925C110.54 90.0275 110.295 90.1899 110.016 90.2441Z" fill="white"/>
<path d="M107.061 94.6296L99.1955 96.1613C98.9174 96.2154 98.6291 96.1569 98.3941 95.9985C98.1591 95.8401 97.9967 95.5949 97.9426 95.3168C97.8884 95.0386 97.9469 94.7504 98.1053 94.5154C98.2637 94.2804 98.5089 94.118 98.7871 94.0638L106.652 92.5322C106.79 92.5053 106.932 92.5059 107.069 92.5338C107.207 92.5618 107.337 92.6165 107.454 92.6949C107.57 92.7733 107.67 92.8739 107.747 92.9909C107.825 93.1078 107.879 93.2389 107.905 93.3766C107.932 93.5144 107.932 93.656 107.904 93.7935C107.876 93.931 107.821 94.0617 107.743 94.178C107.664 94.2944 107.564 94.3941 107.447 94.4716C107.33 94.5491 107.199 94.6028 107.061 94.6296Z" fill="white"/>
<path d="M263.874 142.623C263.162 86.4524 231.172 91.6199 231.172 91.6199C231.172 91.6199 231.77 109.104 232.058 109.648C252.443 148.217 218.8 193.434 175.975 185.116C175.167 184.959 174.392 184.8 173.648 184.639C168.221 183.506 163.43 180.348 160.249 175.809C157.068 171.269 155.736 165.688 156.523 160.201C160.742 126.325 139.759 126.924 139.759 126.924H109.078L93.1454 112.584C92.583 112.078 91.9051 111.718 91.1711 111.534C90.4371 111.35 89.6693 111.349 88.9348 111.531C88.2002 111.713 87.5214 112.071 86.9577 112.576C86.3939 113.081 85.9624 113.716 85.7008 114.426L83.651 119.989C83.651 119.989 53.3903 123.142 55.912 152.772H65.2675C65.2449 153.614 65.2786 154.456 65.3685 155.294L135.189 154.726C139.282 154.693 142.895 158.009 142.912 162.102C142.916 163.098 142.719 164.085 142.333 165.004C141.947 165.922 141.379 166.754 140.665 167.448C139.95 168.142 139.102 168.685 138.173 169.044C137.243 169.403 136.251 169.571 135.255 169.538L123.999 169.163C120.531 184.609 129.042 195.011 138.42 201.551C147.249 207.62 157.726 210.838 168.439 210.772H199.02C238.737 210.772 245.672 177.359 245.672 177.359C266.476 168.533 263.874 142.623 263.874 142.623Z" fill="#3F3D56"/>
<path d="M272.623 229.054C292.208 229.054 308.085 213.177 308.085 193.592C308.085 174.007 292.208 158.131 272.623 158.131C253.038 158.131 237.162 174.007 237.162 193.592C237.162 213.177 253.038 229.054 272.623 229.054Z" fill="#3F3D56"/>
<path d="M272.623 202.284C277.423 202.284 281.315 198.393 281.315 193.592C281.315 188.792 277.423 184.901 272.623 184.901C267.823 184.901 263.932 188.792 263.932 193.592C263.932 198.393 267.823 202.284 272.623 202.284Z" fill="white"/>
<path d="M93.58 229.054C116.125 229.054 134.4 210.778 134.4 188.234C134.4 165.689 116.125 147.413 93.58 147.413C71.0355 147.413 52.7595 165.689 52.7595 188.234C52.7595 210.778 71.0355 229.054 93.58 229.054Z" fill="#3F3D56"/>
<path d="M363.4 229.425C363.399 229.577 363.353 229.723 363.271 229.831C363.189 229.939 363.078 229.999 362.961 230H0.438359C0.322099 230 0.2106 229.939 0.128392 229.831C0.0461838 229.724 0 229.577 0 229.425C0 229.272 0.0461838 229.126 0.128392 229.018C0.2106 228.91 0.322099 228.85 0.438359 228.85H362.961C363.078 228.85 363.189 228.911 363.271 229.019C363.353 229.127 363.399 229.272 363.4 229.425Z" fill="#3F3D56"/>
<path d="M93.58 198.239C99.1056 198.239 103.585 193.759 103.585 188.234C103.585 182.708 99.1056 178.229 93.58 178.229C88.0543 178.229 83.575 182.708 83.575 188.234C83.575 193.759 88.0543 198.239 93.58 198.239Z" fill="white"/>
<path d="M177.939 184.089H185.668L189.345 164.043L177.938 164.044L177.939 184.089Z" fill="#FFB8B8"/>
<path d="M175.968 181.566L191.189 181.565H191.189C192.463 181.565 193.725 181.816 194.902 182.304C196.078 182.791 197.148 183.506 198.048 184.406C198.949 185.307 199.664 186.376 200.151 187.553C200.639 188.73 200.89 189.992 200.89 191.265V191.581L175.968 191.582L175.968 181.566Z" fill="#2F2E41"/>
<path d="M61.2711 156.87C66.1456 156.87 70.0972 152.071 70.0972 146.152C70.0972 140.233 66.1456 135.435 61.2711 135.435C56.3966 135.435 52.4451 140.233 52.4451 146.152C52.4451 152.071 56.3966 156.87 61.2711 156.87Z" fill="#47AC5F"/>
<path d="M127.782 72.2524V77.8616H77.032V72.2524C77.0318 71.6912 77.1423 71.1354 77.357 70.6168C77.5717 70.0982 77.8865 69.627 78.2834 69.2302C78.6803 68.8333 79.1514 68.5185 79.67 68.3038C80.1886 68.0891 80.7444 67.9786 81.3056 67.9788H123.508C124.069 67.9786 124.625 68.0891 125.144 68.3038C125.662 68.5185 126.133 68.8333 126.53 69.2302C126.927 69.627 127.242 70.0982 127.457 70.6168C127.671 71.1354 127.782 71.6912 127.782 72.2524Z" fill="#B3B3B3"/>
<path d="M229.124 79.6182C228.831 78.6724 228.334 77.8024 227.669 77.0694C227.003 76.3364 226.185 75.7583 225.272 75.3757C224.359 74.9932 223.373 74.8155 222.383 74.8552C221.394 74.8949 220.425 75.1511 219.546 75.6056L161.485 54.7744L158.928 69.2789L216.804 85.1944C217.665 86.6215 219.02 87.6829 220.612 88.1776C222.204 88.6724 223.922 88.566 225.441 87.8786C226.959 87.1913 228.173 85.9707 228.852 84.4483C229.531 82.9258 229.628 81.2072 229.124 79.6182Z" fill="#FFB8B8"/>
<path opacity="0.2" d="M229.124 79.6182C228.831 78.6724 228.334 77.8024 227.669 77.0694C227.003 76.3364 226.185 75.7583 225.272 75.3757C224.359 74.9932 223.373 74.8155 222.383 74.8552C221.394 74.8949 220.425 75.1511 219.546 75.6056L161.485 54.7744L158.928 69.2789L216.804 85.1944C217.665 86.6215 219.02 87.6829 220.612 88.1776C222.204 88.6724 223.922 88.566 225.441 87.8786C226.959 87.1913 228.173 85.9707 228.852 84.4483C229.531 82.9258 229.628 81.2072 229.124 79.6182Z" fill="black"/>
<path d="M212.948 105.131L205.463 84.8004C205.073 83.7408 204.895 82.6147 204.94 81.4864C204.985 80.3582 205.252 79.2499 205.726 78.2248C206.199 77.1997 206.87 76.2779 207.699 75.512C208.529 74.7461 209.501 74.1511 210.561 73.761L232.021 65.8609C233.885 65.1744 235.867 64.8618 237.852 64.941C239.837 65.0202 241.787 65.4896 243.591 66.3225C245.395 67.1553 247.017 68.3353 248.365 69.7951C249.712 71.2548 250.759 72.9657 251.446 74.8301C252.065 76.5035 252.381 78.2738 252.38 80.058C252.371 82.3235 251.859 84.5587 250.879 86.6013C249.899 88.6438 248.476 90.4423 246.713 91.866C245.44 92.8872 244.009 93.694 242.477 94.2547L212.948 105.131Z" fill="#3F3D56"/>
<path d="M186.911 175.862C186.821 175.862 186.73 175.858 186.639 175.849L175.943 175.07C175.511 175.03 175.093 174.891 174.723 174.664C174.352 174.437 174.039 174.128 173.807 173.761C173.575 173.393 173.43 172.978 173.384 172.546C173.338 172.114 173.392 171.677 173.542 171.269L187.857 139.108C187.959 138.821 188.001 138.516 187.979 138.213C187.958 137.909 187.874 137.613 187.733 137.343C187.592 137.071 187.395 136.831 187.155 136.639C186.914 136.448 186.636 136.31 186.339 136.234C179.608 134.474 162.337 129.789 147.387 124.307C140.982 121.959 136.947 118.565 135.397 114.219C133.352 108.491 136.377 103.266 136.506 103.047L136.608 102.875L150.676 104.154L165.927 105.451L199.348 123.373C202.149 124.887 204.276 127.401 205.306 130.413C206.336 133.426 206.194 136.716 204.908 139.628L189.499 174.181C189.276 174.681 188.913 175.106 188.454 175.404C187.994 175.703 187.458 175.862 186.911 175.862Z" fill="#2F2E41"/>
<path d="M173.526 185.98H181.255L184.933 165.935L173.525 165.935L173.526 185.98Z" fill="#FFB8B8"/>
<path d="M171.554 183.457L186.775 183.457H186.776C188.05 183.457 189.311 183.707 190.488 184.195C191.665 184.682 192.734 185.397 193.635 186.298C194.536 187.198 195.25 188.268 195.738 189.444C196.225 190.621 196.476 191.883 196.476 193.157V193.472L171.555 193.473L171.554 183.457Z" fill="#2F2E41"/>
<path d="M182.497 177.753C182.407 177.753 182.317 177.749 182.226 177.74L171.53 176.961C171.097 176.921 170.679 176.782 170.309 176.555C169.939 176.328 169.625 176.019 169.393 175.652C169.161 175.284 169.017 174.869 168.971 174.437C168.925 174.005 168.979 173.568 169.128 173.16L183.443 140.999C183.545 140.712 183.587 140.407 183.566 140.104C183.544 139.8 183.46 139.504 183.319 139.234C183.178 138.962 182.981 138.722 182.741 138.531C182.501 138.339 182.223 138.201 181.925 138.125C175.194 136.366 157.923 131.68 142.973 126.199C136.568 123.85 132.534 120.456 130.983 116.11C128.938 110.382 131.963 105.157 132.093 104.938L132.194 104.766L146.262 106.045L161.513 107.342L194.935 125.264C197.735 126.778 199.862 129.292 200.892 132.305C201.923 135.317 201.78 138.607 200.494 141.519L185.086 176.072C184.863 176.572 184.5 176.997 184.04 177.296C183.581 177.594 183.045 177.753 182.497 177.753Z" fill="#2F2E41"/>
<path d="M252.064 80.058C252.062 82.2774 251.563 84.4681 250.603 86.469C249.643 88.4699 248.246 90.2301 246.516 91.6201C243.862 90.92 241.392 89.6501 239.277 87.8988C237.163 86.1476 235.456 83.9569 234.274 81.4791C233.092 79.0013 232.464 76.2958 232.434 73.5507C232.403 70.8057 232.97 68.0869 234.097 65.5833C236.259 65.1131 238.499 65.1331 240.653 65.6419C242.807 66.1507 244.819 67.1354 246.542 68.5237C248.265 69.912 249.656 71.6686 250.611 73.6645C251.567 75.6605 252.063 77.8451 252.064 80.058Z" fill="#47AC5F"/>
<path d="M171.79 57.4174L166.308 71.741C166.152 72.1485 165.91 72.5176 165.598 72.8232C165.286 73.1288 164.913 73.3636 164.502 73.5118C164.092 73.6599 163.654 73.7178 163.219 73.6816C162.784 73.6453 162.363 73.5158 161.982 73.3018L148.657 65.802C146.577 64.9919 144.903 63.3899 144.001 61.3473C143.1 59.3047 143.046 56.9881 143.85 54.9054C144.654 52.8227 146.251 51.1439 148.292 50.237C150.332 49.33 152.648 49.269 154.733 50.0673L169.613 53.3674C170.039 53.462 170.439 53.6474 170.787 53.9108C171.135 54.1742 171.422 54.5094 171.629 54.8938C171.835 55.2781 171.957 55.7025 171.985 56.138C172.013 56.5735 171.946 57.0099 171.79 57.4174Z" fill="#47AC5F"/>
<path d="M157.897 49.305L141.506 43.6311C141.506 43.6311 131.216 51.5367 136.159 71.1485C138.74 81.269 137.988 91.9518 134.016 101.611C133.537 102.806 132.986 103.971 132.365 105.098C132.365 105.098 150.647 127.163 167.669 110.772L161.049 78.9353C161.049 78.9353 171.451 57.8158 157.897 49.305Z" fill="#47AC5F"/>
<path d="M228.353 78.9877C227.946 78.0853 227.345 77.2832 226.594 76.6379C225.843 75.9927 224.96 75.5199 224.007 75.253C223.053 74.986 222.053 74.9313 221.076 75.0928C220.099 75.2543 219.17 75.628 218.353 76.1876L158.166 62.6792L157.417 77.3884L216.815 86.0414C217.846 87.3513 219.321 88.2374 220.962 88.532C222.603 88.8265 224.295 88.5089 225.717 87.6395C227.139 86.77 228.193 85.409 228.679 83.8145C229.165 82.2199 229.049 80.5025 228.353 78.9877Z" fill="#FFB8B8"/>
<path d="M221.4 90.6744C223.837 90.6744 225.813 88.6987 225.813 86.2614C225.813 83.8242 223.837 81.8484 221.4 81.8484C218.963 81.8484 216.987 83.8242 216.987 86.2614C216.987 88.6987 218.963 90.6744 221.4 90.6744Z" fill="#47AC5F"/>
<path d="M168.719 64.0303L165.045 78.9209C164.94 79.3445 164.746 79.7407 164.474 80.0824C164.203 80.4241 163.861 80.7033 163.472 80.9009C163.083 81.0985 162.656 81.21 162.22 81.2277C161.784 81.2454 161.349 81.1689 160.945 81.0034L146.797 75.205C144.631 74.6591 142.77 73.2763 141.623 71.3599C140.475 69.4436 140.135 67.1503 140.676 64.9833C141.217 62.8163 142.596 60.9525 144.51 59.801C146.424 58.6494 148.717 58.3042 150.885 58.8409L166.058 60.2799C166.492 60.3212 166.913 60.4557 167.29 60.6742C167.668 60.8926 167.994 61.1899 168.247 61.5458C168.499 61.9017 168.672 62.3079 168.754 62.7366C168.835 63.1654 168.823 63.6066 168.719 64.0303V64.0303Z" fill="#47AC5F"/>
<path d="M153.121 40.525C161.673 40.525 168.605 33.5925 168.605 25.0409C168.605 16.4893 161.673 9.55688 153.121 9.55688C144.57 9.55688 137.637 16.4893 137.637 25.0409C137.637 33.5925 144.57 40.525 153.121 40.525Z" fill="#FFB8B8"/>
<path d="M155.044 41.0515C152.841 37.7529 151.102 33.179 153.528 30.0405C155.923 26.9424 160.647 27.3989 164.315 26.028C169.424 24.1186 172.387 18.1165 171.463 12.7412C170.539 7.36596 166.224 2.91002 161.083 1.08679C155.943 -0.73644 150.146 -0.143484 145.113 1.95607C138.916 4.54066 133.6 9.54035 131.371 15.8737C129.142 22.207 130.334 29.8113 134.958 34.6792C139.916 39.8981 147.696 41.289 154.894 41.2046" fill="#2F2E41"/>
<path d="M140.641 12.9137C137.864 15.1743 133.627 14.1702 130.646 12.1862C127.665 10.2022 125.246 7.37712 122.021 5.82159C116.335 3.07924 109.461 4.90227 103.927 7.93991C98.3929 10.9775 93.4874 15.1741 87.6419 17.5579C81.7965 19.9416 74.3373 20.0595 69.9111 15.5584C68.8219 18.7142 68.7329 22.1293 69.6562 25.3376C70.5795 28.5459 72.4702 31.3912 75.0702 33.4853C77.6703 35.5794 80.8532 36.8203 84.1846 37.0387C87.516 37.257 90.8336 36.4423 93.6848 34.7055C100.09 30.8042 103.627 22.6241 110.811 20.4708C114.786 19.2792 119.055 20.2389 123.072 21.2784C127.09 22.3179 131.279 23.4411 135.334 22.5561C139.388 21.6712 143.181 18.0277 142.665 13.9099L140.641 12.9137Z" fill="#2F2E41"/>
</svg>
