<svg width="265" height="300" viewBox="0 0 265 300" fill="none" xmlns="http://www.w3.org/2000/svg">
<g clip-path="url(#clip0_1_3576)">
<path d="M128.391 199.488C127.961 200.006 127.383 200.379 126.734 200.556C126.085 200.734 125.398 200.708 124.764 200.481C124.131 200.255 123.582 199.839 123.193 199.291C122.804 198.742 122.592 198.087 122.588 197.415C122.4 197.132 122.266 196.929 122.079 196.647C120.438 196.021 118.648 195.9 116.939 196.299C115.229 196.697 113.677 197.597 112.482 198.883C111.287 200.169 110.504 201.783 110.232 203.517C109.96 205.252 110.212 207.028 110.957 208.618C115.062 217.622 118.635 227.688 127.728 232.591C90.7029 221.205 62.2863 187.693 56.6037 149.457C58.404 141.961 57.2074 133.464 52.4966 127.242C51.082 130.474 46.2661 131.722 45.3576 127.494C45.0971 125.782 44.8516 124.071 44.591 122.359C26.048 122.633 31.5602 148.125 54.4583 150.092C55.6139 157.33 57.5232 164.428 60.1549 171.27C55.5225 166.021 49.7102 161.947 43.1961 159.383C36.9882 157.143 30.0026 157.184 23.2975 156.716C15.1349 156.138 10.292 165.848 15.8547 171.842C20.1449 169.42 25.551 173.526 22.6278 178.106C34.7761 187.283 51.7448 189.35 65.8485 183.748C72.9002 196.993 82.6941 208.583 94.5773 217.746C80.0391 207.751 64.2655 218.758 50.2978 223.769C49.34 224.025 48.4775 224.554 47.8154 225.292C47.1533 226.03 46.7204 226.945 46.5693 227.925C46.4183 228.905 46.5557 229.908 46.9647 230.811C47.3738 231.714 48.0369 232.478 48.873 233.011C50.6362 232.17 52.4786 231.505 54.3731 231.028C55.2667 230.809 56.206 230.873 57.0622 231.209C57.9184 231.545 58.6496 232.138 59.1556 232.907C59.6615 233.675 59.9175 234.581 59.8884 235.5C59.8593 236.42 59.5465 237.308 58.993 238.042C75.5353 244.179 95.1663 238.951 106.945 225.938C113.498 229.63 120.417 232.63 127.59 234.891L145.14 215.64C144.989 215.376 144.824 215.113 144.667 214.856C143.155 216.74 141.417 218.431 139.494 219.893C138.21 210.09 138.686 203.848 128.392 199.488L128.391 199.488Z" fill="#F2F2F2"/>
<path d="M169.942 222.111C170.536 222.428 171.212 222.555 171.88 222.474C172.548 222.394 173.175 222.111 173.676 221.662C174.177 221.214 174.529 220.622 174.682 219.967C174.836 219.312 174.785 218.626 174.535 218.001C174.602 217.669 174.65 217.43 174.717 217.098C176 215.9 177.612 215.112 179.346 214.837C181.08 214.561 182.856 214.809 184.448 215.549C186.04 216.29 187.374 217.489 188.28 218.992C189.186 220.496 189.622 222.236 189.533 223.989C189.127 233.877 189.615 244.547 183.043 252.518C213.038 228.007 226.715 186.252 217.555 148.696C213.06 142.433 210.963 134.113 212.979 126.573C215.509 129.033 220.439 128.372 219.686 124.114C219.282 122.43 218.863 120.752 218.459 119.069C235.735 112.328 240.246 138.016 219.781 148.475C221.442 155.615 222.351 162.909 222.494 170.238C224.804 163.629 228.651 157.664 233.716 152.832C238.621 148.416 245.106 145.819 251.139 142.856C258.481 139.242 266.628 146.408 263.738 154.058C258.851 153.433 255.393 159.274 259.827 162.413C252.038 175.495 237.103 183.81 221.928 183.942C220.393 198.868 215.695 213.297 208.145 226.265C217.839 211.524 236.6 215.768 251.426 215.14C252.409 215.016 253.408 215.181 254.299 215.615C255.191 216.049 255.937 216.733 256.447 217.583C256.956 218.434 257.207 219.414 257.169 220.405C257.131 221.396 256.805 222.354 256.231 223.163C254.281 223.048 252.324 223.128 250.389 223.4C249.479 223.535 248.633 223.948 247.967 224.583C247.301 225.217 246.848 226.042 246.669 226.944C246.49 227.847 246.595 228.782 246.969 229.623C247.342 230.463 247.967 231.168 248.757 231.639C235.751 243.562 215.598 246.125 199.781 238.517C195.105 244.408 189.829 249.796 184.039 254.596L160.524 243.387C160.564 243.085 160.617 242.779 160.665 242.482C162.777 243.656 165.024 244.568 167.357 245.196C164.848 235.633 162.053 230.031 169.942 222.111H169.942Z" fill="#F2F2F2"/>
<path d="M191.106 300H157.517L151.885 272.151L150.058 300H118.857C118.869 278.13 120.009 256.275 122.27 234.522L122.657 233.205L123.268 231.098L123.655 229.775L130.111 207.603L130.621 205.844H169.5C171.737 207.945 173.801 210.224 175.671 212.659C176.304 213.466 176.965 214.34 177.643 215.282C178.114 215.948 178.602 216.649 179.089 217.383C183.421 223.833 186.66 230.953 188.673 238.456V238.462C189.015 239.745 189.318 241.059 189.581 242.402V242.408C189.817 243.601 190.024 244.812 190.186 246.051C190.31 246.953 190.416 247.866 190.495 248.791C190.962 253.914 190.798 259.076 190.007 264.159L191.106 300Z" fill="#2F2E41"/>
<path d="M34.6332 161.861C35.6878 160.622 35.0989 158.389 33.3178 156.873C31.5367 155.357 29.2378 155.132 28.1831 156.371C27.1284 157.61 27.7173 159.844 29.4985 161.36C31.2796 162.876 33.5785 163.1 34.6332 161.861Z" fill="#E6E6E6"/>
<path d="M43.086 155.312C44.1889 154.328 44.5278 152.908 43.8431 152.14C43.1583 151.373 41.7091 151.549 40.6063 152.534C39.5034 153.518 39.1645 154.938 39.8493 155.705C40.534 156.472 41.9832 156.296 43.086 155.312Z" fill="#FF6584"/>
<path d="M67.172 153.047C68.2748 152.063 68.6138 150.643 67.929 149.876C67.2442 149.109 65.7951 149.285 64.6922 150.269C63.5894 151.253 63.2504 152.673 63.9352 153.44C64.62 154.208 66.0691 154.032 67.172 153.047Z" fill="#E6E6E6"/>
<path d="M56.3714 152.799C57.4261 151.56 56.8372 149.327 55.0561 147.81C53.275 146.294 50.9761 146.07 49.9214 147.309C48.8667 148.548 49.4556 150.781 51.2367 152.297C53.0179 153.814 55.3168 154.038 56.3714 152.799Z" fill="#FF6584"/>
<path d="M21.6163 149.502C22.7192 148.518 23.0581 147.098 22.3733 146.331C21.6886 145.564 20.2394 145.74 19.1366 146.724C18.0337 147.708 17.6948 149.128 18.3795 149.895C19.0643 150.663 20.5135 150.487 21.6163 149.502Z" fill="#3F3D56"/>
<path d="M18.4574 139.388C19.5121 138.149 18.9232 135.915 17.142 134.399C15.3609 132.883 13.062 132.658 12.0073 133.897C10.9526 135.136 11.5416 137.37 13.3227 138.886C15.1038 140.402 17.4027 140.627 18.4574 139.388Z" fill="#3F3D56"/>
<path d="M132.908 118.143C133.577 118.075 134.209 117.803 134.719 117.364C135.229 116.925 135.591 116.34 135.757 115.688C135.923 115.037 135.885 114.35 135.647 113.72C135.41 113.091 134.984 112.55 134.429 112.17C134.299 111.857 134.206 111.632 134.076 111.319C134.474 109.609 135.373 108.057 136.658 106.861C137.944 105.665 139.557 104.881 141.291 104.608C143.025 104.335 144.802 104.586 146.392 105.33C147.982 106.073 149.315 107.274 150.218 108.779C155.394 117.214 161.748 125.799 160.737 136.081C171.971 99.0093 160.044 56.7209 131.501 30.6519C124.277 27.9586 117.898 22.2206 115.367 14.8376C118.839 15.4695 122.563 12.1718 119.564 9.05653C118.29 7.8847 117.007 6.72495 115.733 5.55306C126.316 -9.67573 144.383 9.13422 133.226 29.2267C138.585 34.2282 143.406 39.7763 147.612 45.7805C145.845 39.0064 145.711 31.9096 147.223 25.0739C148.832 18.6736 152.768 12.9022 156.124 7.07894C160.204 -0.0149358 170.963 1.39103 172.828 9.35327C168.423 11.559 168.809 18.3363 174.241 18.4695C175.068 33.6722 167.306 48.902 154.782 57.4723C161.83 70.7194 165.974 85.3166 166.938 100.291C166.767 82.6494 184.707 75.7128 196.664 66.9251C197.412 66.2737 198.333 65.8539 199.315 65.7169C200.296 65.5799 201.297 65.7317 202.194 66.1537C203.091 66.5757 203.846 67.2496 204.367 68.0934C204.888 68.9371 205.152 69.9142 205.127 70.9053C203.444 71.8978 201.863 73.0549 200.409 74.3597C199.729 74.979 199.257 75.7935 199.058 76.6916C198.859 77.5897 198.942 78.5274 199.297 79.3762C199.652 80.225 200.26 80.9433 201.039 81.4327C201.818 81.9221 202.729 82.1585 203.648 82.1097C199.499 99.2588 184.198 112.623 166.826 115.126C166.228 122.623 164.853 130.038 162.722 137.251L136.951 141.056C136.817 140.784 136.69 140.5 136.564 140.226C138.972 140.024 141.346 139.528 143.633 138.748C136.218 132.208 130.775 129.117 132.907 118.143L132.908 118.143Z" fill="#F2F2F2"/>
<path d="M158.827 109.879C147.094 109.879 140.731 108.446 138.508 105.385C136.547 102.685 137.862 99.1225 139.384 94.9973C140.478 92.0322 141.718 88.6717 141.718 85.3456C141.718 69.1685 149.921 60.9658 166.098 60.9658C174.147 60.9658 182.789 65.2415 189.216 72.4034C195.059 78.9143 197.969 86.7068 197.202 93.7825C196.572 99.5855 193.871 103.402 188.701 105.793L188.399 105.933L188.313 105.611C187.867 103.945 187.111 102.379 186.086 100.992C185.986 103.169 185.437 105.301 184.474 107.255L184.419 107.366L184.3 107.4C178.449 109.067 171.505 109.518 166.109 109.725C163.482 109.827 161.055 109.879 158.827 109.879Z" fill="#2F2E41"/>
<path d="M162.024 132.419C161.575 131.097 160.816 129.902 159.812 128.932C158.808 127.962 157.587 127.245 156.25 126.842C154.913 126.438 153.5 126.359 152.127 126.611C150.753 126.863 149.46 127.439 148.354 128.291L109.763 151.364L97.687 121.899C98.7071 120.402 99.2271 118.621 99.1723 116.811C99.1176 115.001 98.4909 113.254 97.3822 111.822C96.2735 110.39 94.7397 109.346 93.0008 108.839C91.262 108.332 89.4073 108.39 87.703 109.002C85.9986 109.615 84.532 110.752 83.5136 112.249C82.4951 113.747 81.9772 115.529 82.034 117.339C82.0908 119.149 82.7195 120.895 83.8298 122.326C84.9401 123.757 86.475 124.799 88.2145 125.304C88.9588 133.801 93.0951 171.777 107.485 170.397C119.58 169.237 149.617 149.232 158.947 142.296C160.439 141.188 161.542 139.634 162.095 137.859C162.648 136.084 162.623 134.179 162.024 132.419Z" fill="#FFB6B6"/>
<path d="M82.6368 144.859C83.7397 143.874 84.0786 142.454 83.3939 141.687C82.7091 140.92 81.2599 141.096 80.1571 142.08C79.0542 143.065 78.7153 144.485 79.4 145.252C80.0848 146.019 81.534 145.843 82.6368 144.859Z" fill="#3F3D56"/>
<path d="M39.2882 140.92C40.3911 139.935 40.73 138.515 40.0452 137.748C39.3605 136.981 37.9113 137.157 36.8084 138.141C35.7056 139.126 35.3666 140.546 36.0514 141.313C36.7362 142.08 38.1853 141.904 39.2882 140.92Z" fill="#E6E6E6"/>
<path d="M153.152 114.383L171.656 113.43L180.251 127.01C180.251 127.01 196.422 129.714 195.301 148.769C194.18 167.825 175.626 184.546 175.626 184.546L176.419 194.469L175.042 198.405L175.218 200.615L177.097 202.956L177.291 205.377L175.626 209.206L177.89 212.873L130.288 208.261L128.548 201.92L131.087 198.515L129.669 194.074L131.801 189.802L132.913 176.233C132.913 176.233 120.748 157.958 134.713 144.193L140.317 134.666L146.588 127.015L153.152 114.383Z" fill="#47AC5F"/>
<path d="M2.53127 96.6186C3.53197 96.3817 4.06718 95.0236 3.7267 93.5851C3.38622 92.1465 2.29897 91.1724 1.29826 91.4093C0.297558 91.6461 -0.237654 93.0043 0.10283 94.4428C0.443314 95.8813 1.53056 96.8555 2.53127 96.6186Z" fill="#3F3D56"/>
<path d="M2.69435 79.1198C3.69506 78.883 4.23029 77.5248 3.8898 76.0863C3.54932 74.6478 2.46205 73.6736 1.46135 73.9105C0.460644 74.1473 -0.074568 75.5055 0.265916 76.944C0.6064 78.3825 1.69365 79.3567 2.69435 79.1198Z" fill="#E6E6E6"/>
<path d="M162.351 110.548C173.18 110.548 181.958 101.77 181.958 90.9413C181.958 80.1126 173.18 71.3342 162.351 71.3342C151.523 71.3342 142.744 80.1126 142.744 90.9413C142.744 101.77 151.523 110.548 162.351 110.548Z" fill="#FFB6B6"/>
<path d="M159.726 89.753C158.037 89.753 156.348 89.7054 154.66 89.6102L154.359 89.5932L154.398 89.2938C154.647 87.4223 154.507 85.5196 153.987 83.7046C153.105 85.7713 151.791 87.626 150.135 89.145L150.042 89.2306L149.916 89.2169C145.332 88.7155 140.79 87.8872 136.324 86.7381L136.153 86.6944L136.119 86.5214C135.786 84.8836 135.613 83.2171 135.604 81.5457C135.604 76.3246 137.497 71.9301 140.934 69.1719C144.675 66.1696 150.038 65.2463 156.041 66.5705H175.233C177.343 66.5729 179.366 67.4121 180.858 68.9041C182.35 70.3962 183.19 72.4191 183.192 74.5291V86.6831L182.983 86.7379C175.391 88.7329 167.575 89.7463 159.726 89.753Z" fill="#2F2E41"/>
<path d="M10.6392 68.7841C12.8205 67.9397 14.1126 66.0251 13.5252 64.5076C12.9378 62.9902 10.6934 62.4446 8.51209 63.289C6.33079 64.1334 5.03867 66.048 5.62607 67.5654C6.21346 69.0828 8.45793 69.6284 10.6392 68.7841Z" fill="#FF6584"/>
<path d="M26.6358 60.3744C27.6365 60.1376 28.1717 58.7794 27.8312 57.3409C27.4907 55.9024 26.4035 54.9283 25.4028 55.1651C24.402 55.402 23.8668 56.7601 24.2073 58.1986C24.5478 59.6372 25.6351 60.6113 26.6358 60.3744Z" fill="#E6E6E6"/>
<path d="M12.1709 56.862C13.1716 56.6251 13.7068 55.267 13.3663 53.8285C13.0259 52.39 11.9386 51.4158 10.9379 51.6527C9.93721 51.8895 9.40199 53.2477 9.74248 54.6862C10.083 56.1247 11.1702 57.0989 12.1709 56.862Z" fill="#FF6584"/>
<path d="M13.021 45.3524C15.2023 44.508 16.4945 42.5934 15.9071 41.076C15.3197 39.5586 13.0752 39.013 10.8939 39.8574C8.71261 40.7017 7.42051 42.6163 8.0079 44.1338C8.5953 45.6512 10.8397 46.1968 13.021 45.3524Z" fill="#E6E6E6"/>
<path d="M149.213 44.7733C150.673 44.0552 151.02 41.7716 149.988 39.6727C148.955 37.5737 146.935 36.4544 145.475 37.1725C144.015 37.8905 143.668 40.1742 144.7 42.2731C145.732 44.372 147.753 45.4914 149.213 44.7733Z" fill="#3F3D56"/>
<path d="M27.502 40.7485C28.5027 40.5116 29.0379 39.1534 28.6974 37.7149C28.3569 36.2764 27.2697 35.3023 26.269 35.5391C25.2683 35.776 24.733 37.1342 25.0735 38.5727C25.414 40.0112 26.5013 40.9853 27.502 40.7485Z" fill="#3F3D56"/>
<path d="M40.4859 41.8292C42.6672 40.9848 43.9593 39.0702 43.3719 37.5528C42.7845 36.0354 40.54 35.4898 38.3587 36.3342C36.1775 37.1785 34.8854 39.0932 35.4727 40.6106C36.0601 42.128 38.3046 42.6736 40.4859 41.8292Z" fill="#3F3D56"/>
<path d="M25.9381 67.9433C25.0789 68.2576 24.3795 68.8998 23.9932 69.7291C23.6069 70.5584 23.5654 71.5071 23.8777 72.3669L44.5827 129.18C44.8969 130.039 45.5391 130.738 46.3684 131.125C47.1977 131.511 48.1464 131.552 49.0063 131.24L129.366 101.954C130.225 101.639 130.925 100.997 131.311 100.168C131.697 99.3385 131.739 98.3898 131.426 97.53L110.721 40.7173C110.407 39.8581 109.765 39.1586 108.936 38.7723C108.106 38.386 107.158 38.3444 106.298 38.6567L25.9381 67.9433Z" fill="#CCCCCC"/>
<path d="M99.4578 109.721L50.2693 127.648C49.3439 127.984 48.3228 127.939 47.4303 127.523C46.5378 127.108 45.8466 126.355 45.5084 125.43L26.7291 73.9015C26.393 72.976 26.4377 71.955 26.8534 71.0624C27.2691 70.1699 28.0219 69.4786 28.9467 69.1405L104.766 41.5087C105.691 41.1726 106.712 41.2173 107.605 41.6331C108.497 42.0489 109.188 42.8017 109.527 43.7265L118.601 68.6246C121.502 76.6133 121.116 85.4267 117.527 93.1312C113.938 100.836 107.44 106.802 99.4578 109.721Z" fill="white"/>
<path d="M64.0641 72.4962L52.3752 76.7561C52.2287 76.8095 52.073 76.8336 51.9171 76.8268C51.7613 76.8201 51.6082 76.7827 51.4668 76.7168C51.3254 76.651 51.1983 76.5579 51.0929 76.4429C50.9874 76.3279 50.9056 76.1933 50.8522 76.0467C50.7988 75.9001 50.7748 75.7444 50.7815 75.5886C50.7882 75.4327 50.8256 75.2797 50.8915 75.1382C50.9574 74.9968 51.0505 74.8698 51.1654 74.7643C51.2804 74.6589 51.4151 74.5771 51.5616 74.5237L63.2505 70.2637C63.5465 70.1558 63.8733 70.17 64.1589 70.303C64.4446 70.436 64.6656 70.6771 64.7735 70.9731C64.8814 71.2692 64.8673 71.596 64.7343 71.8816C64.6012 72.1672 64.3602 72.3883 64.0641 72.4962H64.0641Z" fill="#47AC5F"/>
<path d="M91.9305 67.5123L54.0391 81.3216C53.8925 81.3752 53.7367 81.3995 53.5807 81.3929C53.4247 81.3863 53.2715 81.349 53.1299 81.2831C52.9884 81.2173 52.8611 81.1242 52.7556 81.0091C52.65 80.8941 52.5682 80.7594 52.5147 80.6127C52.4612 80.466 52.4372 80.3102 52.444 80.1542C52.4508 79.9982 52.4883 79.8451 52.5543 79.7036C52.6203 79.5621 52.7136 79.435 52.8287 79.3295C52.9439 79.2241 53.0787 79.1424 53.2255 79.0891L91.1169 65.2798C91.2635 65.2264 91.4192 65.2024 91.575 65.2091C91.7309 65.2159 91.8839 65.2532 92.0253 65.3191C92.1668 65.385 92.2938 65.4781 92.3993 65.5931C92.5047 65.708 92.5865 65.8427 92.6399 65.9893C92.6934 66.1358 92.7174 66.2915 92.7106 66.4474C92.7039 66.6033 92.6665 66.7563 92.6007 66.8977C92.5348 67.0391 92.4417 67.1662 92.3267 67.2717C92.2117 67.3771 92.0771 67.4589 91.9305 67.5123Z" fill="#47AC5F"/>
<path d="M93.8404 72.7528L55.949 86.5621C55.8024 86.6155 55.6467 86.6395 55.4909 86.6328C55.335 86.626 55.182 86.5887 55.0405 86.5228C54.8991 86.4569 54.772 86.3638 54.6666 86.2488C54.5611 86.1339 54.4794 85.9992 54.4259 85.8526C54.3725 85.7061 54.3485 85.5504 54.3552 85.3945C54.362 85.2386 54.3994 85.0856 54.4652 84.9442C54.5311 84.8028 54.6242 84.6757 54.7392 84.5702C54.8542 84.4648 54.9888 84.383 55.1354 84.3296L93.0268 70.5203C93.3227 70.4129 93.6492 70.4273 93.9345 70.5604C94.2199 70.6935 94.4407 70.9344 94.5485 71.2302C94.6563 71.526 94.6423 71.8525 94.5095 72.138C94.3767 72.4235 94.1361 72.6446 93.8404 72.7528Z" fill="#47AC5F"/>
<path d="M95.7502 77.9935L57.8588 91.8028C57.7122 91.8565 57.5564 91.8807 57.4004 91.8741C57.2444 91.8675 57.0912 91.8302 56.9496 91.7643C56.8081 91.6985 56.6808 91.6054 56.5753 91.4904C56.4697 91.3753 56.3879 91.2406 56.3344 91.0939C56.2809 90.9472 56.2569 90.7914 56.2637 90.6354C56.2705 90.4794 56.308 90.3263 56.374 90.1848C56.44 90.0433 56.5333 89.9162 56.6484 89.8107C56.7636 89.7053 56.8984 89.6236 57.0452 89.5703L94.9366 75.761C95.0832 75.7076 95.2389 75.6836 95.3947 75.6903C95.5506 75.6971 95.7036 75.7344 95.845 75.8003C95.9865 75.8662 96.1135 75.9593 96.219 76.0743C96.3244 76.1892 96.4062 76.3239 96.4596 76.4705C96.5131 76.6171 96.5371 76.7727 96.5303 76.9286C96.5236 77.0845 96.4862 77.2375 96.4204 77.3789C96.3545 77.5203 96.2614 77.6474 96.1464 77.7529C96.0314 77.8583 95.8968 77.9401 95.7502 77.9935Z" fill="#47AC5F"/>
<path d="M97.6601 83.234L59.7687 97.0433C59.4727 97.1512 59.1459 97.137 58.8602 97.004C58.5746 96.871 58.3535 96.6299 58.2456 96.3339C58.1378 96.0378 58.1519 95.711 58.2849 95.4254C58.418 95.1398 58.659 94.9187 58.9551 94.8108L96.8465 81.0015C96.9931 80.9481 97.1488 80.9241 97.3046 80.9308C97.4605 80.9375 97.6135 80.9749 97.7549 81.0408C97.8964 81.1067 98.0234 81.1998 98.1289 81.3147C98.2344 81.4297 98.3161 81.5644 98.3696 81.7109C98.423 81.8575 98.447 82.0132 98.4403 82.1691C98.4335 82.3249 98.3961 82.478 98.3302 82.6194C98.2644 82.7608 98.1713 82.8879 98.0563 82.9933C97.9413 83.0988 97.8067 83.1806 97.6601 83.234H97.6601Z" fill="#47AC5F"/>
<path d="M217.89 97.788L197.144 147.433C196.259 149.534 194.583 151.202 192.479 152.078C190.374 152.955 188.01 152.968 185.895 152.116C184.801 151.676 183.809 151.017 182.978 150.18C182.147 149.343 181.495 148.346 181.062 147.249C180.629 146.152 180.424 144.978 180.46 143.8C180.495 142.621 180.77 141.462 181.268 140.393L204.399 89.4842L217.15 57.9579C216.049 56.8589 215.312 55.4474 215.04 53.9151C214.768 52.3828 214.975 50.804 215.632 49.3932C216.289 47.9824 217.364 46.808 218.711 46.0295C220.059 45.2511 221.613 44.9063 223.164 45.0421C224.714 45.1779 226.185 45.7876 227.376 46.7884C228.568 47.7893 229.423 49.1327 229.824 50.6362C230.226 52.1397 230.155 53.7304 229.621 55.1921C229.087 56.6539 228.116 57.9158 226.84 58.8065L217.89 97.788Z" fill="#FFB6B6"/>
<path d="M128.139 31.0259C129.542 30.5607 130.418 29.3923 130.094 28.4162C129.77 27.4401 128.371 27.0259 126.967 27.4911C125.564 27.9564 124.689 29.1248 125.013 30.1009C125.336 31.077 126.736 31.4911 128.139 31.0259Z" fill="#E6E6E6"/>
<path d="M147.766 30.17C149.169 29.7048 150.045 28.5363 149.721 27.5602C149.397 26.5841 147.997 26.17 146.594 26.6352C145.191 27.1004 144.316 28.2688 144.64 29.2449C144.963 30.221 146.363 30.6352 147.766 30.17Z" fill="#3F3D56"/>
<path d="M130.372 16.3091C131.775 15.8439 132.65 14.6755 132.326 13.6994C132.003 12.7233 130.603 12.3091 129.2 12.7744C127.797 13.2396 126.922 14.408 127.245 15.3841C127.569 16.3602 128.969 16.7743 130.372 16.3091Z" fill="#FF6584"/>
<path d="M143.298 17.7233C144.758 17.0052 145.105 14.7215 144.073 12.6226C143.04 10.5237 141.02 9.40432 139.56 10.1224C138.1 10.8405 137.753 13.1241 138.785 15.223C139.817 17.322 141.838 18.4414 143.298 17.7233Z" fill="#E6E6E6"/>
<path d="M119.747 17.4037C121.207 16.6856 121.554 14.402 120.522 12.303C119.49 10.2041 117.469 9.08472 116.009 9.80281C114.549 10.5209 114.202 12.8045 115.234 14.9035C116.267 17.0024 118.287 18.1218 119.747 17.4037Z" fill="#FF6584"/>
<path d="M89.9225 10.1898C91.3257 9.72454 92.2008 8.55612 91.8772 7.58002C91.5535 6.60391 90.1537 6.18976 88.7506 6.65498C87.3474 7.12019 86.4723 8.2886 86.7959 9.2647C87.1196 10.2408 88.5194 10.655 89.9225 10.1898Z" fill="#3F3D56"/>
<path d="M107.369 8.81939C108.772 8.35418 109.647 7.18577 109.323 6.20966C109 5.23356 107.6 4.81939 106.197 5.2846C104.794 5.74982 103.919 6.91825 104.242 7.89435C104.566 8.87045 105.966 9.28461 107.369 8.81939Z" fill="#E6E6E6"/>
</g>
<defs>
<clipPath id="clip0_1_3576">
<rect width="264.335" height="300" fill="white"/>
</clipPath>
</defs>
</svg>
