<svg width="347" height="250" viewBox="0 0 347 250" fill="none" xmlns="http://www.w3.org/2000/svg">
<g clip-path="url(#clip0_1_3678)">
<path d="M170.998 248.944H157.676V146.409H168.511C169.035 146.409 169.539 146.617 169.911 146.987C170.283 147.357 170.493 147.859 170.496 148.384L170.998 248.944Z" fill="#CCCCCC"/>
<path d="M158.921 249.487H15.855V176.464H158.921V249.487Z" fill="white"/>
<path d="M102.532 249.215H16.1265V176.736H158.65V193.097C158.633 207.975 152.715 222.239 142.195 232.76C131.674 243.28 117.41 249.198 102.532 249.215Z" fill="#F2F2F2"/>
<path d="M168.829 149.321C168.757 149.457 168.701 149.601 168.662 149.75L163.729 168.766L158.378 178.9H16.3979V176.376L24.4813 168.766L33.911 150.729C34.3273 149.933 34.8739 149.212 35.5283 148.596C37.0214 147.191 38.9942 146.409 41.0443 146.409H167.073C167.416 146.409 167.752 146.497 168.05 146.666C168.348 146.834 168.597 147.076 168.774 147.369C168.95 147.662 169.048 147.996 169.058 148.338C169.067 148.68 168.989 149.019 168.829 149.321Z" fill="#F2F2F2"/>
<path d="M158.921 249.487H15.855V176.464H158.921V249.487ZM16.941 248.401H157.835V177.55H16.941V248.401Z" fill="#E6E6E6"/>
<path d="M43.9368 223.563H21.1306V224.825H43.9368V223.563Z" fill="white"/>
<path d="M325.202 249.449L325.159 249.218C324.454 245.331 324.604 241.337 325.598 237.514C326.593 233.691 328.408 230.13 330.917 227.079C332.338 225.379 333.968 223.864 335.768 222.571L335.939 222.448L336.014 222.645C336.909 225.005 338.039 227.369 338.554 228.415L338.902 220.605L339.1 220.5C340.008 220.013 341.042 219.81 342.067 219.916C343.092 220.021 344.062 220.432 344.852 221.094C345.669 221.75 346.271 222.637 346.579 223.638C346.888 224.64 346.89 225.711 346.585 226.714C346.315 227.631 346.06 228.583 345.813 229.504C344.966 232.667 344.089 235.937 342.391 238.692C341.085 240.764 339.333 242.518 337.262 243.826C335.192 245.134 332.855 245.963 330.423 246.253L325.202 249.449Z" fill="#F2F2F2"/>
<path d="M346.81 249.354C346.81 249.439 346.794 249.523 346.761 249.601C346.729 249.68 346.681 249.751 346.621 249.811C346.561 249.871 346.49 249.919 346.411 249.951C346.333 249.984 346.249 250 346.164 250H0.646194C0.474813 250 0.310449 249.932 0.189264 249.811C0.0680799 249.689 0 249.525 0 249.354C0 249.182 0.0680799 249.018 0.189264 248.897C0.310449 248.776 0.474813 248.708 0.646194 248.708H346.164C346.249 248.707 346.333 248.724 346.411 248.756C346.49 248.789 346.561 248.836 346.621 248.896C346.681 248.956 346.729 249.028 346.761 249.106C346.794 249.185 346.81 249.269 346.81 249.354Z" fill="#CCCCCC"/>
<path d="M299.549 242.413L293.591 242.413L290.757 219.434L299.55 219.434L299.549 242.413Z" fill="#FFB6B6"/>
<path d="M299.758 248.628L281.438 248.627V248.396C281.439 246.505 282.19 244.691 283.527 243.354C284.864 242.017 286.678 241.265 288.569 241.265H288.57L291.916 238.727L298.159 241.266L299.759 241.266L299.758 248.628Z" fill="#2F2E41"/>
<path d="M43.9368 219.146H21.1306V220.408H43.9368V219.146Z" fill="white"/>
<path d="M43.9368 214.729H21.1306V215.991H43.9368V214.729Z" fill="white"/>
<path d="M273.648 213.935L268.145 216.216L256.725 196.076L264.847 192.708L273.648 213.935Z" fill="#FFB6B6"/>
<path d="M276.223 219.595L259.301 226.612L259.212 226.398C258.487 224.651 258.487 222.688 259.21 220.941C259.933 219.193 261.32 217.805 263.067 217.08L263.067 217.08L265.186 213.453L271.926 213.407L273.403 212.794L276.223 219.595Z" fill="#2F2E41"/>
<path d="M29.965 200.67C34.4956 200.67 38.1683 196.998 38.1683 192.467C38.1683 187.937 34.4956 184.264 29.965 184.264C25.4345 184.264 21.7617 187.937 21.7617 192.467C21.7617 196.998 25.4345 200.67 29.965 200.67Z" fill="white"/>
<path d="M29.2248 193.187C31.4504 193.187 33.2545 191.382 33.2545 189.157C33.2545 186.931 31.4504 185.127 29.2248 185.127C26.9992 185.127 25.1951 186.931 25.1951 189.157C25.1951 191.382 26.9992 193.187 29.2248 193.187Z" fill="#D1D3D4"/>
<path d="M166.365 159.049L163.729 168.766H24.4814L28.9809 160.678L166.365 159.049Z" fill="#CCCCCC"/>
<path d="M119.875 163.255H112.908V109.634H118.574C118.848 109.634 119.111 109.743 119.306 109.937C119.501 110.13 119.611 110.393 119.612 110.667L119.875 163.255Z" fill="#CCCCCC"/>
<path d="M113.559 163.539H38.7417V125.352H113.559V163.539Z" fill="white"/>
<path d="M84.0697 163.397H38.8838V125.494H113.417V134.05C113.408 141.83 110.313 149.29 104.812 154.792C99.3098 160.293 91.8504 163.388 84.0697 163.397Z" fill="#F2F2F2"/>
<path d="M118.74 111.157C118.702 111.229 118.673 111.304 118.653 111.382L116.073 121.326L113.275 126.626H39.0256V125.306L43.2529 121.326L48.1842 111.893C48.4018 111.477 48.6877 111.1 49.0299 110.778C49.8107 110.043 50.8424 109.634 51.9145 109.634H117.822C118.001 109.634 118.177 109.681 118.333 109.769C118.488 109.857 118.619 109.983 118.711 110.137C118.803 110.29 118.855 110.464 118.86 110.643C118.865 110.822 118.823 110.999 118.74 111.157Z" fill="#F2F2F2"/>
<path d="M113.559 163.539H38.7417V125.352H113.559V163.539ZM39.3097 162.971H112.991V125.92H39.3097V162.971Z" fill="#E6E6E6"/>
<path d="M53.4273 149.982H41.5007V150.642H53.4273V149.982Z" fill="white"/>
<path d="M53.4273 147.672H41.5007V148.332H53.4273V147.672Z" fill="white"/>
<path d="M53.4273 145.362H41.5007V146.022H53.4273V145.362Z" fill="white"/>
<path d="M46.1208 138.011C48.49 138.011 50.4107 136.09 50.4107 133.721C50.4107 131.351 48.49 129.431 46.1208 129.431C43.7515 129.431 41.8308 131.351 41.8308 133.721C41.8308 136.09 43.7515 138.011 46.1208 138.011Z" fill="white"/>
<path d="M33.4827 124.916C28.4809 124.796 23.6362 126.668 20.0145 130.12C16.3927 133.572 14.2906 138.321 14.1704 143.323C13.9203 153.739 21.3364 175.652 32.0629 184.045C35.1542 165.871 50.5652 153.889 51.8893 144.229C53.3042 133.906 43.8985 125.166 33.4827 124.916Z" fill="#D1D3D4"/>
<path d="M31.545 148.17C34.9429 148.17 37.6975 145.416 37.6975 142.018C37.6975 138.62 34.9429 135.865 31.545 135.865C28.1471 135.865 25.3926 138.62 25.3926 142.018C25.3926 145.416 28.1471 148.17 31.545 148.17Z" fill="white"/>
<path opacity="0.2" d="M36.2269 137.178C37.6942 137.892 38.8178 139.159 39.3506 140.701C39.8835 142.243 39.7818 143.934 39.068 145.402C38.7146 146.128 38.2215 146.778 37.617 147.314C37.0124 147.85 36.3082 148.261 35.5445 148.525C34.0023 149.058 32.3115 148.956 30.8442 148.243C32.2927 148.433 33.7615 148.101 34.9879 147.308C36.2142 146.514 37.1181 145.309 37.5376 143.91C37.9571 142.511 37.8649 141.008 37.2775 139.67C36.6902 138.333 35.6459 137.248 34.3317 136.61C34.99 136.696 35.63 136.887 36.2269 137.178Z" fill="#231F20"/>
<path d="M143.825 135.231L152.369 132.356L157.127 155.613L151.337 157.56L143.825 135.231Z" fill="#FFB6B6"/>
<path d="M148.706 161.494L152.512 160.997L152.722 157.314L154.932 160.681L165.028 159.362C165.512 159.299 165.963 159.082 166.315 158.745C166.668 158.407 166.903 157.965 166.987 157.485C167.07 157.004 166.998 156.509 166.78 156.072C166.563 155.635 166.211 155.279 165.777 155.056L156.987 150.541L156.513 146.908L148.099 148.522L148.706 161.494Z" fill="#2F2E41"/>
<path d="M129.344 133.444L137.819 130.371L143.117 153.51L137.375 155.592L129.344 133.444Z" fill="#FFB6B6"/>
<path d="M138.652 161.527L142.105 159.85L141.138 156.291L144.3 158.784L153.459 154.337C153.898 154.124 154.258 153.776 154.485 153.344C154.712 152.912 154.796 152.419 154.723 151.936C154.65 151.454 154.425 151.007 154.08 150.661C153.735 150.316 153.289 150.09 152.807 150.016L143.04 148.516L141.439 145.22L133.969 149.415L138.652 161.527Z" fill="#2F2E41"/>
<path opacity="0.2" d="M51.9151 144.246C50.591 153.907 35.18 165.889 32.0887 184.063C31.0792 183.265 30.13 182.394 29.249 181.456C33.0118 164.297 47.44 152.795 48.7194 143.462C49.8644 135.108 43.9222 127.792 36.0935 125.172C45.4209 126.658 53.2117 134.787 51.9151 144.246Z" fill="#231F20"/>
<path d="M117.451 116.245L116.073 121.326H43.2532L45.6061 117.096L117.451 116.245Z" fill="#CCCCCC"/>
<path d="M268.439 84.0181L258.549 82.6016C255.204 88.1946 254.015 103.081 254.015 103.081L244.336 126.086C243.695 126.522 243.18 127.118 242.843 127.816C242.506 128.513 242.359 129.288 242.416 130.06C242.473 130.833 242.733 131.577 243.169 132.218C243.605 132.858 244.202 133.372 244.9 133.709C245.598 134.045 246.373 134.192 247.145 134.134C247.918 134.075 248.662 133.815 249.302 133.378C249.942 132.941 250.455 132.343 250.791 131.645C251.126 130.946 251.272 130.172 251.213 129.399L267.104 102.623L268.439 84.0181Z" fill="#FFB8B8"/>
<path d="M306.36 111.696L264.082 116.113L258.426 135.161L238.841 166.636L260.466 206.367L268.081 199.532L260.771 167.448L282.59 143.893L286.728 142.176L290.012 229.585L302.159 229.784L307.475 133.334C310.029 124.814 309.26 117.779 306.36 111.696Z" fill="#2F2E41"/>
<path d="M266.864 56.5617C268.395 56.7987 269.855 57.3703 271.14 58.2356C272.424 59.1009 273.503 60.2387 274.298 61.5682C275.093 62.8976 275.585 64.3859 275.74 65.9271C275.894 67.4684 275.707 69.0248 275.192 70.4856L273.093 76.4342C273.093 76.4342 271.95 94.3456 267.593 99.4016L254.224 98.1914C254.224 98.1914 256.668 89.1548 254.792 84.7826C253.643 82.105 253.706 72.8568 254.839 65.3336C255.051 63.9674 255.531 62.6564 256.25 61.4758C256.97 60.2952 257.915 59.2681 259.032 58.4533C260.149 57.6385 261.416 57.0521 262.76 56.7275C264.104 56.4029 265.499 56.3465 266.864 56.5617Z" fill="#E6E6E6"/>
<path d="M290.86 51.3954L283.92 43.5815L272.955 44.7999L265.935 54.6247C262.198 55.4837 258.932 57.7423 256.81 60.9357C254.688 64.1291 253.87 68.0144 254.525 71.7923C257.249 87.4794 266.508 102.694 263.451 110.434C258.81 122.183 258.527 126.975 269.635 125.328C280.743 123.681 317.958 119.883 310.743 112.668C303.528 105.453 301.943 93.3965 301.943 93.3965L301.654 65.8129C301.96 64.1492 301.92 62.4401 301.534 60.793C301.148 59.1459 300.425 57.5965 299.411 56.2423C298.397 54.8881 297.114 53.7584 295.642 52.9242C294.171 52.0901 292.542 51.5695 290.86 51.3954L290.86 51.3954Z" fill="#E6E6E6"/>
<path d="M282.426 129.787H278.386V98.6941H281.672C281.831 98.6941 281.983 98.7571 282.096 98.8693C282.209 98.9816 282.273 99.1339 282.274 99.293L282.426 129.787Z" fill="#3F3D56"/>
<path d="M278.764 129.951H235.38V107.808H278.764V129.951Z" fill="white"/>
<path d="M261.664 129.869H235.462V107.89H278.681V112.852C278.676 117.363 276.882 121.689 273.691 124.879C270.501 128.069 266.176 129.864 261.664 129.869Z" fill="#22BB9C"/>
<path d="M281.768 99.5773C281.746 99.6185 281.729 99.6622 281.717 99.7073L280.221 105.474L278.599 108.547H235.544V107.781L237.996 105.474L240.855 100.004C240.981 99.7627 241.147 99.5441 241.346 99.3573C241.798 98.9313 242.397 98.6941 243.018 98.6941H281.236C281.339 98.6941 281.441 98.7209 281.532 98.7719C281.622 98.823 281.698 98.8965 281.751 98.9853C281.805 99.0742 281.834 99.1754 281.837 99.2791C281.84 99.3828 281.816 99.4855 281.768 99.5773Z" fill="#3F3D56"/>
<path d="M278.764 129.951H235.38V107.808H278.764V129.951ZM235.709 129.622H278.434V108.137H235.709V129.622Z" fill="#3F3D56"/>
<path d="M243.896 122.091H236.98V122.473H243.896V122.091Z" fill="white"/>
<path d="M243.896 120.751H236.98V121.134H243.896V120.751Z" fill="white"/>
<path d="M243.896 119.412H236.98V119.794H243.896V119.412Z" fill="white"/>
<path d="M239.658 115.148C241.032 115.148 242.146 114.035 242.146 112.661C242.146 111.287 241.032 110.173 239.658 110.173C238.285 110.173 237.171 111.287 237.171 112.661C237.171 114.035 238.285 115.148 239.658 115.148Z" fill="white"/>
<path d="M281.02 102.527L280.222 105.474H237.996L239.36 103.021L281.02 102.527Z" fill="#22BB9C"/>
<path d="M238.325 91.8614C240.727 91.8614 242.674 89.9143 242.674 87.5125C242.674 85.1107 240.727 83.1636 238.325 83.1636C235.923 83.1636 233.976 85.1107 233.976 87.5125C233.976 89.9143 235.923 91.8614 238.325 91.8614Z" fill="#22BB9C"/>
<path d="M299.304 81.1753L289.414 79.7588C286.069 85.3518 284.88 100.239 284.88 100.239L275.201 123.243C274.56 123.679 274.045 124.275 273.708 124.973C273.371 125.671 273.224 126.445 273.281 127.218C273.338 127.99 273.598 128.734 274.034 129.375C274.47 130.015 275.067 130.53 275.765 130.866C276.463 131.202 277.238 131.349 278.01 131.291C278.783 131.233 279.527 130.972 280.167 130.535C280.807 130.098 281.32 129.5 281.656 128.802C281.991 128.103 282.137 127.329 282.078 126.556L297.969 99.7798L299.304 81.1753Z" fill="#FFB8B8"/>
<path d="M293.943 53.7189C295.474 53.9559 296.934 54.5274 298.218 55.3928C299.503 56.2581 300.582 57.3959 301.377 58.7253C302.172 60.0547 302.664 61.543 302.818 63.0843C302.973 64.6256 302.786 66.182 302.27 67.6428L300.172 73.5914C300.172 73.5914 302.815 91.5028 298.458 96.5588L285.089 95.3485C285.089 95.3485 287.533 86.312 285.657 81.9398C284.508 79.2621 284.571 70.014 285.704 62.4908C286.569 56.7461 288.202 52.8298 293.943 53.7189Z" fill="#E6E6E6"/>
<path d="M105.053 44.7527C103.648 44.8447 102.333 45.4816 101.39 46.5279C100.447 47.5741 99.9487 48.9473 100.002 50.355C100.018 50.641 100.057 50.9252 100.119 51.2047L84.1555 61.2617L92.981 65.1649L106.787 55.0163C107.926 54.6683 108.918 53.9529 109.608 52.9819C110.298 52.0109 110.647 50.8388 110.6 49.6487C110.567 48.9717 110.402 48.3078 110.112 47.6949C109.823 47.0821 109.415 46.5322 108.913 46.0767C108.411 45.6213 107.825 45.2692 107.187 45.0405C106.549 44.8118 105.872 44.711 105.195 44.7439C105.148 44.7462 105.1 44.7491 105.053 44.7527Z" fill="#FFB6B6"/>
<path d="M209.964 24.0828C205.132 26.4926 201.456 30.7232 199.743 35.844C198.03 40.9647 198.422 46.5561 200.832 51.3881C205.85 61.4502 223.984 78.611 238.452 81.2039C232.229 62.3069 240.882 43.0989 237.27 33.2155C233.41 22.6548 220.027 19.0646 209.964 24.0828Z" fill="#22BB9C"/>
<path d="M216.747 48.0137C220.414 48.0137 223.387 45.041 223.387 41.3739C223.387 37.7069 220.414 34.7341 216.747 34.7341C213.08 34.7341 210.107 37.7069 210.107 41.3739C210.107 45.041 213.08 48.0137 216.747 48.0137Z" fill="white"/>
<path opacity="0.2" d="M218.771 34.3944C219.642 34.3641 220.512 34.5059 221.329 34.8118C222.146 35.1176 222.895 35.5815 223.532 36.1769C224.17 36.7722 224.684 37.4874 225.045 38.2816C225.406 39.0757 225.607 39.9332 225.637 40.8051C225.666 41.6771 225.524 42.5462 225.217 43.363C224.911 44.1798 224.446 44.9281 223.85 45.5653C223.255 46.2025 222.539 46.716 221.744 47.0764C220.95 47.4369 220.092 47.6373 219.22 47.6661C220.698 47.1165 221.932 46.0589 222.701 44.6827C223.47 43.3065 223.725 41.7015 223.419 40.1549C223.113 38.6083 222.266 37.2211 221.031 36.2416C219.795 35.2621 218.252 34.7542 216.676 34.8089C217.347 34.5586 218.055 34.4186 218.771 34.3944Z" fill="#231F20"/>
<path d="M89.6596 56.6906L93.6159 64.8537L77.9728 74.9202C76.8598 75.6426 75.5805 76.0684 74.2565 76.1571C72.9325 76.2458 71.6078 75.9944 70.4083 75.4269C68.95 74.7289 67.7581 73.5758 67.0123 72.1414C66.2664 70.7069 66.007 69.069 66.2731 67.4743L71.349 38.4961C71.6898 36.4682 72.7946 34.648 74.4364 33.4098C76.0781 32.1717 78.1319 31.6097 80.1753 31.8394C81.1706 31.9483 82.1348 32.2521 83.0127 32.7335C83.8906 33.2149 84.665 33.8646 85.2919 34.6453C85.9187 35.4261 86.3856 36.3226 86.6659 37.2838C86.9463 38.245 87.0346 39.252 86.9257 40.2473C86.9171 40.3259 86.9073 40.4044 86.8963 40.4828C86.8579 40.7612 86.8045 41.0374 86.7364 41.3101L81.1952 61.9188L89.6596 56.6906Z" fill="#22BB9C"/>
<path d="M90.7713 69.3455H68.3999V91.7169H90.7713V69.3455Z" fill="#FFB8B8"/>
<path d="M69.2023 97.5614C64.7184 127.454 124.43 109.781 124.43 109.781L143.152 135.608L154.112 133.615C154.112 133.615 149.18 118.111 140.373 97.3258C136.461 88.0954 92.046 90.3508 92.046 90.3508L91.1237 83.1132L65.7148 82.615L69.2023 97.5614Z" fill="#2F2E41"/>
<path d="M112.335 111.785L126.142 103.186C136.25 123.37 139.23 132.111 139.23 132.111L129.674 134.799L112.335 111.785Z" fill="#2F2E41"/>
<path d="M81.9826 32.9919L77.4797 27.2038L71.0564 26.9253L70.4153 32.3691L67.2326 33.8367C64.0546 45.9101 63.5638 58.5337 65.7948 70.8174C66.2213 71.219 66.533 71.7271 66.6976 72.2894C66.8623 72.8516 66.8739 73.4476 66.7314 74.0159L66.5251 74.8385L66.5441 74.8686C67.2214 75.9372 67.4511 77.2293 67.1839 78.4659L65.6639 81.1667C65.1185 82.138 64.7912 83.2164 64.7047 84.3269C64.6182 85.4375 64.7747 86.5536 65.1632 87.5976C65.5517 88.6415 66.163 89.5884 66.9545 90.3722C67.746 91.156 68.6988 91.758 69.7465 92.1363C79.0894 95.5228 87.8476 96.7842 94.3269 87.2812L96.3642 54.1648L81.9826 32.9919Z" fill="#22BB9C"/>
<path d="M86.5208 82.3304H90.7553V49.7397H87.3114C87.1446 49.7397 86.9846 49.8058 86.8664 49.9234C86.7481 50.0411 86.6813 50.2008 86.6805 50.3676L86.5208 82.3304Z" fill="#CCCCCC"/>
<path d="M90.3594 59.293H135.833V82.5031H90.3594V59.293Z" fill="white"/>
<path d="M90.4458 64.5795V59.3792H135.747V82.4167H108.283C103.554 82.4113 99.02 80.5303 95.6761 77.1864C92.3321 73.8424 90.4512 69.3086 90.4458 64.5795Z" fill="#F2F2F2"/>
<path d="M87.2103 50.6655C87.2331 50.7087 87.2509 50.7544 87.2631 50.8018L88.8312 56.8459L90.532 60.067H135.66V59.2648L133.091 56.8459L130.094 51.1129C129.962 50.8598 129.788 50.6306 129.58 50.4349C129.105 49.9884 128.478 49.7397 127.827 49.7397H87.7682C87.6594 49.7397 87.5525 49.7679 87.4578 49.8213C87.3632 49.8748 87.2839 49.9519 87.2278 50.045C87.1716 50.1382 87.1405 50.2443 87.1375 50.353C87.1344 50.4617 87.1595 50.5693 87.2103 50.6655Z" fill="#F2F2F2"/>
<path d="M90.3594 59.293H135.833V82.5031H90.3594V59.293ZM135.488 82.1579H90.7046V59.6382H135.488L135.488 82.1579Z" fill="#E6E6E6"/>
<path d="M134.156 74.2632H126.907V74.6643H134.156V74.2632Z" fill="white"/>
<path d="M134.156 72.8594H126.907V73.2605H134.156V72.8594Z" fill="white"/>
<path d="M134.156 71.4553H126.907V71.8565H134.156V71.4553Z" fill="white"/>
<path d="M112.923 66.8139C114.287 66.8139 115.392 65.7084 115.392 64.3447C115.392 62.981 114.287 61.8755 112.923 61.8755C111.56 61.8755 110.454 62.981 110.454 64.3447C110.454 65.7084 111.56 66.8139 112.923 66.8139Z" fill="#D1D3D4"/>
<path d="M131.348 66.9868C132.788 66.9868 133.956 65.8194 133.956 64.3794C133.956 62.9394 132.788 61.772 131.348 61.772C129.908 61.772 128.741 62.9394 128.741 64.3794C128.741 65.8194 129.908 66.9868 131.348 66.9868Z" fill="white"/>
<path d="M87.9934 53.7573L88.8313 56.846H133.091L131.661 54.2754L87.9934 53.7573Z" fill="#CCCCCC"/>
<path d="M110.314 24.9818C113.379 24.9083 116.348 26.0552 118.567 28.1703C120.786 30.2855 122.074 33.1955 122.148 36.2604C122.301 42.6426 117.757 56.0699 111.184 61.2128C109.29 50.0766 99.8471 42.7346 99.0357 36.8153C98.1688 30.4904 103.932 25.1351 110.314 24.9818Z" fill="#D1D3D4"/>
<path d="M111.502 39.2302C113.584 39.2302 115.271 37.5424 115.271 35.4603C115.271 33.3783 113.584 31.6904 111.502 31.6904C109.42 31.6904 107.732 33.3783 107.732 35.4603C107.732 37.5424 109.42 39.2302 111.502 39.2302Z" fill="white"/>
<path opacity="0.2" d="M108.633 32.4948C108.188 32.7114 107.789 33.0135 107.461 33.384C107.133 33.7544 106.88 34.1859 106.719 34.6538C106.557 35.1218 106.489 35.6169 106.519 36.1111C106.548 36.6053 106.675 37.0888 106.892 37.5339C107.108 37.9791 107.41 38.3773 107.781 38.7057C108.151 39.0341 108.583 39.2863 109.051 39.448C109.519 39.6097 110.014 39.6776 110.508 39.6479C111.002 39.6181 111.486 39.4914 111.931 39.2748C111.043 39.3913 110.143 39.1882 109.392 38.7018C108.64 38.2154 108.087 37.4774 107.83 36.62C107.573 35.7626 107.629 34.8416 107.989 34.022C108.349 33.2024 108.989 32.5377 109.794 32.1467C109.391 32.1994 108.998 32.3169 108.633 32.4948Z" fill="#231F20"/>
<path opacity="0.2" d="M99.0199 36.8261C99.8312 42.7453 109.274 50.0874 111.168 61.2236C111.787 60.7348 112.369 60.2009 112.908 59.6263C110.603 49.1121 101.762 42.0645 100.978 36.3455C100.276 31.2268 103.917 26.7437 108.714 25.1384C102.999 26.0488 98.2254 31.0299 99.0199 36.8261Z" fill="#231F20"/>
<path d="M103.599 56.3305C102.194 56.2264 100.804 56.6747 99.7241 57.5799C98.6447 58.4851 97.961 59.7758 97.8187 61.1774C97.7942 61.4627 97.7934 61.7496 97.8163 62.0351L80.6113 69.7786L88.8095 74.8692L103.891 66.7354C105.067 66.5488 106.149 65.9781 106.967 65.1123C107.785 64.2464 108.293 63.1342 108.412 61.9491C108.536 60.5859 108.114 59.2292 107.237 58.1775C106.361 57.1259 105.103 56.4654 103.74 56.3414C103.693 56.3371 103.646 56.3334 103.599 56.3305Z" fill="#FFB6B6"/>
<path opacity="0.2" d="M237.303 33.2194C240.916 43.1028 232.262 62.3108 238.486 81.2079C237.12 80.9564 235.775 80.6043 234.461 80.1544C229.391 61.8868 237.349 43.6332 233.859 34.084C230.735 25.5374 221.374 21.557 212.584 23.0091C222.232 19.7189 233.766 23.5415 237.303 33.2194Z" fill="#231F20"/>
<path d="M277.298 41.5821C284.021 41.5821 289.47 36.1325 289.47 29.41C289.47 22.6876 284.021 17.238 277.298 17.238C270.576 17.238 265.126 22.6876 265.126 29.41C265.126 36.1325 270.576 41.5821 277.298 41.5821Z" fill="#FFB8B8"/>
<path d="M292.296 28.6874C291.753 31.1536 290.772 33.5026 289.401 35.6234C289.037 36.3465 288.494 36.9639 287.822 37.4163C287.482 37.6344 287.077 37.7264 286.676 37.6763C286.275 37.6263 285.905 37.4372 285.629 37.1422L285.333 36.9009C285.914 36.5431 286.432 36.0931 286.868 35.5685C287.084 35.3053 287.234 34.9944 287.305 34.6615C287.377 34.3287 287.368 33.9836 287.279 33.655C287.174 33.3308 286.948 33.0601 286.647 32.8995C286.346 32.739 285.995 32.7012 285.667 32.7941C284.955 33.0738 284.521 34.1046 283.776 33.9456C283.173 33.814 283.047 33.0189 283.047 32.3939C283.068 29.126 281.489 24.4819 280.267 24.6245C279.031 24.692 277.794 24.5264 276.62 24.1365C275.445 23.7458 274.205 23.5875 272.969 23.6704C272.881 23.6814 272.793 23.6978 272.7 23.7143C272.502 23.0934 272.229 22.4987 271.889 21.9433C271.927 22.6138 271.894 23.2865 271.79 23.95C270.806 24.3554 269.79 24.6764 268.752 24.9096C267.623 25.0686 265.139 28.4461 265.024 28.1007C264.826 27.4798 264.553 26.8851 264.212 26.3297C264.251 27.0002 264.218 27.6729 264.114 28.3364C264.108 28.3638 264.108 28.3858 264.103 28.4132C263.554 27.6839 263.22 26.7957 263.406 27.4756C261.57 23.3195 262.282 20.3422 265.172 16.8386C265.735 16.0852 266.48 15.4872 267.338 15.1004C267.767 14.9118 268.238 14.837 268.705 14.8831C269.171 14.9292 269.618 15.0947 270.002 15.3636C271.181 14.2831 272.627 13.5374 274.191 13.2039C275.755 12.8703 277.379 12.961 278.896 13.4665C281.906 14.5138 284.225 15.1279 284.686 18.2861C287.175 17.8858 289.736 19.3005 291.107 21.4114C292.472 23.5279 292.751 26.2145 292.296 28.6874Z" fill="#2F2E41"/>
<path d="M77.2654 28.7409C83.8245 28.7409 89.1417 23.4237 89.1417 16.8646C89.1417 10.3055 83.8245 4.98828 77.2654 4.98828C70.7064 4.98828 65.3892 10.3055 65.3892 16.8646C65.3892 23.4237 70.7064 28.7409 77.2654 28.7409Z" fill="#FFB8B8"/>
<path d="M71.3034 2.54792C66.2748 2.64453 62.2865 7.30891 62.3952 12.9661C58.6739 16.849 57.7725 35.9475 60.8818 41.0282C66.5698 41.6885 70.0295 27.6164 75.0176 29.6507L75.6748 26.5796L77.1644 30.5789C78.4321 31.1633 79.6902 31.8048 80.9387 32.5033C81.8359 28.3878 81.6135 24.3875 79.2019 20.9031C77.0595 17.8075 82.2732 14.1326 86.0018 14.652L85.9472 11.8089L86.8837 14.635C88.3371 15.7031 89.9449 15.3164 91.5936 14.5445C94.2671 0.649685 73.5683 -3.15012 71.3034 2.54792Z" fill="#2F2E41"/>
<path d="M86.6966 66.0158L89.4814 74.649L72.5924 82.4465C71.3898 83.0074 70.0638 83.2515 68.7403 83.1555C67.4168 83.0596 66.1399 82.6268 65.0308 81.8983C63.6835 81.0046 62.6632 79.6971 62.1237 78.1731C61.5842 76.649 61.5547 74.9909 62.0396 73.4486L71.089 45.4555C71.708 43.4946 73.0548 41.8454 74.8526 40.8471C76.6503 39.8488 78.7622 39.5774 80.754 40.0886C81.7245 40.3345 82.6371 40.7692 83.4397 41.3679C84.2422 41.9665 84.919 42.7174 85.4314 43.5776C85.9438 44.4378 86.2817 45.3905 86.4259 46.3813C86.5701 47.3721 86.5178 48.3816 86.2718 49.3521C86.2524 49.4288 86.2318 49.5052 86.21 49.5812C86.1333 49.8517 86.0421 50.1178 85.9368 50.3784L77.5883 70.0184L86.6966 66.0158Z" fill="#22BB9C"/>
</g>
<defs>
<clipPath id="clip0_1_3678">
<rect width="346.81" height="250" fill="white"/>
</clipPath>
</defs>
</svg>
