<svg width="83" height="80" viewBox="0 0 83 80" fill="none" xmlns="http://www.w3.org/2000/svg">
<circle cx="42.5" cy="40.5" r="31.5" fill="#4ADE80"/>
<circle cx="79.5" cy="12.5" r="3.5" fill="#4ADE80"/>
<circle cx="8.5" cy="4.5" r="4.5" fill="#4ADE80"/>
<circle cx="4" cy="59" r="2" fill="#4ADE80"/>
<circle cx="73" cy="71" r="1" fill="#4ADE80"/>
<path fill-rule="evenodd" clip-rule="evenodd" d="M47.7354 34.8986C47.7354 38.0804 45.1843 40.6317 42.0003 40.6317C38.8173 40.6317 36.2651 38.0804 36.2651 34.8986C36.2651 31.7168 38.8173 29.1666 42.0003 29.1666C45.1843 29.1666 47.7354 31.7168 47.7354 34.8986ZM41.9999 50.8334C37.3008 50.8334 33.3333 50.0696 33.3333 47.1229C33.3333 44.1751 37.3257 43.4384 41.9999 43.4384C46.7001 43.4384 50.6666 44.2022 50.6666 47.1489C50.6666 50.0967 46.6741 50.8334 41.9999 50.8334Z" fill="white"/>
<circle cx="47" cy="2" r="1" fill="#4ADE80"/>
<circle cx="27.5" cy="78.5" r="1.5" fill="#4ADE80"/>
<circle cx="54.5" cy="76.5" r="0.5" fill="#4ADE80"/>
<circle cx="76" cy="49" r="1" fill="#4ADE80"/>
<circle cx="0.5" cy="33.5" r="0.5" fill="#4ADE80"/>
</svg>
