<svg width="32" height="32" viewBox="0 0 32 32" fill="none" xmlns="http://www.w3.org/2000/svg">
<rect width="32" height="32" rx="12" fill="url(#paint0_linear_84_1003)"/>
<path d="M22.4191 10.3714C22.4191 8.56818 11.3258 4.85225 9.44054 10.3714C7.55526 15.8906 13.3478 17.7759 14.632 17.2296C15.1686 17.0012 14.9275 16.749 14.6025 16.4091C14.1498 15.9356 13.5346 15.292 14.632 14.306C15.4594 13.5624 17.0608 13.061 18.5972 12.5799C20.5612 11.9649 22.4191 11.3832 22.4191 10.3714Z" fill="white"/>
<path d="M9.06665 21.6286C9.06665 23.4318 20.1599 27.1478 22.0452 21.6286C23.9305 16.1094 18.1379 14.2241 16.8538 14.7705C16.3171 14.9988 16.5583 15.251 16.8832 15.591C17.3359 16.0644 17.9512 16.708 16.8538 17.694C16.0263 18.4376 14.4249 18.939 12.8885 19.4201C10.9245 20.0351 9.06665 20.6168 9.06665 21.6286Z" fill="white"/>
<defs>
<linearGradient id="paint0_linear_84_1003" x1="32" y1="32" x2="-6.07713" y2="20.9599" gradientUnits="userSpaceOnUse">
<stop stop-color="#22BB9C"/>
<stop offset="1" stop-color="#35DEBC"/>
</linearGradient>
</defs>
</svg>
