<svg width="238" height="201" viewBox="0 0 238 201" fill="none" xmlns="http://www.w3.org/2000/svg">
<g clip-path="url(#clip0_1_3497)">
<path d="M193.055 97.0272C193.055 99.8376 192.937 102.619 192.7 105.373C192.514 107.522 192.26 109.652 191.939 111.763C191.597 113.997 191.178 116.205 190.682 118.386V118.389C190.357 119.824 190.001 121.248 189.613 122.66C188.488 126.764 187.088 130.789 185.423 134.706C185.061 135.558 184.687 136.404 184.302 137.244C182.843 140.427 181.21 143.527 179.41 146.53C174.362 154.963 168.06 162.579 160.721 169.116C159.926 169.822 159.121 170.517 158.305 171.2C140.977 185.675 119.106 193.589 96.5273 193.555C43.2161 193.555 0 150.338 0 97.0272C0 43.716 43.2161 0.499875 96.5273 0.499875C118.329 0.4655 139.494 7.84498 156.548 21.4267C157.347 22.0602 158.136 22.7079 158.916 23.3698C162.718 26.5949 166.267 30.1077 169.531 33.8772H169.534C184.735 51.4006 193.089 73.829 193.055 97.0272Z" fill="#F2F2F2"/>
<path d="M28.4948 113.701C19.2994 108.228 12.3591 98.0003 13.2601 87.3376C21.667 95.3838 32.6488 100.197 44.2628 100.926C48.7428 101.19 53.7532 101.018 57.051 104.062C59.1031 105.956 60.0582 108.808 60.2149 111.596C60.3716 114.384 59.8131 117.157 59.2574 119.894L59.4487 120.564C48.748 120.604 37.6901 119.174 28.4948 113.701Z" fill="#E6E6E6"/>
<path d="M13.4843 87.3263C17.1686 95.3808 23.2972 102.07 30.9995 106.443C32.6554 107.37 34.4157 108.166 36.2864 108.535C38.1127 108.881 39.9982 108.732 41.7471 108.102C43.3896 107.549 45.0056 106.792 46.7541 106.647C48.5972 106.494 50.3035 107.205 51.6441 108.45C53.2843 109.974 54.2792 111.996 55.1834 114.008C56.1873 116.241 57.1947 118.577 59.1196 120.183C59.3528 120.378 59.0372 120.728 58.8044 120.534C55.4555 117.739 54.9088 113.06 52.2319 109.769C50.9828 108.233 49.2633 107.065 47.2207 107.096C45.4345 107.123 43.7674 107.902 42.1092 108.477C40.368 109.081 38.6238 109.365 36.7856 109.099C34.9052 108.827 33.11 108.098 31.4377 107.218C27.6606 105.193 24.2252 102.587 21.2576 99.4948C17.8511 95.9848 15.0701 91.9179 13.035 87.4701C12.9092 87.1947 13.3593 87.0527 13.4843 87.3263H13.4843Z" fill="white"/>
<path d="M28.4366 105.181C27.5275 106.373 26.224 107.204 24.7589 107.524C23.2939 107.845 21.7626 107.634 20.4387 106.929C20.1713 106.786 20.3817 106.364 20.6494 106.507C21.881 107.165 23.3074 107.362 24.6711 107.061C26.0347 106.76 27.2458 105.981 28.0858 104.865C28.2687 104.623 28.6184 104.94 28.4366 105.181L28.4366 105.181Z" fill="white"/>
<path d="M40.9514 108.493C40.5688 105.451 39.0538 102.666 36.7085 100.691C36.4759 100.496 36.7914 100.145 37.0237 100.34C39.4604 102.399 41.0311 105.302 41.4223 108.468C41.4594 108.77 40.9883 108.793 40.9514 108.493V108.493Z" fill="white"/>
<path d="M18.436 95.7634C18.884 95.3753 19.2285 94.8819 19.4386 94.3277C19.6487 93.7735 19.7179 93.1758 19.64 92.5882C19.5991 92.287 20.0703 92.2638 20.1109 92.563C20.1941 93.2126 20.1168 93.8727 19.886 94.4855C19.6552 95.0983 19.2778 95.6453 18.7868 96.0787C18.744 96.1234 18.6857 96.1501 18.6238 96.1534C18.562 96.1568 18.5012 96.1364 18.4538 96.0965C18.4076 96.0545 18.3798 95.996 18.3764 95.9336C18.3731 95.8713 18.3945 95.8101 18.436 95.7635V95.7634Z" fill="white"/>
<path d="M43.0248 66.6804C43.0557 66.8678 43.0866 67.0551 43.121 67.2442C43.5492 69.7607 44.1811 72.2382 45.0106 74.6523C45.0717 74.84 45.1365 75.0293 45.203 75.2148C47.2632 81.0096 50.3815 86.3716 54.3991 91.0282C55.9995 92.8797 57.7385 94.6067 59.601 96.1944C62.1732 98.3868 65.1366 100.559 66.7858 103.39C66.9612 103.684 67.1182 103.988 67.256 104.3L60.2516 120.279C60.2175 120.307 60.1869 120.337 60.1527 120.366L59.9022 121.016C59.8004 120.941 59.6964 120.861 59.5947 120.786C59.5355 120.743 59.4778 120.696 59.4186 120.652C59.3796 120.622 59.3407 120.592 59.3038 120.567C59.2908 120.557 59.2778 120.547 59.2684 120.539C59.2315 120.514 59.1999 120.487 59.1667 120.464C58.5844 120.017 58.0043 119.566 57.4263 119.11C57.4227 119.108 57.4227 119.108 57.4206 119.103C53.0255 115.616 48.883 111.731 45.4617 107.341C45.3588 107.209 45.2522 107.076 45.1525 106.936C43.6213 104.949 42.2551 102.84 41.0676 100.63C40.4212 99.4179 39.8366 98.1737 39.316 96.9025C37.9773 93.6151 37.1639 90.1377 36.9058 86.5976C36.3922 79.5403 38.1414 72.3974 42.6745 67.0831C42.7906 66.9472 42.9051 66.8147 43.0248 66.6804Z" fill="#E6E6E6"/>
<path d="M43.2118 66.8052C41.3042 75.4545 42.1703 84.4851 45.6873 92.6141C46.4513 94.3511 47.3776 96.0466 48.6489 97.4677C49.8987 98.8435 51.4942 99.8594 53.2694 100.41C54.9144 100.957 56.6603 101.325 58.1437 102.262C59.7073 103.25 60.6416 104.845 60.9621 106.646C61.3543 108.851 60.9311 111.064 60.4421 113.215C59.899 115.602 59.2972 118.074 59.8671 120.515C59.9361 120.811 59.4731 120.901 59.4042 120.605C58.4126 116.358 60.7936 112.292 60.6376 108.053C60.5647 106.075 59.8954 104.107 58.2459 102.902C56.8034 101.848 55.0034 101.466 53.333 100.927C51.5792 100.361 50.0157 99.5373 48.708 98.2184C47.3703 96.8693 46.3758 95.2064 45.5707 93.4966C43.7739 89.6058 42.6 85.4566 42.0921 81.2012C41.4855 76.3476 41.7136 71.4261 42.7666 66.6495C42.8318 66.3539 43.2767 66.5115 43.2118 66.8052Z" fill="white"/>
<path d="M44.4008 90.0633C42.9568 90.4682 41.4159 90.3467 40.0533 89.7203C38.6907 89.094 37.595 88.0037 36.9621 86.6442C36.8349 86.3687 37.2571 86.1582 37.3844 86.4341C37.9715 87.7012 38.9922 88.7167 40.2623 89.2973C41.5323 89.8779 42.9681 89.9854 44.3105 89.6004C44.6023 89.5171 44.6909 89.9804 44.4008 90.0633H44.4008Z" fill="white"/>
<path d="M52.399 100.243C53.9247 97.5836 54.3923 94.4472 53.7083 91.4589C53.6403 91.1628 54.1033 91.0729 54.1712 91.3686C54.8772 94.4797 54.384 97.7426 52.7901 100.506C52.638 100.769 52.2477 100.504 52.399 100.243Z" fill="white"/>
<path d="M42.0857 76.523C42.6771 76.4828 43.2492 76.2963 43.7506 75.9803C44.2521 75.6643 44.6672 75.2287 44.9587 74.7126C45.1074 74.4475 45.4976 74.7127 45.3499 74.9761C45.0252 75.5448 44.5661 76.0253 44.0129 76.3756C43.4596 76.726 42.8289 76.9355 42.176 76.9859C42.1149 76.9958 42.0523 76.9821 42.0009 76.9475C41.9495 76.9129 41.9132 76.86 41.8994 76.7996C41.8878 76.7383 41.9008 76.6748 41.9357 76.623C41.9706 76.5712 42.0245 76.5353 42.0857 76.523V76.523Z" fill="white"/>
<path d="M66.8653 22.8722L78.6799 161.176L55.0508 162.952V24.6318C57.8664 22.7687 61.9082 22.4772 66.8653 22.8722Z" fill="#CCCCCC"/>
<path d="M125.184 22.8722L113.369 161.176L136.998 162.952V24.6318C134.183 22.7687 130.141 22.4772 125.184 22.8722Z" fill="#CCCCCC"/>
<path d="M133.46 168.669H58.3373C57.1327 168.667 55.9778 168.188 55.1261 167.336C54.2743 166.485 53.7952 165.33 53.7938 164.125V26.6617C53.7952 25.4571 54.2743 24.3022 55.1261 23.4504C55.9779 22.5987 57.1327 22.1195 58.3373 22.1182H133.46C134.665 22.1195 135.82 22.5987 136.672 23.4504C137.523 24.3022 138.003 25.4571 138.004 26.6617V164.125C138.003 165.33 137.523 166.485 136.672 167.336C135.82 168.188 134.665 168.667 133.46 168.669ZM58.3373 23.6264C57.5326 23.6273 56.7611 23.9474 56.1921 24.5164C55.623 25.0854 55.303 25.8569 55.3021 26.6617V164.125C55.303 164.93 55.623 165.701 56.192 166.27C56.7611 166.84 57.5326 167.16 58.3373 167.161H133.46C134.265 167.16 135.037 166.84 135.606 166.27C136.175 165.701 136.495 164.93 136.496 164.125V26.6617C136.495 25.8569 136.175 25.0854 135.606 24.5164C135.037 23.9474 134.265 23.6273 133.46 23.6264L58.3373 23.6264Z" fill="#CCCCCC"/>
<path d="M137.25 44.9932H54.548V46.5014H137.25V44.9932Z" fill="#CCCCCC"/>
<path d="M137.25 70.1304H54.548V71.6386H137.25V70.1304Z" fill="#CCCCCC"/>
<path d="M81.3856 22.8723H79.8773V91.4972H81.3856V22.8723Z" fill="#CCCCCC"/>
<path d="M111.92 22.8723H110.412V91.4972H111.92V22.8723Z" fill="#CCCCCC"/>
<path d="M146.676 172.816H47.6352C45.8352 172.816 44.1089 172.101 42.836 170.828C41.5632 169.556 40.8481 167.829 40.8481 166.029C40.8481 164.229 41.5632 162.503 42.836 161.23C44.1089 159.957 45.8352 159.242 47.6352 159.242H146.676C148.476 159.242 150.203 159.957 151.476 161.23C152.748 162.503 153.463 164.229 153.463 166.029C153.463 167.829 152.748 169.556 151.476 170.828C150.203 172.101 148.476 172.816 146.676 172.816Z" fill="#CCCCCC"/>
<path d="M137.25 87.978H55.0508V93.0055H137.25V87.978Z" fill="#CCCCCC"/>
<path d="M81.6196 103.978L81.5153 103.928C75.9118 101.221 68.5738 101.223 57.7219 103.936L57.6061 103.965L57.5713 103.851C56.4233 100.087 55.1229 95.8236 57.5659 93.7261C57.6002 87.5711 62.9992 82.5732 69.6308 82.5732C76.261 82.5732 81.6592 87.5686 81.6954 93.7219C85.3297 96.5005 83.5977 100.607 81.6783 103.878L81.6196 103.978Z" fill="#2F2E41"/>
<path d="M116.061 90.7985C115.96 91.2972 115.752 91.7679 115.449 92.1773C115.147 92.5867 114.759 92.9249 114.312 93.1681C113.866 93.4113 113.371 93.5535 112.863 93.5848C112.355 93.6161 111.847 93.5356 111.373 93.3491L91.5707 113.249L89.804 107.07L109.472 88.5903C109.838 87.8159 110.475 87.2026 111.263 86.8667C112.051 86.5308 112.935 86.4956 113.747 86.7678C114.559 87.04 115.243 87.6006 115.67 88.3435C116.096 89.0864 116.235 89.9599 116.061 90.7985L116.061 90.7985Z" fill="#FFB6B6"/>
<path d="M67.1186 109.956C67.1186 109.956 65.322 114.028 69.7551 116.538C74.1883 119.049 89.6822 115.58 92.1962 115.096C94.7103 114.612 104.1 100.56 104.1 100.56L102.772 93.6682L90.3193 104.478L67.1186 109.956Z" fill="#47AC5F"/>
<path d="M63.8488 132.471L64.1002 137.247C64.1002 137.247 63.3583 141.478 63.9685 142.391C64.5741 143.299 81.0997 143.414 81.0997 143.414C81.0997 143.414 82.1916 137.528 83.1321 132.375L63.8488 132.471Z" fill="#FFB6B6"/>
<path d="M111.362 195.621L114.817 194.923L113.828 180.969L108.729 181.999L111.362 195.621Z" fill="#FFB6B6"/>
<path d="M116.311 177.461L119.523 176.017L115.356 162.665L110.616 164.797L116.311 177.461Z" fill="#FFB6B6"/>
<path d="M119.108 169.938L113.061 173.362L98.1464 149.396C87.6763 156.45 77.4379 159.828 67.1167 161.63C63.6271 162.252 60.0693 161.937 59.3994 158.385C59.3681 158.219 59.3431 158.052 59.3245 157.884C58.9124 154.005 63.7382 149.032 64.3516 144.286L77.5589 143.493L79.1875 145.581L94.4613 136.191C97.5329 134.302 101.573 135.324 103.485 138.472C103.586 138.638 103.679 138.809 103.766 138.983L119.108 169.938Z" fill="#2F2E41"/>
<path d="M115.407 186.06L108.487 186.704L95.9402 161.043C83.4983 163.183 71.7606 163.868 61.6079 161.28C58.1705 160.416 56.0693 156.866 56.9148 153.352C56.9543 153.188 57 153.025 57.0519 152.865C58.2669 149.157 61.4476 146.534 63.9535 142.457L82.2577 142.735L80.2133 149.789L97.9945 147.488C101.57 147.025 104.836 149.614 105.289 153.269C105.313 153.462 105.328 153.656 105.336 153.851L115.407 186.06Z" fill="#2F2E41"/>
<path d="M70.9959 100.33C75.1008 100.33 78.4284 97.002 78.4284 92.8971C78.4284 88.7923 75.1008 85.4646 70.9959 85.4646C66.891 85.4646 63.5634 88.7923 63.5634 92.8971C63.5634 97.002 66.891 100.33 70.9959 100.33Z" fill="#FFB6B6"/>
<path d="M66.6386 103.013L73.4535 103.815C73.7409 103.849 74.0106 103.971 74.225 104.165C74.4394 104.36 74.5878 104.616 74.6496 104.899L75.7334 109.858L82.4895 117.814C82.4895 117.814 84.9155 122.363 84.0058 127.519C83.096 132.674 82.6962 136.505 82.6962 136.505C82.6962 136.505 64.5732 143.3 63.9667 142.39C63.3602 141.48 63.1633 137.348 63.1633 137.348L60.7373 110.358C60.7373 110.358 63.4666 105.809 64.9829 105.809C65.9615 105.776 65.8359 103.574 66.6386 103.013Z" fill="#47AC5F"/>
<path d="M82.8804 138.164C83.8361 138.164 84.6108 137.234 84.6108 136.087C84.6108 134.941 83.8361 134.011 82.8804 134.011C81.9247 134.011 81.15 134.941 81.15 136.087C81.15 137.234 81.9247 138.164 82.8804 138.164Z" fill="#47AC5F"/>
<path d="M109.647 192.028L114.915 189.389L115.907 191.705L122.568 193.051C122.897 193.117 123.196 193.287 123.422 193.536C123.647 193.784 123.787 194.098 123.822 194.432C123.856 194.766 123.783 195.102 123.613 195.392C123.443 195.681 123.185 195.908 122.876 196.04L116.441 198.799L114.35 196.984L114.898 199.46L112.472 200.5L109.647 192.028Z" fill="#2F2E41"/>
<path d="M114.803 176.35L120.023 173.618L121.056 175.917L127.74 177.146C128.07 177.206 128.372 177.371 128.602 177.615C128.832 177.86 128.977 178.171 129.018 178.505C129.058 178.838 128.991 179.175 128.826 179.467C128.661 179.76 128.407 179.991 128.1 180.129L121.715 183L119.592 181.222L120.184 183.689L117.776 184.771L114.803 176.35Z" fill="#2F2E41"/>
<path d="M66.7494 90.5659C64.7858 90.5691 62.8693 89.9644 61.263 88.835L61.2094 88.7974V88.732C61.2115 86.8326 61.967 85.0117 63.3101 83.6686C64.6531 82.3255 66.4741 81.57 68.3735 81.5679H71.39C73.2894 81.57 75.1103 82.3255 76.4534 83.6686C77.7965 85.0117 78.552 86.8326 78.5541 88.732C78.5521 89.1667 78.3805 89.5835 78.0757 89.8936C77.771 90.2036 77.3573 90.3824 76.9226 90.392L66.9189 90.5644C66.8624 90.5654 66.8057 90.5659 66.7494 90.5659Z" fill="#2F2E41"/>
<path d="M79.0568 87.3561C80.0187 86.8008 80.1794 85.2785 79.4159 83.9559C78.6523 82.6334 77.2536 82.0115 76.2917 82.5668C75.3299 83.1221 75.1692 84.6444 75.9327 85.9669C76.6963 87.2894 78.095 87.9114 79.0568 87.3561Z" fill="#2F2E41"/>
<path d="M64.0139 85.8807C65.0938 84.8008 65.3325 83.2888 64.5472 82.5035C63.7618 81.7181 62.2498 81.9569 61.1699 83.0367C60.0901 84.1166 59.8514 85.6286 60.6367 86.4139C61.422 87.1993 62.9341 86.9605 64.0139 85.8807Z" fill="#2F2E41"/>
<path d="M129.794 153.838H122.375C122.208 153.837 122.042 153.873 121.89 153.944C121.738 154.014 121.604 154.116 121.496 154.244C121.222 154.194 120.94 154.209 120.674 154.289C120.407 154.369 120.163 154.51 119.962 154.703C119.761 154.895 119.608 155.132 119.517 155.395C119.425 155.657 119.397 155.938 119.435 156.214C119.472 156.489 119.575 156.752 119.734 156.98C119.893 157.208 120.104 157.396 120.349 157.527C120.595 157.658 120.868 157.729 121.146 157.734C121.424 157.739 121.699 157.678 121.949 157.556L122.565 159.555C122.638 159.792 122.785 159.999 122.984 160.147C123.183 160.294 123.425 160.373 123.673 160.373H128.496C128.744 160.373 128.985 160.294 129.185 160.147C129.384 159.999 129.531 159.792 129.604 159.555L130.902 155.338C130.955 155.164 130.967 154.981 130.936 154.802C130.906 154.623 130.834 154.454 130.726 154.308C130.618 154.162 130.478 154.044 130.316 153.962C130.154 153.88 129.975 153.838 129.794 153.838ZM121.183 157.231C120.849 157.231 120.53 157.099 120.294 156.863C120.058 156.627 119.926 156.308 119.926 155.974C119.926 155.641 120.058 155.321 120.294 155.086C120.53 154.85 120.849 154.717 121.183 154.717C121.206 154.717 121.227 154.723 121.25 154.724C121.2 154.927 121.206 155.139 121.267 155.338L121.798 157.063C121.611 157.172 121.399 157.23 121.183 157.231Z" fill="#3F3D56"/>
<path d="M96.6662 148.381C96.1596 148.428 95.6489 148.363 95.17 148.191C94.6912 148.019 94.2558 147.745 93.8947 147.386C93.5335 147.028 93.2553 146.595 93.0796 146.117C92.9039 145.64 92.8351 145.13 92.8779 144.623L68.1331 131.362L73.5453 127.897L96.8911 141.436C97.738 141.564 98.5083 141.999 99.0562 142.657C99.6041 143.315 99.8913 144.152 99.8636 145.008C99.8359 145.864 99.4951 146.681 98.9058 147.302C98.3165 147.924 97.5197 148.308 96.6662 148.381Z" fill="#FFB6B6"/>
<path d="M64.2718 106.993C64.2718 106.993 59.856 106.44 58.7227 111.408C57.5894 116.375 65.3579 130.222 66.5432 132.491C67.7285 134.761 83.8837 139.724 83.8837 139.724L90.1044 136.475L76.1757 127.647L64.2718 106.993Z" fill="#47AC5F"/>
<path d="M95.3962 86.4697H96.9044C97.6378 86.4697 98.3411 86.7611 98.8597 87.2796C99.3782 87.7982 99.6696 88.5015 99.6696 89.2348H92.6311C92.6311 88.5015 92.9224 87.7982 93.441 87.2796C93.9595 86.7611 94.6629 86.4697 95.3962 86.4697Z" fill="#CCCCCC"/>
<path d="M47.5703 34.8793C55.8226 34.8793 62.5124 28.1895 62.5124 19.9372C62.5124 11.6849 55.8226 4.99512 47.5703 4.99512C39.318 4.99512 32.6282 11.6849 32.6282 19.9372C32.6282 28.1895 39.318 34.8793 47.5703 34.8793Z" fill="#FF6584"/>
<path d="M93.3194 19.1583C89.365 15.01 84.7724 11.2257 79.3355 9.22593C77.8211 8.66652 76.2508 8.27191 74.6518 8.04892C74.639 8.04716 74.6268 8.04977 74.614 8.04873C74.588 8.04203 74.5616 8.03685 74.535 8.03322C72.2987 7.74832 70.0287 7.88536 67.8429 8.43724C66.774 8.70547 65.7312 9.06874 64.727 9.5227C63.7192 10.0143 62.7428 10.5677 61.8032 11.1797C59.8144 12.3701 57.6248 13.187 55.3422 13.59C54.1965 13.7963 53.0361 13.9102 51.8721 13.9306C50.8622 13.9508 49.9097 13.9859 48.9529 14.3508C47.9307 14.7352 47.0126 15.3531 46.2717 16.1553C45.5308 16.9576 44.9876 17.9219 44.6856 18.9713C44.6623 19.0647 44.6693 19.1632 44.7056 19.2524C44.7419 19.3416 44.8056 19.417 44.8876 19.4676C45.1464 19.653 45.3987 19.8633 45.6707 20.0285C45.9126 20.1392 46.171 20.2097 46.4357 20.2371C46.868 20.3283 47.301 20.4169 47.7344 20.5028C49.3313 20.8192 50.9349 21.0993 52.5451 21.3431C55.8032 21.8363 59.079 22.1837 62.3723 22.3854C68.9699 22.785 75.59 22.586 82.1517 21.7909C85.8393 21.3443 89.502 20.7107 93.1254 19.8928C93.1988 19.8714 93.2654 19.8314 93.3187 19.7766C93.3721 19.7219 93.4103 19.6543 93.4298 19.5803C93.4494 19.5064 93.4494 19.4288 93.4301 19.3548C93.4107 19.2809 93.3726 19.2132 93.3194 19.1583Z" fill="#E6E6E6"/>
<path d="M48.2794 29.1488C46.7649 28.5894 45.1946 28.1948 43.5957 27.9718C43.5828 27.97 43.5706 27.9726 43.5578 27.9716C43.5318 27.9649 43.5055 27.9597 43.4788 27.9561C41.2425 27.6712 38.9726 27.8082 36.7867 28.3601C35.7178 28.6283 34.675 28.9916 33.6708 29.4456C32.6631 29.9372 31.6866 30.4906 30.747 31.1025C28.7583 32.293 26.5686 33.1099 24.2861 33.5129C23.1404 33.7191 21.9799 33.833 20.816 33.8534C19.806 33.8737 18.8536 33.9088 17.8967 34.2736C16.8746 34.658 15.9564 35.276 15.2155 36.0782C14.4746 36.8804 13.9315 37.8447 13.6294 38.8941C13.6062 38.9876 13.6132 39.086 13.6495 39.1752C13.6858 39.2644 13.7495 39.3398 13.8314 39.3904C14.0903 39.5758 14.3426 39.7861 14.6145 39.9513C14.8565 40.062 15.1149 40.1325 15.3795 40.1599C15.8119 40.2512 16.2448 40.3397 16.6783 40.4256C18.2752 40.742 19.8787 41.0221 21.4889 41.2659C24.7471 41.7591 28.0228 42.1066 31.3162 42.3082C37.9137 42.7078 44.5339 42.5089 51.0955 41.7137C54.7832 41.2671 58.4458 40.6336 62.0693 39.8157C62.1427 39.7942 62.2092 39.7542 62.2626 39.6994C62.3159 39.6447 62.3542 39.5771 62.3737 39.5032C62.3932 39.4293 62.3933 39.3516 62.3739 39.2776C62.3546 39.2037 62.3164 39.136 62.2632 39.0811C58.3088 34.9329 53.7162 31.1486 48.2794 29.1488Z" fill="#E6E6E6"/>
<path d="M156.033 140.54L144.542 125.445L135.476 130.571L154.689 153.386L156.033 140.54Z" fill="#3F3D56"/>
<path d="M182.502 116.001C182.757 122.327 183.737 128.603 185.423 134.706C185.061 135.558 184.687 136.404 184.302 137.245C182.843 140.427 181.21 143.527 179.41 146.53C174.362 154.963 168.06 162.579 160.721 169.116C159.926 169.823 159.121 170.517 158.305 171.2C153.652 164.785 151.141 157.706 150.148 150.422C150.022 149.497 149.919 148.561 149.841 147.631V147.626C149.65 145.366 149.589 143.097 149.658 140.829C149.66 140.648 149.665 140.465 149.673 140.281C149.761 137.858 149.979 135.43 150.309 133.024V133.022C150.346 132.745 150.384 132.469 150.427 132.192C150.547 131.362 150.683 130.533 150.831 129.708C151.695 124.953 152.899 120.266 154.436 115.684V115.682C154.479 115.549 154.522 115.418 154.569 115.287C154.735 114.789 154.904 114.297 155.077 113.804C155.088 113.765 155.101 113.728 155.117 113.691C155.341 113.047 155.57 112.409 155.804 111.775C155.866 111.6 155.932 111.424 156 111.248C156.264 110.541 156.533 109.84 156.807 109.149C156.892 108.927 156.98 108.706 157.068 108.488C157.136 108.319 157.201 108.151 157.272 107.985V107.982C157.671 106.994 158.076 106.026 158.486 105.076C159.635 102.407 160.816 99.8956 161.967 97.5804L161.97 97.5779C166.748 87.993 171.092 81.769 171.092 81.769L187.404 87.0479C185.458 90.4992 183.952 95.5895 183.128 101.595C182.493 106.368 182.283 111.188 182.502 115.999L182.502 116.001Z" fill="#3F3D56"/>
<path d="M155.391 114.465C155.296 114.241 155.188 114.023 155.077 113.804C154.504 112.694 153.766 111.677 152.888 110.788C152.757 110.654 152.621 110.521 152.481 110.395C150.966 109.001 149.125 108.01 147.127 107.516C145.129 107.021 143.038 107.038 141.048 107.565L141.038 107.57L140.963 107.59L140.98 107.676C141.056 108.074 141.165 108.465 141.307 108.844C141.345 108.948 141.387 109.046 141.43 109.144C141.448 109.189 141.47 109.229 141.491 109.274C141.491 109.274 141.488 109.277 141.493 109.277C141.493 109.279 141.496 109.282 141.496 109.284C141.543 109.377 141.589 109.473 141.639 109.563C141.536 109.465 141.438 109.365 141.342 109.262C141.249 109.166 141.164 109.066 141.078 108.965C140.785 108.623 140.52 108.259 140.286 107.874L140.246 107.806L140.176 107.834C139.227 108.163 138.322 108.606 137.481 109.154L137.391 109.214C136.748 109.636 136.025 109.918 135.266 110.041C134.508 110.165 133.732 110.128 132.989 109.933C131.818 109.631 130.596 109.576 129.402 109.771C128.208 109.966 127.068 110.407 126.054 111.067C125.382 111.505 124.774 112.034 124.249 112.64C124.204 112.693 124.158 112.748 124.113 112.801C124.018 112.917 123.927 113.035 123.839 113.156C122.894 114.419 122.314 115.917 122.162 117.487L122.157 117.545L122.205 117.577C123.056 118.16 124.018 118.561 125.031 118.754C124.394 118.842 123.75 118.859 123.11 118.801H123.108C122.817 118.777 122.529 118.737 122.243 118.681L122.19 118.671H122.188L122.122 118.658L122.132 118.779C122.207 120.315 122.691 121.803 123.532 123.09L123.558 123.125C123.567 123.138 123.575 123.151 123.583 123.165C123.939 123.711 124.236 124.293 124.468 124.902C125.055 126.416 125.185 128.069 124.84 129.656C124.449 131.353 124.579 133.128 125.212 134.75C125.845 136.373 126.952 137.766 128.389 138.75C129.651 139.619 131.122 140.135 132.65 140.246C132.858 140.264 133.07 140.274 133.281 140.274C134.489 140.277 135.686 140.028 136.792 139.542L136.833 139.527L136.843 139.482C137.055 138.795 137.354 138.138 137.732 137.526C137.609 138.008 137.546 138.504 137.546 139.002V139.168L137.69 139.085C137.813 139.012 137.939 138.934 138.052 138.861C138.731 138.418 139.346 137.883 139.879 137.272C140.088 137.031 140.299 136.797 140.52 136.563L140.523 136.561C140.953 136.103 141.408 135.656 141.88 135.229C142.886 134.326 143.962 133.504 145.098 132.773C146.233 132.044 147.42 131.398 148.65 130.842H148.652C148.79 130.777 148.931 130.714 149.069 130.654C149.682 130.387 150.271 130.071 150.832 129.709C150.852 129.696 150.869 129.686 150.887 129.673C153.317 128.082 155.103 125.68 155.928 122.895C156.753 120.11 156.563 117.123 155.391 114.465L155.391 114.465Z" fill="#47AC5F"/>
<path opacity="0.15" d="M125.254 133.225C125.185 133.53 125.133 133.839 125.098 134.151C124.63 132.672 124.562 131.095 124.901 129.582C124.954 129.35 124.993 129.116 125.024 128.88C125.488 130.282 125.568 131.782 125.254 133.225Z" fill="black"/>
<path opacity="0.15" d="M125.444 122.321C124.699 122.424 123.944 122.428 123.199 122.331C123.003 121.963 122.835 121.581 122.694 121.189C123.524 121.749 124.46 122.134 125.444 122.321Z" fill="black"/>
<path opacity="0.15" d="M123.139 118.721C122.864 119.424 122.681 120.159 122.596 120.909C122.366 120.195 122.231 119.454 122.193 118.705L122.187 118.584L122.305 118.607C122.581 118.659 122.859 118.697 123.139 118.721Z" fill="black"/>
<path opacity="0.15" d="M126.118 110.992C127.132 110.332 128.271 109.89 129.465 109.694C130.658 109.499 131.879 109.554 133.05 109.857C133.793 110.053 134.57 110.091 135.328 109.967C136.087 109.844 136.811 109.561 137.454 109.139L137.545 109.079C138.385 108.53 139.29 108.086 140.238 107.756L140.31 107.731L140.35 107.797C140.725 108.417 141.179 108.985 141.701 109.487C141.384 108.896 141.162 108.259 141.043 107.599L141.026 107.512L141.112 107.49C142.978 106.996 144.935 106.95 146.822 107.356C148.71 107.762 150.474 108.609 151.972 109.827C153.47 111.045 154.659 112.6 155.441 114.365C156.224 116.13 156.578 118.055 156.475 119.983C156.079 118.411 155.375 116.934 154.404 115.636C153.433 114.338 152.214 113.246 150.818 112.423C149.422 111.6 147.876 111.062 146.27 110.84C144.665 110.619 143.031 110.718 141.464 111.133L141.378 111.155L141.395 111.242C141.514 111.902 141.736 112.54 142.054 113.13C141.531 112.628 141.077 112.06 140.702 111.44L140.663 111.374L140.59 111.399C139.642 111.729 138.737 112.173 137.897 112.722L137.806 112.782C137.164 113.204 136.44 113.487 135.681 113.61C134.922 113.734 134.146 113.696 133.402 113.5C131.456 112.995 129.395 113.181 127.571 114.025C125.747 114.87 124.272 116.321 123.398 118.132C123.009 117.945 122.631 117.734 122.268 117.501L122.219 117.47L122.225 117.412C122.35 116.118 122.765 114.869 123.439 113.757C124.113 112.646 125.029 111.701 126.118 110.992Z" fill="black"/>
<path d="M219.57 46.7627L219.331 46.6043L219.157 46.8306C217.815 48.5207 216.747 50.4115 215.993 52.4337C216.097 50.1041 216.504 47.798 217.204 45.5737L217.28 45.3399L217.063 45.2167C214.251 43.6241 211.254 42.3815 208.14 41.5165L207.8 41.426C205.413 40.7711 203.191 39.6204 201.279 38.049C199.367 36.4776 197.807 34.5208 196.702 32.3062C194.134 27.2236 190.077 23.0451 185.072 20.3282C180.067 17.6114 174.353 16.4854 168.692 17.1006H168.689C168.629 17.1057 168.566 17.1132 168.506 17.1207C168.403 17.1308 168.302 17.1434 168.201 17.1559C167.995 17.1836 167.794 17.2112 167.593 17.2414C167.422 17.2665 167.249 17.2942 167.078 17.3244C166.987 17.3369 166.899 17.352 166.811 17.3696C166.723 17.3847 166.633 17.3998 166.545 17.4174H166.542C164.855 17.7366 163.2 18.2121 161.6 18.8376H161.598V18.8401L161.193 18.9985C160.776 19.1694 160.362 19.3504 159.951 19.5415C159.858 19.5842 159.768 19.6294 159.675 19.6722C159.65 19.6847 159.622 19.6973 159.597 19.7124C159.333 19.8381 159.072 19.9688 158.813 20.107C158.775 20.1246 158.737 20.1448 158.7 20.1649L158.458 20.2931C157.928 20.5796 157.407 20.8838 156.895 21.2055C156.852 21.2307 156.812 21.2558 156.769 21.2835C156.724 21.3136 156.676 21.3438 156.631 21.374C156.603 21.389 156.575 21.4092 156.548 21.4268C156.47 21.4745 156.394 21.5248 156.319 21.5776C156.168 21.6756 156.017 21.7762 155.869 21.8792C155.716 21.9823 155.565 22.0904 155.414 22.1985L155.263 22.3066L155.291 22.4926C155.316 22.6459 155.339 22.7993 155.366 22.9501C155.391 23.1009 155.417 23.2492 155.444 23.3975C155.487 23.6464 155.535 23.8927 155.582 24.1315C155.615 24.2899 155.645 24.4457 155.681 24.5991C155.713 24.7575 155.748 24.9158 155.786 25.0742C155.859 25.401 155.937 25.7177 156.02 26.0294C156.06 26.1853 156.103 26.3411 156.148 26.4944C156.173 26.5874 156.198 26.6805 156.226 26.771C156.246 26.8338 156.266 26.8966 156.286 26.9595C156.291 26.9796 156.296 27.0022 156.304 27.0248C156.309 27.0461 156.316 27.0671 156.324 27.0877C156.352 27.1807 156.379 27.2712 156.407 27.3592C156.422 27.4069 156.437 27.4547 156.455 27.4999C156.49 27.608 156.528 27.7186 156.565 27.8242C156.606 27.9449 156.648 28.0655 156.691 28.1837C156.701 28.2138 156.711 28.2415 156.721 28.2717C156.729 28.2943 156.736 28.3169 156.746 28.3395C156.756 28.3647 156.766 28.3923 156.777 28.4174C156.819 28.5306 156.862 28.6462 156.907 28.7593C156.922 28.7995 156.937 28.8423 156.955 28.8825C157.362 29.9065 157.863 30.891 158.451 31.8236C157.8 31.2655 157.173 30.6739 156.57 30.0489C155.64 29.0824 154.783 28.048 154.006 26.9545C153.944 26.869 153.881 26.781 153.823 26.693C153.705 26.5246 153.589 26.3562 153.476 26.1853C153.355 26.0093 153.24 25.8258 153.127 25.6448C153.051 25.5241 152.976 25.401 152.903 25.2803C152.83 25.1647 152.762 25.0516 152.697 24.9359L152.501 24.5991H152.498V24.6016L152.222 24.8731C152.111 24.9812 152 25.0893 151.892 25.1973C148.514 28.5967 146.067 32.8081 144.786 37.4267L144.748 37.5649L144.711 37.7082C144.638 37.9646 144.565 38.2135 144.487 38.4673V38.4699C144.411 38.7212 144.331 38.9726 144.246 39.2189C144.168 39.4527 144.087 39.684 144.002 39.9152C143.974 39.9932 143.944 40.0711 143.911 40.149C143.858 40.2999 143.801 40.4482 143.743 40.599C143.715 40.6669 143.688 40.7372 143.66 40.8051C143.592 40.971 143.524 41.1369 143.456 41.3003C143.446 41.3255 143.434 41.3531 143.421 41.3782C143.401 41.4285 143.378 41.4788 143.358 41.5266C143.305 41.6472 143.25 41.7704 143.197 41.891C143.16 41.969 143.124 42.0494 143.089 42.1273C143.074 42.1625 143.057 42.1977 143.041 42.2329C142.948 42.434 142.853 42.6326 142.752 42.8287C142.639 43.0599 142.524 43.2912 142.4 43.5174C142.292 43.7286 142.179 43.9347 142.061 44.1408C141.858 44.5053 141.644 44.8673 141.423 45.2192C141.337 45.355 141.252 45.4907 141.164 45.6265C141.144 45.6591 141.124 45.6918 141.103 45.722C141.03 45.8401 140.955 45.9533 140.877 46.0689C140.824 46.1468 140.772 46.2247 140.719 46.3001C140.631 46.4359 140.538 46.5666 140.442 46.6948C140.417 46.735 140.39 46.7727 140.362 46.8104C140.221 47.0065 140.08 47.1975 139.937 47.3886C139.932 47.3911 139.932 47.3936 139.929 47.3961C139.924 47.3961 139.924 47.3986 139.922 47.4012C139.859 47.4841 139.796 47.5671 139.731 47.6475C139.645 47.7656 139.552 47.8813 139.459 47.9944C139.309 48.1854 139.15 48.379 138.989 48.5675C138.984 48.5726 138.982 48.5776 138.977 48.5801C138.144 49.5587 137.242 50.4761 136.277 51.3251C136.259 51.3402 136.247 51.3553 136.229 51.3678C136.094 51.486 135.958 51.6041 135.817 51.7198C135.759 51.7675 135.701 51.8153 135.644 51.863C135.548 51.9435 135.45 52.0239 135.354 52.0968C135.343 52.1084 135.331 52.1185 135.317 52.127C135.231 52.1974 135.148 52.2627 135.063 52.3281C134.96 52.411 134.857 52.489 134.751 52.5669C134.253 52.9439 133.742 53.3001 133.218 53.6352C133.14 53.688 133.057 53.7408 132.977 53.7911C132.929 53.8212 132.881 53.8514 132.836 53.8765C132.645 53.9947 132.454 54.1103 132.263 54.2209C132.072 54.334 131.875 54.4421 131.682 54.5477C131.267 54.7739 130.857 55.0102 130.458 55.2566C130.257 55.3823 130.056 55.508 129.857 55.6362C129.068 56.149 128.308 56.6978 127.577 57.2826C126.846 57.8679 126.146 58.4895 125.478 59.1453C125.395 59.2258 125.312 59.3087 125.229 59.3942C125.063 59.5576 124.902 59.7235 124.749 59.8894C124.503 60.1433 124.266 60.4047 124.033 60.6686C122.8 62.0674 121.709 63.5847 120.775 65.1984C120.306 66.0042 119.88 66.834 119.498 67.6845C119.209 68.3204 118.945 68.9715 118.706 69.6301C118.548 70.07 118.399 70.5141 118.261 70.9624C118.193 71.1861 118.128 71.4123 118.065 71.6386C117.851 72.4053 117.673 73.1795 117.527 73.9562C117.409 74.5796 117.313 75.2039 117.241 75.829C117.203 76.1432 117.173 76.4574 117.145 76.7691C117.08 77.5352 117.047 78.3021 117.046 79.0697C117.041 81.3726 117.321 83.6672 117.879 85.9015C118.002 86.3942 118.139 86.8844 118.289 87.372C118.364 87.6159 118.445 87.8572 118.525 88.0985C118.729 88.7018 118.954 89.2992 119.201 89.8908C119.35 90.2452 119.505 90.5971 119.669 90.9465C120.707 93.1678 122.032 95.2434 123.61 97.1203C123.869 97.4295 124.137 97.7336 124.412 98.0328C124.415 98.0328 124.412 98.0353 124.412 98.0353C125.096 98.7813 125.82 99.4896 126.582 100.157H126.584C126.888 100.426 127.197 100.686 127.512 100.939C127.514 100.936 127.514 100.939 127.514 100.939C127.831 101.195 128.15 101.441 128.477 101.68C128.64 101.798 128.806 101.916 128.975 102.035C129.304 102.268 129.64 102.494 129.983 102.711H129.985C130.327 102.932 130.674 103.143 131.026 103.344C131.732 103.749 132.456 104.129 133.2 104.473L133.326 104.531L133.454 104.473C134.647 103.936 135.877 103.485 137.134 103.123C137.411 103.043 137.69 102.97 137.966 102.899C138.665 102.726 139.369 102.58 140.078 102.462C139.387 102.808 138.72 103.201 138.082 103.636C137.587 103.97 137.099 104.335 136.609 104.737C136.445 104.87 136.282 105.008 136.119 105.149L135.711 105.501L136.222 105.669C136.408 105.73 136.594 105.79 136.78 105.845C137.034 105.926 137.285 105.999 137.531 106.067C138.069 106.217 138.611 106.351 139.155 106.466C139.288 106.494 139.419 106.522 139.552 106.549C139.811 106.6 140.073 106.65 140.334 106.695C140.345 106.698 140.356 106.699 140.367 106.7C140.638 106.745 140.912 106.788 141.184 106.826C141.689 106.899 142.194 106.957 142.7 106.999C142.755 107.007 142.81 107.009 142.868 107.012C142.991 107.022 143.112 107.032 143.235 107.039C143.507 107.057 143.781 107.07 144.055 107.08C144.075 107.08 144.092 107.082 144.112 107.082C144.251 107.087 144.389 107.092 144.527 107.095C144.527 107.095 144.527 107.097 144.53 107.095C144.668 107.097 144.806 107.1 144.944 107.1H145.709C145.852 107.1 145.995 107.102 146.141 107.102C146.342 107.102 146.546 107.105 146.747 107.107C146.8 107.107 146.855 107.11 146.91 107.11C147.232 107.115 147.554 107.122 147.875 107.13C147.896 107.13 147.916 107.132 147.936 107.132C148.257 107.143 148.579 107.153 148.901 107.168C148.971 107.17 149.042 107.173 149.115 107.178C149.424 107.19 149.733 107.205 150.042 107.223C150.13 107.228 150.221 107.236 150.311 107.241C150.545 107.253 150.781 107.268 151.015 107.286C151.153 107.293 151.289 107.303 151.427 107.316C151.985 107.359 152.541 107.406 153.099 107.462C153.285 107.477 153.471 107.497 153.657 107.517C154.155 107.57 154.654 107.628 155.155 107.691C155.379 107.716 155.603 107.746 155.826 107.776C155.851 107.778 155.877 107.781 155.902 107.786C156.178 107.824 156.452 107.861 156.729 107.902C156.91 107.927 157.091 107.954 157.272 107.982C157.458 108.01 157.644 108.037 157.83 108.07C157.93 108.085 158.031 108.103 158.134 108.12C158.375 108.158 158.619 108.198 158.863 108.244C158.885 108.246 158.907 108.249 158.928 108.254C159.446 108.344 159.966 108.44 160.484 108.543C160.788 108.6 161.09 108.661 161.392 108.724C161.628 108.771 161.864 108.822 162.101 108.872C162.141 108.88 162.181 108.89 162.221 108.9C162.23 108.902 162.24 108.904 162.249 108.905C162.606 108.983 162.965 109.063 163.322 109.148C164.562 109.435 165.799 109.753 167.035 110.104C167.319 110.182 167.603 110.265 167.887 110.348C168.008 110.383 168.126 110.418 168.244 110.453C168.491 110.526 168.734 110.599 168.981 110.677C169.197 110.742 169.416 110.81 169.632 110.88C169.768 110.923 169.903 110.966 170.039 111.011C170.25 111.077 170.461 111.144 170.67 111.217C170.848 111.273 171.024 111.33 171.2 111.393C171.452 111.476 171.706 111.562 171.957 111.652C172.03 111.677 172.105 111.702 172.178 111.73C172.485 111.836 172.792 111.944 173.098 112.057C173.397 112.165 173.696 112.276 173.993 112.386C174.199 112.464 174.405 112.54 174.609 112.62C174.838 112.708 175.066 112.796 175.293 112.886C175.619 113.015 175.949 113.145 176.276 113.279C176.577 113.399 176.876 113.522 177.178 113.651C177.233 113.673 177.291 113.696 177.346 113.721C177.608 113.829 177.869 113.942 178.128 114.055C178.297 114.126 178.462 114.199 178.628 114.271C179.352 114.588 180.075 114.916 180.798 115.254H180.8C181.253 115.468 181.713 115.672 182.175 115.865C182.283 115.91 182.391 115.956 182.502 115.998C182.686 116.076 182.872 116.149 183.058 116.225C183.178 116.272 183.299 116.32 183.422 116.365C183.601 116.436 183.782 116.504 183.963 116.569C184.154 116.639 184.342 116.71 184.536 116.775C184.604 116.8 184.671 116.823 184.742 116.848C184.966 116.923 185.189 116.999 185.415 117.072C185.438 117.079 185.461 117.087 185.486 117.094C185.722 117.17 185.958 117.245 186.197 117.316C186.216 117.323 186.235 117.329 186.255 117.333C186.511 117.411 186.773 117.487 187.032 117.559C187.414 117.665 187.799 117.766 188.183 117.859C188.254 117.876 188.324 117.894 188.394 117.909C188.6 117.959 188.804 118.007 189.01 118.052C189.229 118.102 189.45 118.148 189.669 118.193C189.89 118.238 190.111 118.283 190.33 118.324C190.448 118.346 190.566 118.369 190.682 118.389L190.991 118.442C191.205 118.479 191.418 118.512 191.634 118.547C191.64 118.547 191.646 118.548 191.652 118.55C191.896 118.588 192.137 118.623 192.381 118.653C192.615 118.686 192.849 118.713 193.082 118.741C193.13 118.746 193.18 118.751 193.231 118.756C193.424 118.779 193.618 118.801 193.811 118.819C193.867 118.824 193.922 118.829 193.977 118.834C194.168 118.852 194.359 118.869 194.55 118.882C194.589 118.887 194.627 118.889 194.666 118.889C194.837 118.904 195.008 118.917 195.179 118.924C195.3 118.934 195.418 118.939 195.538 118.947C195.601 118.95 195.661 118.952 195.724 118.955C195.89 118.965 196.056 118.97 196.225 118.975C196.428 118.982 196.632 118.987 196.833 118.992C197.077 118.997 197.323 119 197.567 119H197.572C197.811 119 198.052 118.997 198.291 118.992H198.381L198.645 118.985C198.781 118.982 198.917 118.977 199.05 118.972C199.306 118.962 199.56 118.95 199.814 118.934C199.915 118.929 200.018 118.922 200.118 118.917C200.164 118.914 200.211 118.909 200.257 118.907C200.415 118.897 200.571 118.887 200.729 118.874C200.893 118.862 201.059 118.846 201.222 118.829C201.433 118.809 201.644 118.786 201.855 118.764C202.021 118.746 202.187 118.726 202.351 118.706C202.373 118.704 202.394 118.7 202.416 118.696C202.574 118.678 202.733 118.658 202.888 118.635C203.075 118.61 203.258 118.583 203.442 118.555C203.462 118.552 203.479 118.55 203.499 118.547C203.816 118.497 204.135 118.447 204.455 118.389C204.789 118.329 205.123 118.263 205.455 118.195C205.578 118.17 205.699 118.143 205.822 118.118C205.89 118.102 205.96 118.09 206.026 118.075C206.129 118.052 206.229 118.03 206.33 118.004C206.347 118.002 206.368 117.997 206.385 117.994C206.526 117.964 206.664 117.929 206.805 117.894C207.086 117.826 207.363 117.756 207.639 117.68C207.763 117.65 207.886 117.617 208.004 117.585C208.039 117.575 208.074 117.564 208.107 117.554C208.617 117.411 209.123 117.259 209.625 117.099C209.847 117.029 210.065 116.956 210.284 116.878C210.754 116.717 211.22 116.548 211.682 116.37C211.805 116.325 211.928 116.275 212.051 116.227C212.232 116.154 212.413 116.081 212.592 116.008C212.752 115.941 212.913 115.873 213.077 115.802C213.157 115.77 213.238 115.734 213.318 115.699C213.559 115.594 213.801 115.486 214.039 115.378C214.2 115.302 214.359 115.229 214.517 115.154C214.768 115.033 215.017 114.91 215.266 114.787C215.329 114.754 215.389 114.721 215.45 114.691C215.608 114.611 215.766 114.528 215.927 114.447C216.181 114.312 216.435 114.176 216.686 114.035C216.772 113.99 216.855 113.942 216.94 113.894C217.217 113.739 217.491 113.58 217.762 113.419C218.363 113.06 218.955 112.685 219.539 112.293C219.685 112.198 219.831 112.097 219.974 111.999C220.246 111.813 220.512 111.622 220.779 111.431C220.806 111.411 220.832 111.391 220.859 111.373C220.992 111.275 221.126 111.177 221.259 111.077C221.535 110.868 221.809 110.657 222.083 110.441C222.088 110.438 222.096 110.431 222.103 110.425C222.227 110.327 222.35 110.229 222.47 110.131C222.845 109.827 223.215 109.518 223.577 109.199C223.755 109.045 223.931 108.887 224.104 108.729C224.235 108.611 224.366 108.492 224.494 108.372C224.753 108.128 225.007 107.887 225.258 107.64C225.384 107.52 225.507 107.394 225.633 107.268C225.756 107.143 225.882 107.017 226.005 106.889C226.048 106.846 226.09 106.801 226.133 106.755C226.259 106.622 226.384 106.486 226.51 106.353C226.618 106.238 226.724 106.117 226.832 105.996C227.013 105.795 227.196 105.594 227.375 105.39C227.384 105.379 227.394 105.368 227.405 105.358C227.415 105.345 227.425 105.335 227.433 105.325H227.43C231.084 101.1 233.799 96.1469 235.395 90.7939C236.991 85.4409 237.432 79.8099 236.689 74.2736C235.946 68.7373 234.036 63.422 231.084 58.6793C228.133 53.9367 224.208 49.8749 219.57 46.7627L219.57 46.7627Z" fill="#47AC5F"/>
<g opacity="0.15">
<path opacity="0.15" d="M168.69 17.0986C169.191 18.8986 169.944 20.6183 170.929 22.2065C169.281 20.7912 167.809 19.1836 166.544 17.418C167.255 17.2836 167.97 17.1772 168.69 17.0986Z" fill="black"/>
<path opacity="0.15" d="M144.161 44.935C142.301 45.9504 140.561 47.1732 138.976 48.58C141.653 45.4146 143.609 41.705 144.709 37.7082C144.723 37.6602 144.736 37.6119 144.749 37.5638L144.786 37.4278C146.109 32.6576 148.674 28.3242 152.22 24.8708L152.499 24.5991L152.696 24.9348C153.783 26.7834 155.084 28.4975 156.572 30.0419C154.292 36.4755 149.855 41.8301 144.161 44.935Z" fill="black"/>
<path opacity="0.15" d="M157.265 27.8126L157.227 27.9487C157.214 27.9968 157.201 28.0451 157.188 28.0931C157.114 28.3576 157.036 28.6202 156.956 28.8816C156.161 26.8219 155.602 24.6785 155.291 22.4926L155.262 22.3071L155.414 22.1981C157.327 20.8237 159.405 19.6943 161.599 18.8364C159.629 21.5453 158.161 24.5855 157.265 27.8126Z" fill="black"/>
<path opacity="0.15" d="M131.683 54.55C133.329 53.6488 134.87 52.567 136.277 51.3247C133.467 54.5972 131.452 58.4762 130.391 62.6576C129.33 66.8391 129.252 71.2094 130.162 75.4261C131.073 79.6429 132.947 83.5915 135.639 86.9626C138.331 90.3337 141.767 93.0356 145.677 94.8568L145.805 94.9155L145.931 94.8582C148.044 93.9039 150.271 93.2276 152.557 92.8462C151.13 93.5731 149.8 94.4762 148.598 95.5342L148.191 95.8859L148.701 96.0543C149.142 96.1999 149.582 96.3339 150.01 96.4528C152.526 97.1535 155.127 97.5015 157.738 97.4868C169.603 97.4108 181.561 100.154 193.278 105.64C195.287 106.579 197.371 107.35 199.509 107.943C208.824 110.536 218.767 109.603 227.437 105.323C222.549 110.976 216.158 115.126 209.006 117.292C201.853 119.457 194.233 119.55 187.03 117.558C184.893 116.965 182.809 116.194 180.799 115.255C169.082 109.769 157.125 107.026 145.26 107.102C142.648 107.117 140.047 106.769 137.532 106.068C137.104 105.949 136.663 105.815 136.223 105.669L135.713 105.501L136.119 105.149C137.321 104.091 138.652 103.188 140.079 102.461C137.792 102.843 135.565 103.519 133.453 104.473L133.326 104.53L133.199 104.472C128.503 102.286 124.506 98.8381 121.656 94.513C118.805 90.188 117.212 85.1559 117.055 79.9782C116.897 74.8006 118.182 69.6811 120.765 65.191C123.348 60.7009 127.128 57.0168 131.683 54.55L131.683 54.55Z" fill="black"/>
</g>
</g>
<defs>
<clipPath id="clip0_1_3497">
<rect width="237.045" height="200" fill="white" transform="translate(0 0.5)"/>
</clipPath>
</defs>
</svg>
