<svg width="42" height="32" viewBox="0 0 42 32" fill="none" xmlns="http://www.w3.org/2000/svg">
<g clip-path="url(#clip0_51_7705)">
<path d="M8.33753 31.841V29.723C8.33753 28.911 7.84349 28.3816 6.99669 28.3816C6.57336 28.3816 6.11469 28.5228 5.79711 28.9817C5.55026 28.5934 5.19749 28.3816 4.66826 28.3816C4.31533 28.3816 3.96272 28.4874 3.68035 28.8757V28.4522H2.93945V31.841H3.68035V29.97C3.68035 29.3701 3.99792 29.0875 4.49195 29.0875C4.98567 29.0875 5.23285 29.4053 5.23285 29.97V31.841H5.97374V29.97C5.97374 29.3701 6.32635 29.0875 6.78503 29.0875C7.27906 29.0875 7.52592 29.4053 7.52592 29.97V31.841H8.33753ZM19.3097 28.4522H18.1102V27.4285H17.3693V28.4522H16.699V29.1227H17.3692V30.6761C17.3692 31.4528 17.6868 31.9116 18.5336 31.9116C18.8511 31.9116 19.2037 31.8057 19.4509 31.6646L19.2391 31.0291C19.0274 31.1703 18.7806 31.2056 18.6041 31.2056C18.2513 31.2056 18.1102 30.9938 18.1102 30.6407V29.1227H19.3097V28.4522ZM25.5897 28.3814C25.1664 28.3814 24.8842 28.5934 24.7077 28.8757V28.4522H23.9668V31.841H24.7077V29.9348C24.7077 29.37 24.9546 29.0523 25.4133 29.0523C25.5544 29.0523 25.7308 29.0877 25.8719 29.1229L26.0836 28.417C25.9425 28.3816 25.7308 28.3816 25.5897 28.3816V28.3814ZM16.0992 28.7346C15.7463 28.4874 15.2524 28.3816 14.7232 28.3816C13.8765 28.3816 13.3121 28.8051 13.3121 29.4759C13.3121 30.0408 13.7354 30.3584 14.4763 30.4643L14.8291 30.4997C15.2172 30.5701 15.4289 30.6761 15.4289 30.8527C15.4289 31.0997 15.1467 31.2762 14.6526 31.2762C14.1588 31.2762 13.7706 31.0997 13.5236 30.9233L13.1708 31.488C13.559 31.7704 14.0882 31.9116 14.6173 31.9116C15.6052 31.9116 16.1698 31.4528 16.1698 30.8173C16.1698 30.2172 15.7111 29.8994 15.0054 29.7936L14.6526 29.7582C14.3351 29.7229 14.0882 29.6524 14.0882 29.4406C14.0882 29.1935 14.3351 29.0523 14.7232 29.0523C15.1467 29.0523 15.57 29.2287 15.7817 29.3347L16.0992 28.7346ZM35.7859 28.3816C35.3624 28.3816 35.0802 28.5934 34.9038 28.8757V28.4522H34.1629V31.841H34.9038V29.9348C34.9038 29.37 35.1508 29.0523 35.6093 29.0523C35.7506 29.0523 35.927 29.0877 36.0681 29.1229L36.2798 28.417C36.1387 28.3816 35.927 28.3816 35.7859 28.3816ZM26.3306 30.1466C26.3306 31.1703 27.0362 31.9116 28.13 31.9116C28.6238 31.9116 28.9766 31.8057 29.3294 31.5234L28.9766 30.9233C28.6944 31.135 28.4122 31.2408 28.0946 31.2408C27.4948 31.2408 27.0715 30.8173 27.0715 30.1466C27.0715 29.5112 27.4948 29.0875 28.0946 29.0523C28.4122 29.0523 28.6944 29.1581 28.9766 29.3701L29.3294 28.7699C28.9766 28.4874 28.6238 28.3816 28.13 28.3816C27.0362 28.3816 26.3306 29.1229 26.3306 30.1466ZM33.1751 30.1466V28.4522H32.4342V28.8757C32.1872 28.5582 31.8344 28.3816 31.3758 28.3816C30.4232 28.3816 29.6823 29.1229 29.6823 30.1466C29.6823 31.1703 30.4232 31.9116 31.3758 31.9116C31.8696 31.9116 32.2226 31.7352 32.4342 31.4174V31.841H33.1751V30.1466ZM30.4584 30.1466C30.4584 29.5465 30.8465 29.0523 31.4815 29.0523C32.0813 29.0523 32.5048 29.5112 32.5048 30.1466C32.5048 30.7467 32.0813 31.2408 31.4815 31.2408C30.8465 31.2055 30.4584 30.7467 30.4584 30.1466ZM21.603 28.3816C20.6151 28.3816 19.9094 29.0875 19.9094 30.1466C19.9094 31.2056 20.615 31.9116 21.6382 31.9116C22.1321 31.9116 22.6262 31.7704 23.0143 31.4528L22.6613 30.9233C22.3791 31.135 22.0264 31.2762 21.6736 31.2762C21.2149 31.2762 20.7562 31.0644 20.6503 30.4642H23.1554V30.1819C23.1907 29.0875 22.5556 28.3816 21.6029 28.3816H21.603ZM21.603 29.0169C22.0616 29.0169 22.3793 29.2995 22.4497 29.829H20.6857C20.7562 29.37 21.0738 29.0169 21.603 29.0169ZM39.9843 30.1466V27.1108H39.2434V28.8757C38.9963 28.5582 38.6436 28.3816 38.1849 28.3816C37.2323 28.3816 36.4915 29.1229 36.4915 30.1466C36.4915 31.1703 37.2323 31.9116 38.1849 31.9116C38.6789 31.9116 39.0317 31.7352 39.2434 31.4174V31.841H39.9843V30.1466ZM37.2677 30.1466C37.2677 29.5465 37.6557 29.0523 38.2908 29.0523C38.8906 29.0523 39.3139 29.5112 39.3139 30.1466C39.3139 30.7467 38.8906 31.2408 38.2908 31.2408C37.6557 31.2055 37.2677 30.7467 37.2677 30.1466ZM12.5005 30.1466V28.4522H11.7596V28.8757C11.5126 28.5582 11.1598 28.3816 10.7012 28.3816C9.7486 28.3816 9.0077 29.1229 9.0077 30.1466C9.0077 31.1703 9.7486 31.9116 10.7012 31.9116C11.1952 31.9116 11.548 31.7352 11.7596 31.4174V31.841H12.5005V30.1466ZM9.7486 30.1466C9.7486 29.5465 10.1367 29.0523 10.7717 29.0523C11.3715 29.0523 11.795 29.5112 11.795 30.1466C11.795 30.7467 11.3715 31.2408 10.7717 31.2408C10.1367 31.2055 9.7486 30.7467 9.7486 30.1466Z" fill="white"/>
<path d="M15.8516 2.71807H26.965V22.6981H15.8516V2.71807Z" fill="#FF5F00"/>
<path d="M16.5574 12.7082C16.5574 8.64868 18.4625 5.04796 21.3908 2.71807C19.2388 1.02368 16.5222 0 13.5587 0C6.53755 0 0.857422 5.6833 0.857422 12.7082C0.857422 19.7329 6.53755 25.4164 13.5585 25.4164C16.5221 25.4164 19.2386 24.3927 21.3908 22.6981C18.4625 20.4036 16.5574 16.7677 16.5574 12.7082Z" fill="#EB001B"/>
<path d="M41.9591 12.7082C41.9591 19.7329 36.279 25.4164 29.258 25.4164C26.2945 25.4164 23.5779 24.3927 21.4258 22.6981C24.3894 20.3684 26.2593 16.7677 26.2593 12.7082C26.2593 8.64868 24.354 5.04796 21.4258 2.71807C23.5777 1.02368 26.2945 0 29.258 0C36.279 0 41.9593 5.71867 41.9593 12.7082H41.9591Z" fill="#F79E1B"/>
</g>
<defs>
<clipPath id="clip0_51_7705">
<rect width="41.1429" height="32" fill="white" transform="translate(0.857422)"/>
</clipPath>
</defs>
</svg>
