<svg width="83" height="80" viewBox="0 0 83 80" fill="none" xmlns="http://www.w3.org/2000/svg">
<circle cx="42.5" cy="40.5" r="31.5" fill="url(#paint0_linear_1_3077)"/>
<circle cx="79.5" cy="12.5" r="3.5" fill="url(#paint1_linear_1_3077)"/>
<circle cx="8.5" cy="4.5" r="4.5" fill="url(#paint2_linear_1_3077)"/>
<circle cx="4" cy="59" r="2" fill="url(#paint3_linear_1_3077)"/>
<circle cx="73" cy="71" r="1" fill="url(#paint4_linear_1_3077)"/>
<path fill-rule="evenodd" clip-rule="evenodd" d="M48.2497 36.0803H52.8334C52.8334 32.4 50.6282 30.25 46.8919 30.25H37.1082C33.3719 30.25 31.1667 32.4 31.1667 36.0333V43.9667C31.1667 47.6 33.3719 49.75 37.1082 49.75H46.8919C50.6282 49.75 52.8334 47.6 52.8334 43.9667V43.6287H48.2497C46.1224 43.6287 44.3979 41.9473 44.3979 39.8733C44.3979 37.7992 46.1224 36.1178 48.2497 36.1178V36.0803ZM48.2496 37.6951H52.0244C52.4712 37.6951 52.8333 38.0482 52.8333 38.4838V41.2252C52.8281 41.6587 52.469 42.0088 52.0244 42.0139H48.3363C47.2593 42.028 46.3176 41.3091 46.0733 40.2864C45.951 39.6515 46.1227 38.9964 46.5425 38.4966C46.9622 37.9968 47.5871 37.7034 48.2496 37.6951ZM48.4131 40.5774H48.7694C49.2268 40.5774 49.5976 40.216 49.5976 39.77C49.5976 39.3241 49.2268 38.9626 48.7694 38.9626H48.4131C48.1944 38.9601 47.9837 39.0431 47.8281 39.193C47.6725 39.3429 47.585 39.5474 47.585 39.7606C47.5849 40.2081 47.9542 40.5723 48.4131 40.5774ZM36.2993 36.0803H42.4142C42.8715 36.0803 43.2423 35.7188 43.2423 35.2729C43.2423 34.8269 42.8715 34.4655 42.4142 34.4655H36.2993C35.8457 34.4654 35.4765 34.8212 35.4712 35.2635C35.4712 35.7109 35.8404 36.0751 36.2993 36.0803Z" fill="white"/>
<circle cx="47" cy="2" r="1" fill="url(#paint5_linear_1_3077)"/>
<circle cx="27.5" cy="78.5" r="1.5" fill="url(#paint6_linear_1_3077)"/>
<circle cx="54.5" cy="76.5" r="0.5" fill="url(#paint7_linear_1_3077)"/>
<circle cx="76" cy="49" r="1" fill="url(#paint8_linear_1_3077)"/>
<circle cx="0.5" cy="33.5" r="0.5" fill="url(#paint9_linear_1_3077)"/>
<defs>
<linearGradient id="paint0_linear_1_3077" x1="74" y1="72" x2="-0.964344" y2="50.2648" gradientUnits="userSpaceOnUse">
<stop stop-color="#246BFD"/>
<stop offset="1" stop-color="#6F9EFF"/>
</linearGradient>
<linearGradient id="paint1_linear_1_3077" x1="83" y1="16" x2="74.6706" y2="13.585" gradientUnits="userSpaceOnUse">
<stop stop-color="#246BFD"/>
<stop offset="1" stop-color="#6F9EFF"/>
</linearGradient>
<linearGradient id="paint2_linear_1_3077" x1="13" y1="9" x2="2.29081" y2="5.89497" gradientUnits="userSpaceOnUse">
<stop stop-color="#246BFD"/>
<stop offset="1" stop-color="#6F9EFF"/>
</linearGradient>
<linearGradient id="paint3_linear_1_3077" x1="6" y1="61" x2="1.24036" y2="59.62" gradientUnits="userSpaceOnUse">
<stop stop-color="#246BFD"/>
<stop offset="1" stop-color="#6F9EFF"/>
</linearGradient>
<linearGradient id="paint4_linear_1_3077" x1="74" y1="72" x2="71.6202" y2="71.31" gradientUnits="userSpaceOnUse">
<stop stop-color="#246BFD"/>
<stop offset="1" stop-color="#6F9EFF"/>
</linearGradient>
<linearGradient id="paint5_linear_1_3077" x1="48" y1="3" x2="45.6202" y2="2.30999" gradientUnits="userSpaceOnUse">
<stop stop-color="#246BFD"/>
<stop offset="1" stop-color="#6F9EFF"/>
</linearGradient>
<linearGradient id="paint6_linear_1_3077" x1="29" y1="80" x2="25.4303" y2="78.965" gradientUnits="userSpaceOnUse">
<stop stop-color="#246BFD"/>
<stop offset="1" stop-color="#6F9EFF"/>
</linearGradient>
<linearGradient id="paint7_linear_1_3077" x1="55" y1="77" x2="53.8101" y2="76.655" gradientUnits="userSpaceOnUse">
<stop stop-color="#246BFD"/>
<stop offset="1" stop-color="#6F9EFF"/>
</linearGradient>
<linearGradient id="paint8_linear_1_3077" x1="77" y1="50" x2="74.6202" y2="49.31" gradientUnits="userSpaceOnUse">
<stop stop-color="#246BFD"/>
<stop offset="1" stop-color="#6F9EFF"/>
</linearGradient>
<linearGradient id="paint9_linear_1_3077" x1="1" y1="34" x2="-0.18991" y2="33.655" gradientUnits="userSpaceOnUse">
<stop stop-color="#246BFD"/>
<stop offset="1" stop-color="#6F9EFF"/>
</linearGradient>
</defs>
</svg>
