<svg width="28" height="28" viewBox="0 0 28 28" fill="none" xmlns="http://www.w3.org/2000/svg">
<path fill-rule="evenodd" clip-rule="evenodd" d="M19.4428 2.34539C21.121 2.2405 22.776 2.82323 24.0231 3.96538C25.1652 5.21243 25.748 6.86738 25.6547 8.5573V19.4427C25.7596 21.1326 25.1652 22.7876 24.0347 24.0346C22.7877 25.1768 21.121 25.7595 19.4428 25.6546H8.55727C6.86733 25.7595 5.21237 25.1768 3.96531 24.0346C2.82315 22.7876 2.24042 21.1326 2.34531 19.4427V8.5573C2.24042 6.86738 2.82315 5.21243 3.96531 3.96538C5.21237 2.82323 6.86733 2.2405 8.55727 2.34539H19.4428ZM12.8112 19.6525L20.6548 11.7856C21.3658 11.063 21.3658 9.89758 20.6548 9.18665L19.1397 7.67155C18.4171 6.94896 17.2517 6.94896 16.5291 7.67155L15.7482 8.46406C15.6317 8.58061 15.6317 8.77874 15.7482 8.89528C15.7482 8.89528 17.6013 10.7367 17.6363 10.7833C17.7645 10.9232 17.8461 11.1097 17.8461 11.3194C17.8461 11.739 17.5081 12.0886 17.0769 12.0886C16.8787 12.0886 16.6922 12.0071 16.564 11.8789L14.6177 9.9442C14.5245 9.85096 14.3613 9.85096 14.2681 9.9442L8.70878 15.5034C8.32417 15.8881 8.10273 16.4009 8.09108 16.9486L8.02115 19.7108C8.02115 19.8623 8.06777 20.0021 8.17266 20.107C8.27755 20.2119 8.41741 20.2702 8.56892 20.2702H11.3078C11.8672 20.2702 12.4033 20.0487 12.8112 19.6525Z" fill="white"/>
</svg>
