<svg width="60" height="60" viewBox="0 0 60 60" fill="none" xmlns="http://www.w3.org/2000/svg">
<rect width="60" height="60" rx="30" fill="#206EC0"/>
<path d="M29.9999 18.3333C23.5669 18.3333 18.3333 23.567 18.3333 30C18.3333 36.433 23.5669 41.6667 29.9999 41.6667C36.4329 41.6667 41.6666 36.433 41.6666 30C41.6666 23.567 36.4329 18.3333 29.9999 18.3333ZM31.1666 35.7342V37H28.8333V35.74C26.1044 35.3118 25.3333 33.4043 25.3333 32.3333H27.6666C27.6794 32.5002 27.8521 33.5 29.9999 33.5C31.6099 33.5 32.3333 32.8175 32.3333 32.3333C32.3333 31.9553 32.3333 31.1667 29.9999 31.1667C25.9399 31.1667 25.3333 28.9733 25.3333 27.6667C25.3333 26.164 26.5338 24.652 28.8333 24.2658V23.014H31.1666V24.3078C33.1896 24.7862 33.9666 26.4697 33.9666 27.6667H32.7999L31.6333 27.6877C31.6169 27.2443 31.3824 26.5 29.9999 26.5C28.4844 26.5 27.6666 27.102 27.6666 27.6667C27.6666 28.103 27.6666 28.8333 29.9999 28.8333C34.0599 28.8333 34.6666 31.0267 34.6666 32.3333C34.6666 33.836 33.4661 35.348 31.1666 35.7342Z" fill="#F7D100"/>
</svg>
