<svg width="24" height="24" viewBox="0 0 24 24" fill="none" xmlns="http://www.w3.org/2000/svg">
<path fill-rule="evenodd" clip-rule="evenodd" d="M6.94825 0.332397H17.0633C21.0183 0.332397 23.6666 3.10906 23.6666 7.23906V16.7719C23.6666 20.8902 21.0183 23.6657 17.0633 23.6657H6.94825C2.99325 23.6657 0.333252 20.8902 0.333252 16.7719V7.23906C0.333252 3.10906 2.99325 0.332397 6.94825 0.332397ZM11.9883 8.57023C11.4399 8.57023 10.9849 8.11406 10.9849 7.55523C10.9849 6.98356 11.4399 6.52856 12.0116 6.52856C12.5716 6.52856 13.0266 6.98356 13.0266 7.55523C13.0266 8.11406 12.5716 8.57023 11.9883 8.57023ZM13.0149 16.4102C13.0149 16.9702 12.5599 17.4252 11.9883 17.4252C11.4283 17.4252 10.9733 16.9702 10.9733 16.4102V11.2536C10.9733 10.6924 11.4283 10.2269 11.9883 10.2269C12.5599 10.2269 13.0149 10.6924 13.0149 11.2536V16.4102Z" fill="#47AC5F"/>
</svg>
