<svg width="83" height="80" viewBox="0 0 83 80" fill="none" xmlns="http://www.w3.org/2000/svg">
<circle cx="42.5" cy="40.5" r="31.5" fill="url(#paint0_linear_1_3060)"/>
<circle cx="79.5" cy="12.5" r="3.5" fill="url(#paint1_linear_1_3060)"/>
<circle cx="8.5" cy="4.5" r="4.5" fill="url(#paint2_linear_1_3060)"/>
<circle cx="4" cy="59" r="2" fill="url(#paint3_linear_1_3060)"/>
<circle cx="73" cy="71" r="1" fill="url(#paint4_linear_1_3060)"/>
<path fill-rule="evenodd" clip-rule="evenodd" d="M36.9412 29.1668H47.0487C50.732 29.1668 52.8337 31.2468 52.8337 34.941V45.0593C52.8337 48.7318 50.7428 50.8335 47.0595 50.8335H36.9412C33.247 50.8335 31.167 48.7318 31.167 45.0593V34.941C31.167 31.2468 33.247 29.1668 36.9412 29.1668ZM42.8885 40.8993H45.9652C46.4635 40.8885 46.8644 40.4877 46.8644 39.9893C46.8644 39.491 46.4635 39.0902 45.9652 39.0902H42.8885V36.0352C42.8885 35.5368 42.4877 35.136 41.9894 35.136C41.491 35.136 41.0902 35.5368 41.0902 36.0352V39.0902H38.0244C37.786 39.0902 37.5585 39.1877 37.3852 39.3502C37.2227 39.5235 37.1252 39.7499 37.1252 39.9893C37.1252 40.4877 37.526 40.8885 38.0244 40.8993H41.0902V43.9652C41.0902 44.4635 41.491 44.8643 41.9894 44.8643C42.4877 44.8643 42.8885 44.4635 42.8885 43.9652V40.8993Z" fill="white"/>
<circle cx="47" cy="2" r="1" fill="url(#paint5_linear_1_3060)"/>
<circle cx="27.5" cy="78.5" r="1.5" fill="url(#paint6_linear_1_3060)"/>
<circle cx="54.5" cy="76.5" r="0.5" fill="url(#paint7_linear_1_3060)"/>
<circle cx="76" cy="49" r="1" fill="url(#paint8_linear_1_3060)"/>
<circle cx="0.5" cy="33.5" r="0.5" fill="url(#paint9_linear_1_3060)"/>
<defs>
<linearGradient id="paint0_linear_1_3060" x1="74" y1="72" x2="-0.964344" y2="50.2648" gradientUnits="userSpaceOnUse">
<stop stop-color="#FF4D67"/>
<stop offset="1" stop-color="#FF8A9B"/>
</linearGradient>
<linearGradient id="paint1_linear_1_3060" x1="83" y1="16" x2="74.6706" y2="13.585" gradientUnits="userSpaceOnUse">
<stop stop-color="#FF4D67"/>
<stop offset="1" stop-color="#FF8A9B"/>
</linearGradient>
<linearGradient id="paint2_linear_1_3060" x1="13" y1="9" x2="2.29081" y2="5.89497" gradientUnits="userSpaceOnUse">
<stop stop-color="#FF4D67"/>
<stop offset="1" stop-color="#FF8A9B"/>
</linearGradient>
<linearGradient id="paint3_linear_1_3060" x1="6" y1="61" x2="1.24036" y2="59.62" gradientUnits="userSpaceOnUse">
<stop stop-color="#FF4D67"/>
<stop offset="1" stop-color="#FF8A9B"/>
</linearGradient>
<linearGradient id="paint4_linear_1_3060" x1="74" y1="72" x2="71.6202" y2="71.31" gradientUnits="userSpaceOnUse">
<stop stop-color="#FF4D67"/>
<stop offset="1" stop-color="#FF8A9B"/>
</linearGradient>
<linearGradient id="paint5_linear_1_3060" x1="48" y1="3" x2="45.6202" y2="2.30999" gradientUnits="userSpaceOnUse">
<stop stop-color="#FF4D67"/>
<stop offset="1" stop-color="#FF8A9B"/>
</linearGradient>
<linearGradient id="paint6_linear_1_3060" x1="29" y1="80" x2="25.4303" y2="78.965" gradientUnits="userSpaceOnUse">
<stop stop-color="#FF4D67"/>
<stop offset="1" stop-color="#FF8A9B"/>
</linearGradient>
<linearGradient id="paint7_linear_1_3060" x1="55" y1="77" x2="53.8101" y2="76.655" gradientUnits="userSpaceOnUse">
<stop stop-color="#FF4D67"/>
<stop offset="1" stop-color="#FF8A9B"/>
</linearGradient>
<linearGradient id="paint8_linear_1_3060" x1="77" y1="50" x2="74.6202" y2="49.31" gradientUnits="userSpaceOnUse">
<stop stop-color="#FF4D67"/>
<stop offset="1" stop-color="#FF8A9B"/>
</linearGradient>
<linearGradient id="paint9_linear_1_3060" x1="1" y1="34" x2="-0.18991" y2="33.655" gradientUnits="userSpaceOnUse">
<stop stop-color="#FF4D67"/>
<stop offset="1" stop-color="#FF8A9B"/>
</linearGradient>
</defs>
</svg>
