<svg width="29" height="28" viewBox="0 0 29 28" fill="none" xmlns="http://www.w3.org/2000/svg">
<path fill-rule="evenodd" clip-rule="evenodd" d="M14.4999 25.6668C8.05992 25.6668 2.83325 20.4518 2.83325 14.0002C2.83325 7.56016 8.05992 2.3335 14.4999 2.3335C20.9516 2.3335 26.1666 7.56016 26.1666 14.0002C26.1666 20.4518 20.9516 25.6668 14.4999 25.6668ZM18.2216 18.3285C18.3616 18.4102 18.5133 18.4568 18.6766 18.4568C18.9683 18.4568 19.2599 18.3052 19.4233 18.0252C19.6683 17.6168 19.5399 17.0802 19.1199 16.8235L14.9666 14.3502V8.96016C14.9666 8.47016 14.5699 8.08516 14.0916 8.08516C13.6133 8.08516 13.2166 8.47016 13.2166 8.96016V14.8518C13.2166 15.1552 13.3799 15.4352 13.6483 15.5985L18.2216 18.3285Z" fill="#47AC5F"/>
</svg>
