<svg width="26" height="30" viewBox="0 0 26 30" fill="none" xmlns="http://www.w3.org/2000/svg">
<path fill-rule="evenodd" clip-rule="evenodd" d="M0.25 12.4766C0.25 5.57684 6.01582 0 12.9902 0C19.9842 0 25.75 5.57684 25.75 12.4766C25.75 15.9535 24.4855 19.1814 22.4042 21.9174C20.1082 24.9353 17.2782 27.5647 14.0928 29.6286C13.3638 30.1056 12.7058 30.1416 11.9057 29.6286C8.7021 27.5647 5.87213 24.9353 3.59575 21.9174C1.51298 19.1814 0.25 15.9535 0.25 12.4766ZM8.79134 12.8651C8.79134 15.1766 10.6775 16.9945 12.9902 16.9945C15.3044 16.9945 17.2087 15.1766 17.2087 12.8651C17.2087 10.5717 15.3044 8.66525 12.9902 8.66525C10.6775 8.66525 8.79134 10.5717 8.79134 12.8651Z" fill="white"/>
</svg>
