<svg width="21" height="24" viewBox="0 0 21 24" fill="none" xmlns="http://www.w3.org/2000/svg">
<path fill-rule="evenodd" clip-rule="evenodd" d="M5.61167 0.333374H15.3895C18.9933 0.333374 21 2.41004 21 5.96837V18.02C21 21.6367 18.9933 23.6667 15.3895 23.6667H5.61167C2.065 23.6667 0 21.6367 0 18.02V5.96837C0 2.41004 2.065 0.333374 5.61167 0.333374ZM5.92667 5.77004V5.75837H9.41383C9.91667 5.75837 10.325 6.16671 10.325 6.66721C10.325 7.18171 9.91667 7.59004 9.41383 7.59004H5.92667C5.42383 7.59004 5.01667 7.18171 5.01667 6.68004C5.01667 6.17837 5.42383 5.77004 5.92667 5.77004ZM5.92667 12.8634H15.0733C15.575 12.8634 15.9833 12.455 15.9833 11.9534C15.9833 11.4517 15.575 11.0422 15.0733 11.0422H5.92667C5.42383 11.0422 5.01667 11.4517 5.01667 11.9534C5.01667 12.455 5.42383 12.8634 5.92667 12.8634ZM5.92667 18.195H15.0733C15.5388 18.1484 15.89 17.7505 15.89 17.285C15.89 16.8067 15.5388 16.41 15.0733 16.3634H5.92667C5.57667 16.3284 5.23833 16.4917 5.05167 16.795C4.865 17.0867 4.865 17.4717 5.05167 17.775C5.23833 18.0667 5.57667 18.2417 5.92667 18.195Z" fill="#47AC5F"/>
</svg>
