<svg width="28" height="28" viewBox="0 0 28 28" fill="none" xmlns="http://www.w3.org/2000/svg">
<path fill-rule="evenodd" clip-rule="evenodd" d="M9.87672 6.10896C9.61647 6.46045 9.64636 6.96183 9.97515 7.28001C10.3252 7.63001 10.8968 7.63001 11.2468 7.28001L13.1018 5.41334V10.2433H14.8985V5.41334L16.7535 7.28001L16.8541 7.36679C17.2056 7.62712 17.707 7.59819 18.0252 7.28001C18.2002 7.10501 18.2935 6.87168 18.2935 6.63834C18.2935 6.41668 18.2002 6.18334 18.0252 6.00834L14.6302 2.60168L14.5243 2.50657C14.3735 2.39308 14.1868 2.33334 14.0002 2.33334C13.7552 2.33334 13.5335 2.42668 13.3585 2.60168L9.96349 6.00834L9.87672 6.10896ZM7.26961 10.2493C4.52415 10.379 2.33325 12.6885 2.33325 15.5021V21.2947L2.3389 21.5426C2.46637 24.3366 4.73692 26.5769 7.52492 26.5769H20.4866L20.7302 26.5712C23.4757 26.4415 25.6666 24.1317 25.6666 21.3066V15.5258L25.6609 15.2769C25.5328 12.4727 23.2516 10.2436 20.4749 10.2436H14.8983V17.3657L14.8899 17.4909C14.8296 17.9405 14.4491 18.2797 13.9999 18.2797C13.4983 18.2797 13.1016 17.8761 13.1016 17.3657V10.2436H7.51325L7.26961 10.2493Z" fill="white"/>
</svg>
