<svg width="20" height="14" viewBox="0 0 20 14" fill="none" xmlns="http://www.w3.org/2000/svg">
<path d="M4.99998 13.6667C4.30553 13.6667 3.71526 13.4236 3.22915 12.9375C2.74304 12.4514 2.49998 11.8611 2.49998 11.1667H0.833313V2.00001C0.833313 1.54168 0.996646 1.14945 1.32331 0.823343C1.64942 0.496677 2.04165 0.333344 2.49998 0.333344H14.1666V3.66668H16.6666L19.1666 7.00001V11.1667H17.5C17.5 11.8611 17.2569 12.4514 16.7708 12.9375C16.2847 13.4236 15.6944 13.6667 15 13.6667C14.3055 13.6667 13.7153 13.4236 13.2291 12.9375C12.743 12.4514 12.5 11.8611 12.5 11.1667H7.49998C7.49998 11.8611 7.25692 12.4514 6.77081 12.9375C6.2847 13.4236 5.69442 13.6667 4.99998 13.6667ZM4.99998 12C5.23609 12 5.43415 11.92 5.59415 11.76C5.75359 11.6006 5.83331 11.4028 5.83331 11.1667C5.83331 10.9306 5.75359 10.7328 5.59415 10.5733C5.43415 10.4133 5.23609 10.3333 4.99998 10.3333C4.76387 10.3333 4.56581 10.4133 4.40581 10.5733C4.24637 10.7328 4.16665 10.9306 4.16665 11.1667C4.16665 11.4028 4.24637 11.6006 4.40581 11.76C4.56581 11.92 4.76387 12 4.99998 12ZM15 12C15.2361 12 15.4339 11.92 15.5933 11.76C15.7533 11.6006 15.8333 11.4028 15.8333 11.1667C15.8333 10.9306 15.7533 10.7328 15.5933 10.5733C15.4339 10.4133 15.2361 10.3333 15 10.3333C14.7639 10.3333 14.5661 10.4133 14.4066 10.5733C14.2466 10.7328 14.1666 10.9306 14.1666 11.1667C14.1666 11.4028 14.2466 11.6006 14.4066 11.76C14.5661 11.92 14.7639 12 15 12ZM14.1666 7.83334H17.7083L15.8333 5.33334H14.1666V7.83334Z" fill="#212121"/>
</svg>
