<svg width="62" height="20" viewBox="0 0 62 20" fill="none" xmlns="http://www.w3.org/2000/svg">
<path fill-rule="evenodd" clip-rule="evenodd" d="M45.1356 0.824254C44.157 0.432521 42.6047 0 40.6854 0C35.7856 0 32.3352 2.63619 32.314 6.40515C32.2733 9.18587 34.7844 10.7304 36.6625 11.6575C38.5821 12.605 39.2346 13.2234 39.2346 14.0679C39.2151 15.3649 37.6835 15.9628 36.255 15.9628C34.274 15.9628 33.2126 15.6545 31.5996 14.9329L30.9463 14.6236L30.252 18.9696C31.4157 19.5045 33.5596 19.9792 35.7856 20C40.9917 20 44.3811 17.4046 44.4212 13.3882C44.441 11.1842 43.1151 9.49548 40.2564 8.11552C38.5211 7.22967 37.4583 6.63236 37.4583 5.72598C37.4786 4.902 38.3572 4.05803 40.3161 4.05803C41.9291 4.0167 43.1143 4.40788 44.0121 4.79934L44.4608 5.00493L45.1356 0.824254ZM27.1492 19.7111H22.1875L25.2909 0.350586H30.2523L27.1492 19.7111ZM57.8538 0.351074H54.016C52.8325 0.351074 51.9333 0.700924 51.4227 1.95743L44.0527 19.7113H49.2589C49.2589 19.7113 50.116 17.3218 50.3002 16.8071H56.6706C56.813 17.4869 57.2626 19.7113 57.2626 19.7113H61.8567L57.8538 0.351074ZM51.7295 12.853C52.1381 11.7407 53.7104 7.43606 53.7104 7.43606C53.7021 7.45271 53.7666 7.27225 53.8627 7.00366L53.8634 7.00149L53.8636 7.00104C54.006 6.60269 54.2172 6.01209 54.3632 5.58252L54.71 7.25074C54.71 7.25074 55.6496 11.885 55.8536 12.853H51.7295ZM18.0429 0.350586L13.1838 13.5526L12.6529 10.8754C12.6529 10.8756 12.653 10.8757 12.6531 10.8759L10.9177 1.97802C10.632 0.741498 9.75398 0.391374 8.67194 0.350586H0.68909L0.607422 0.741771C2.55429 1.24407 4.29559 1.96787 5.82135 2.86782L10.2437 19.6906H15.4906L23.2895 0.350586H18.0429Z" fill="white"/>
</svg>
