<svg width="24" height="22" viewBox="0 0 24 22" fill="none" xmlns="http://www.w3.org/2000/svg">
<path fill-rule="evenodd" clip-rule="evenodd" d="M18.7303 6.77877H23.6666C23.6666 2.81536 21.2918 0.5 17.2681 0.5H6.73177C2.70807 0.5 0.333252 2.81536 0.333252 6.72821V15.2718C0.333252 19.1846 2.70807 21.5 6.73177 21.5H17.2681C21.2918 21.5 23.6666 19.1846 23.6666 15.2718V14.9078H18.7303C16.4393 14.9078 14.5821 13.0971 14.5821 10.8635C14.5821 8.6299 16.4393 6.81921 18.7303 6.81921V6.77877ZM18.7303 8.51781H22.7955C23.2766 8.51781 23.6666 8.89806 23.6666 9.36712V12.3195C23.661 12.7862 23.2742 13.1633 22.7955 13.1688H18.8236C17.6638 13.184 16.6497 12.4098 16.3866 11.3084C16.2548 10.6247 16.4398 9.91916 16.8918 9.38092C17.3439 8.84268 18.0168 8.52675 18.7303 8.51781ZM18.9066 11.6218H19.2903C19.7828 11.6218 20.1821 11.2325 20.1821 10.7523C20.1821 10.2721 19.7828 9.88276 19.2903 9.88276H18.9066C18.671 9.88006 18.4441 9.96941 18.2766 10.1309C18.109 10.2923 18.0147 10.5125 18.0147 10.7422C18.0147 11.2241 18.4124 11.6163 18.9066 11.6218ZM5.86066 6.77877H12.4458C12.9384 6.77877 13.3377 6.38947 13.3377 5.90924C13.3377 5.42902 12.9384 5.03972 12.4458 5.03972H5.86066C5.37212 5.03969 4.97449 5.42286 4.96881 5.89913C4.96877 6.38102 5.36643 6.77323 5.86066 6.77877Z" fill="white"/>
</svg>
